<?xml version="1.0" encoding="UTF-8" standalone="no"?>
<svg width="166px" height="15px" viewBox="0 0 166 15" version="1.1" xmlns="http://www.w3.org/2000/svg" xmlns:xlink="http://www.w3.org/1999/xlink">
    <!-- Generator: Sketch 3.8.3 (29802) - http://www.bohemiancoding.com/sketch -->
    <title>Page 1</title>
    <desc>Created with Sketch.</desc>
    <defs>
        <polygon id="path-1" points="14.8011824 0.252122076 0.129421745 0.252122076 0.129421745 14.3018189 14.8011824 14.3018189"></polygon>
        <polygon id="path-3" points="6.62235941 12.2050785 6.62235941 0.251958626 0.0963796395 0.251958626 0.0963796395 12.2050785 6.62235941 12.2050785"></polygon>
    </defs>
    <g id="Boostrap-3-Grid" stroke="none" stroke-width="1" fill="none" fill-rule="evenodd">
        <g id="MVDSoundCity-Site-v1-Copy-3" transform="translate(-602.000000, -5239.000000)">
            <g id="Group-27" transform="translate(110.000000, 5174.000000)">
                <g id="Group-25" transform="translate(133.000000, 45.000000)">
                    <g id="Page-1" transform="translate(359.842105, 20.473684)">
                        <path d="M3.00219912,8.15098004 C3.00219912,9.53090914 3.00219912,11.7534245 3.01982705,12.0218916 C3.07476057,12.9000283 3.07476057,13.1505159 3.63147495,13.4202088 C4.11726769,13.6518996 4.8900266,13.6882673 5.21388843,13.6882673 C6.18424405,13.6882673 7.74902961,13.1693126 7.74902961,11.1433463 C7.74902961,10.068252 7.38868208,8.50934481 6.00468522,7.55969861 C5.39344726,7.14698662 4.94455018,7.09345665 4.51287106,7.03951806 C4.2791986,7.00355899 3.37976462,7.00355899 3.11001642,7.00355899 C3.03827487,7.00355899 3.00219912,7.03951806 3.00219912,7.12941572 L3.00219912,8.15098004 Z M3.00219912,6.25127902 C3.00219912,6.37672712 3.03827487,6.41268618 3.12805429,6.447828 C3.23587158,6.46662478 3.56014336,6.51974613 4.22467503,6.51974613 C5.23151635,6.51974613 5.48363663,6.48419569 5.86079218,6.05432142 C6.23876762,5.6236299 6.50851583,4.97922712 6.50851583,4.24410943 C6.50851583,2.75630314 5.84316425,1.16225417 4.08078199,1.16225417 C3.88359523,1.16225417 3.50602974,1.17900782 3.21824366,1.25133458 C3.05590279,1.28770227 3.00219912,1.34082361 3.00219912,1.44829218 L3.00219912,6.25127902 Z M1.56408864,5.85654656 C1.56408864,3.06072931 1.56408864,2.55893692 1.52801289,1.98563501 C1.49193714,1.37637405 1.3480441,1.08992741 0.754844025,0.964479313 C0.610950986,0.9293375 0.305946937,0.910540716 0.143606073,0.910540716 C0.0726844325,0.910540716 0.000122985504,0.874581652 0.000122985504,0.803889401 C0.000122985504,0.695194956 0.089902403,0.659644518 0.28708916,0.659644518 C1.09633377,0.659644518 2.22985016,0.71399174 2.31921963,0.71399174 C2.75089875,0.71399174 3.45191612,0.659644518 4.2791986,0.659644518 C7.22757107,0.659644518 7.87447482,2.45146835 7.87447482,3.3479932 C7.87447482,4.81659408 7.02915446,5.69595665 6.18424405,6.5732761 C7.5149472,6.98598808 9.29495739,8.25763136 9.29495739,10.35429 C9.29495739,12.2727878 7.78551531,14.2611606 4.71005782,14.2611606 C4.51287106,14.2611606 3.9372989,14.2260188 3.41625032,14.2076306 C2.89397188,14.1720802 2.39096117,14.1545093 2.31921963,14.1545093 C2.28314388,14.1545093 1.97731993,14.1545093 1.59975443,14.1720802 C1.23981686,14.1720802 0.82699552,14.2076306 0.557247316,14.2076306 C0.359650607,14.2076306 0.269461238,14.1720802 0.269461238,14.0646116 C0.269461238,14.010673 0.305946937,13.9567344 0.413354277,13.9567344 C0.575695142,13.9567344 0.791329724,13.9203667 0.952850686,13.8852249 C1.31237831,13.8137154 1.40215772,13.4202088 1.47389927,12.9000283 C1.56408864,12.1473397 1.56408864,10.7314515 1.56408864,9.01072858 L1.56408864,5.85654656 Z" id="Fill-1" fill="#340604"></path>
                        <path d="M12.7819244,7.09357924 C12.7819244,4.72804488 12.7819244,4.29776199 12.7462586,3.81394912 C12.7097729,3.29458582 12.6204034,3.04368962 12.0985349,2.97218012 C11.9726798,2.95420058 11.7033415,2.93499518 11.5598584,2.93499518 C11.5049249,2.93499518 11.4340033,2.86430292 11.4340033,2.80954708 C11.4340033,2.72005804 11.5049249,2.68409898 11.6857136,2.68409898 C12.4047688,2.68409898 13.4292381,2.72005804 13.5190175,2.72005804 C13.6268348,2.72005804 16.9347349,2.73885482 17.2942625,2.72005804 C17.6000864,2.70289576 17.8878725,2.65018304 18.0133177,2.63097763 C18.0858792,2.61340673 18.1580307,2.5590595 18.2293623,2.5590595 C18.2838858,2.5590595 18.3019237,2.63097763 18.3019237,2.70289576 C18.3019237,2.80954708 18.2117343,2.98975102 18.1756586,3.41962529 C18.1580307,3.56346155 18.121545,4.24423202 18.0858792,4.42321009 C18.0674314,4.49512822 18.0133177,4.58502588 17.9419861,4.58502588 C17.8522067,4.58502588 17.816131,4.51310775 17.816131,4.38725102 C17.816131,4.28019108 17.7980931,4.02929488 17.7263516,3.85031681 C17.6185343,3.59860336 17.4570133,3.4911348 16.5936551,3.38448348 C16.3234969,3.34811579 14.4893731,3.33013626 14.3106342,3.33013626 C14.2384827,3.33013626 14.2200349,3.38448348 14.2200349,3.4911348 L14.2200349,7.6313307 C14.2200349,7.73798202 14.2200349,7.79273787 14.3106342,7.79273787 C14.5082309,7.79273787 16.5936551,7.79273787 16.9531827,7.7567788 C17.3303382,7.72041111 17.5640107,7.70243158 17.7263516,7.54184167 C17.8337589,7.4343731 17.9059104,7.34447544 17.960024,7.34447544 C18.0133177,7.34447544 18.0498034,7.37961725 18.0498034,7.46951491 C18.0498034,7.5598212 17.960024,7.81030877 17.9243582,8.31169254 C17.8878725,8.61693596 17.8522067,9.19023787 17.8522067,9.29811506 C17.8522067,9.42233728 17.816131,9.5845617 17.7083137,9.5845617 C17.6361622,9.5845617 17.6000864,9.53103173 17.6000864,9.44154269 C17.6000864,9.29811506 17.6000864,9.13629927 17.5279349,8.93852442 C17.4742313,8.72358728 17.3303382,8.54501784 16.7191003,8.47309971 C16.2878311,8.41956974 14.5976004,8.4015902 14.3282621,8.4015902 C14.2384827,8.4015902 14.2200349,8.45512018 14.2200349,8.5094674 L14.2200349,9.78192792 C14.2200349,10.3012912 14.2024069,12.0751355 14.2200349,12.3791531 C14.2561106,13.4015346 14.5443066,13.5984923 16.1082723,13.5984923 C16.5215036,13.5984923 17.2766346,13.5984923 17.6902758,13.4379023 C18.1035071,13.258107 18.3195516,12.9896399 18.4093311,12.3791531 C18.4458168,12.2009923 18.4810726,12.1474623 18.571262,12.1474623 C18.6614513,12.1474623 18.6790793,12.2725018 18.6790793,12.3791531 C18.6790793,12.4882561 18.553634,13.5265741 18.4634447,13.8493885 C18.3552174,14.2441209 18.1941064,14.2441209 17.5824585,14.2441209 C16.3956484,14.2441209 15.4789965,14.2077532 14.8312728,14.1901823 C14.1663312,14.1546319 13.7526899,14.1546319 13.5190175,14.1546319 C13.4833517,14.1546319 13.1771178,14.1546319 12.835628,14.1722028 C12.530624,14.1901823 12.1706864,14.2077532 11.9189761,14.2077532 C11.7570452,14.2077532 11.6676757,14.1722028 11.6676757,14.0823051 C11.6676757,14.0291838 11.7033415,13.956857 11.7935309,13.956857 C11.937014,13.956857 12.1350206,13.9037357 12.2789137,13.8853475 C12.5843277,13.8318175 12.6204034,13.5265741 12.691735,13.0795376 C12.7819244,12.4514798 12.7819244,11.2509374 12.7819244,9.78192792 L12.7819244,7.09357924 Z" id="Fill-3" fill="#340604"></path>
                        <path d="M22.6337191,12.1295645 C22.6697949,13.3832282 22.813278,13.7599811 23.245367,13.8674497 C23.5323332,13.9393678 23.8918608,13.9569387 24.0369837,13.9569387 C24.1079054,13.9569387 24.162019,14.0104687 24.162019,14.0823868 C24.162019,14.1722845 24.0542017,14.2078349 23.8742329,14.2078349 C22.9756188,14.2078349 22.3467529,14.1547136 22.20204,14.1547136 C22.0585569,14.1547136 21.3932053,14.2078349 20.6741501,14.2078349 C20.5122192,14.2078349 20.4228497,14.1898554 20.4228497,14.0823868 C20.4228497,14.0104687 20.4765534,13.9569387 20.5482949,13.9569387 C20.6741501,13.9569387 20.9611163,13.9393678 21.1960186,13.8674497 C21.591212,13.7599811 21.6449157,13.3476778 21.6449157,11.9677487 L21.6449157,3.24032032 C21.6449157,2.63105936 21.735105,2.46965219 21.8609602,2.46965219 C22.040929,2.46965219 22.3102672,2.77407836 22.4717882,2.93548553 C22.7234985,3.18719898 25.0253772,5.62342558 27.4699191,8.13238757 C29.0342947,9.74523333 30.7241155,11.5558539 31.2094983,12.0572377 L31.0479773,4.42329181 C31.0299394,3.43809518 30.94016,3.09730132 30.4547772,3.00699503 C30.1661713,2.95428231 29.8074635,2.93548553 29.6811984,2.93548553 C29.5733811,2.93548553 29.5553433,2.84681374 29.5553433,2.79205789 C29.5553433,2.70338611 29.6811984,2.6841807 29.8611672,2.6841807 C30.5806324,2.6841807 31.3353534,2.72013977 31.5157322,2.72013977 C31.6948811,2.72013977 32.2167495,2.6841807 32.8636533,2.6841807 C33.0255842,2.6841807 33.1514394,2.70338611 33.1514394,2.79205789 C33.1514394,2.84681374 33.0796978,2.93548553 32.9718805,2.93548553 C32.899729,2.93548553 32.7734639,2.93548553 32.594315,2.97185322 C32.0720366,3.07973041 32.0367808,3.38415658 32.0367808,4.29784371 L32.001115,13.2222297 C32.001115,14.2254058 31.983487,14.3153035 31.8752598,14.3153035 C31.7129189,14.3153035 31.551398,14.1898554 30.6708218,13.3832282 C30.508071,13.2402092 28.2250501,11.0005316 26.5532671,9.26264635 C24.7187334,7.34455716 22.9395431,5.48163246 22.4541603,4.94347237 L22.6337191,12.1295645 Z" id="Fill-5" fill="#340604"></path>
                        <path d="M34.894103,13.9925709 C34.6780584,13.8851023 34.6604305,13.831981 34.6604305,13.4200863 C34.6604305,12.6665804 34.732582,12.0577281 34.7502099,11.8068319 C34.7502099,11.6446075 34.7858757,11.5563443 34.876475,11.5563443 C34.9662545,11.5563443 35.0199581,11.6094656 35.0199581,11.7345051 C35.0199581,11.8599532 35.0199581,12.075299 35.0736618,12.2906447 C35.3249622,13.4012895 36.5117723,13.7947961 37.5727272,13.7947961 C39.1371028,13.7947961 39.9459375,12.9174766 39.9459375,11.7704642 C39.9459375,10.6782076 39.3523275,10.158027 37.9507027,9.11848319 L37.2308275,8.58154898 C35.5229688,7.30745395 34.9662545,6.37701316 34.9662545,5.31989839 C34.9662545,3.52766594 36.3859171,2.45175439 38.4717513,2.45175439 C39.1010271,2.45175439 39.729893,2.54165205 40.1078684,2.63073246 C40.4136924,2.70346784 40.5391376,2.70346784 40.6645828,2.70346784 C40.7912579,2.70346784 40.8269237,2.71981287 40.8269237,2.81011915 C40.8269237,2.88244591 40.7551821,3.38464693 40.7551821,4.42296491 C40.7551821,4.65588158 40.7363243,4.76375877 40.6297369,4.76375877 C40.5215097,4.76375877 40.5034718,4.69184064 40.485024,4.56639254 C40.467396,4.38741447 40.3415409,3.97511111 40.2513515,3.81370395 C40.1439442,3.63554313 39.6220757,3.06060673 38.2015931,3.06060673 C37.0512687,3.06060673 36.098541,3.63554313 36.098541,4.71063743 C36.098541,5.67785453 36.5839238,6.23276827 38.1478894,7.29110892 L38.5976064,7.59553509 C40.5215097,8.90354605 41.1864513,9.96025219 41.1864513,11.2686718 C41.1864513,12.1643794 40.8445516,13.1328224 39.712675,13.8671228 C39.0469135,14.2978143 38.0572901,14.4048743 37.1947518,14.4048743 C36.4580686,14.4048743 35.5405968,14.2978143 34.894103,13.9925709" id="Fill-7" fill="#340604"></path>
                        <path d="M49.7620664,13.7784102 C51.182549,13.7784102 54.0411421,13.0253129 54.0411421,8.61705855 C54.0411421,4.96149276 51.8110049,3.04422083 49.3123495,3.04422083 C46.668981,3.04422083 44.7631157,4.69139115 44.7631157,8.00698034 C44.7631157,11.5563034 46.9026535,13.7784102 49.7620664,13.7784102 M49.4017189,2.46928443 C52.9621492,2.46928443 55.6592213,4.63826981 55.6592213,8.18636703 C55.6592213,11.5918539 53.1236702,14.405242 49.3123495,14.405242 C44.9787503,14.405242 43.1278184,11.1611624 43.1278184,8.4192837 C43.1278184,5.96426031 45.0328639,2.46928443 49.4017189,2.46928443" id="Fill-9" fill="#340604"></path>
                        <path d="M59.3971197,12.1295645 C59.4336054,13.3832282 59.5770885,13.7599811 60.0087677,13.8674497 C60.2961438,13.9393678 60.6556714,13.9569387 60.7999744,13.9569387 C60.871306,13.9569387 60.9254196,14.0104687 60.9254196,14.0823868 C60.9254196,14.1722845 60.8176023,14.2078349 60.6380435,14.2078349 C59.7390194,14.2078349 59.1101536,14.1547136 58.9662605,14.1547136 C58.8219575,14.1547136 58.1574259,14.2078349 57.4383706,14.2078349 C57.2760298,14.2078349 57.1862503,14.1898554 57.1862503,14.0823868 C57.1862503,14.0104687 57.239954,13.9569387 57.3125155,13.9569387 C57.4383706,13.9569387 57.7249269,13.9393678 57.9590093,13.8674497 C58.3546126,13.7599811 58.4087263,13.3476778 58.4087263,11.9677487 L58.4087263,3.24032032 C58.4087263,2.63105936 58.4993256,2.46965219 58.6247708,2.46965219 C58.8043296,2.46965219 59.0740778,2.77407836 59.2360087,2.93548553 C59.4873091,3.18719898 61.7887778,5.62342558 64.2337296,8.13238757 C65.7981053,9.74523333 67.488336,11.5558539 67.9737188,12.0572377 L67.8113779,4.42329181 C67.7933401,3.43809518 67.7043806,3.09730132 67.2185878,3.00699503 C66.9303918,2.95428231 66.5708642,2.93548553 66.445009,2.93548553 C66.3376017,2.93548553 66.3187439,2.84681374 66.3187439,2.79205789 C66.3187439,2.70338611 66.445009,2.6841807 66.6245678,2.6841807 C67.344033,2.6841807 68.099164,2.72013977 68.2791328,2.72013977 C68.4586916,2.72013977 68.9801502,2.6841807 69.6278738,2.6841807 C69.7889848,2.6841807 69.91484,2.70338611 69.91484,2.79205789 C69.91484,2.84681374 69.8435084,2.93548553 69.7356911,2.93548553 C69.6631297,2.93548553 69.5376845,2.93548553 69.3581256,2.97185322 C68.8362571,3.07973041 68.8005913,3.38415658 68.8005913,4.29784371 L68.7649255,13.2222297 C68.7649255,14.2254058 68.7468877,14.3153035 68.6390704,14.3153035 C68.4767295,14.3153035 68.3152086,14.1898554 67.4342224,13.3832282 C67.2722915,13.2402092 64.9892706,11.0005316 63.3166677,9.26264635 C61.4829539,7.34455716 59.7033537,5.48163246 59.2175609,4.94347237 L59.3971197,12.1295645 Z" id="Fill-11" fill="#340604"></path>
                        <g id="Group-15" transform="translate(75.021157, 0.156667)">
                            <mask id="mask-2" fill="white">
                                <use xlink:href="#path-1"></use>
                            </mask>
                            <g id="Clip-14"></g>
                            <path d="M8.52605202,12.0261822 C7.5192107,11.2019841 5.73961046,9.50005789 5.27226555,8.99744825 C4.80410073,8.49606447 3.65418627,7.22319532 3.14994571,6.48889488 C2.21607579,7.09774722 1.53227639,8.06537295 1.53227639,9.50005789 C1.53227639,11.7393269 3.11468987,13.3529899 5.12837251,13.3529899 C6.80015545,13.3529899 7.91481407,12.653014 8.52605202,12.0261822 M0.129421745,10.3422355 C0.129421745,8.24516827 1.47857272,6.84725965 2.88060746,6.02265292 C2.21607579,5.09057763 2.00003125,4.35627719 2.00003125,3.54965 C2.00003125,2.13417047 3.45617961,0.252040351 5.86505567,0.252040351 C6.78252753,0.252040351 7.55528644,0.432244298 8.04107918,0.700711404 C8.25630381,0.825750877 8.27475164,0.93362807 8.27475164,1.14774795 C8.27475164,1.68590804 8.20260014,2.94038904 8.14807657,3.20926477 C8.0943729,3.47854912 8.04107918,3.51328231 7.96851774,3.51328231 C7.87873832,3.51328231 7.86070044,3.44218143 7.86070044,3.1733057 C7.86070044,2.70706374 7.7532931,2.11619094 7.30316616,1.6503576 C6.9083827,1.23723699 6.29673479,0.862527193 5.50552805,0.862527193 C4.42694519,0.862527193 3.22250716,1.5249095 3.22250716,3.20926477 C3.22250716,4.60717339 4.19327273,5.77216535 6.06347229,7.79690585 C6.67430029,8.46010541 8.88598959,10.5216222 9.46156175,11.0046178 C9.96457246,10.3234387 10.3782137,9.12289635 10.3782137,8.02982251 C10.3782137,7.76053816 10.3064722,7.42097018 10.036724,7.15086857 C9.8030515,6.91876915 9.42507605,6.86483056 9.15532784,6.86483056 C9.04751055,6.86483056 8.93928331,6.82928012 8.93928331,6.73938246 C8.93928331,6.6494848 9.08399625,6.61393436 9.22788929,6.61393436 C9.65833855,6.61393436 10.3782137,6.63191389 11.385055,6.73938246 C11.6543933,6.77493289 11.7080969,6.91876915 11.7080969,7.09774722 C11.7080969,8.55000307 10.7197034,10.3598064 9.92849671,11.3270235 C11.1148969,12.3314256 11.9061036,12.8152385 12.4099342,13.1012765 C12.9850964,13.4420703 13.9021583,13.8004351 14.5490621,13.8004351 C14.710583,13.8004351 14.8011824,13.818006 14.8011824,13.9258832 C14.8011824,13.9978013 14.6568794,14.0513313 14.4953584,14.0513313 L12.7329761,14.0513313 C11.4030929,14.0513313 10.9710038,13.9258832 8.99421683,12.366976 C8.57975569,12.7784621 7.16009303,14.3018189 4.49909668,14.3018189 C1.3523076,14.3018189 0.129421745,11.9007341 0.129421745,10.3422355" id="Fill-13" fill="#340604" mask="url(#mask-2)"></path>
                        </g>
                        <path d="M97.7360467,9.01081031 C97.7360467,10.7315333 97.7360467,12.1474214 97.826236,12.8997014 C97.8799397,13.4202906 97.9881669,13.8137971 98.5276634,13.8853067 C98.7793737,13.9204485 99.1745671,13.9568162 99.336498,13.9568162 C99.4443153,13.9568162 99.4799811,14.0107548 99.4799811,14.0646933 C99.4799811,14.154591 99.3902017,14.2077124 99.192605,14.2077124 C98.2038015,14.2077124 97.0706951,14.154591 96.9813256,14.154591 C96.8911363,14.154591 95.7588497,14.2077124 95.2193533,14.2077124 C95.0213467,14.2077124 94.9315672,14.1721619 94.9315672,14.0646933 C94.9315672,14.0107548 94.967643,13.9568162 95.0758702,13.9568162 C95.2369812,13.9568162 95.4530258,13.9204485 95.6141368,13.8853067 C95.9736644,13.8137971 96.0642637,13.4202906 96.1364152,12.8997014 C96.2257847,12.1474214 96.2257847,10.7315333 96.2257847,9.01081031 L96.2257847,1.430803 L93.5651983,1.46594481 C92.4497198,1.48392434 92.0192705,1.60937244 91.7314844,2.03965534 C91.5338877,2.34449013 91.4793642,2.46952961 91.4260704,2.5949777 C91.3711369,2.73881396 91.3178432,2.7743644 91.2452817,2.7743644 C91.192398,2.7743644 91.1563222,2.7204258 91.1563222,2.61377449 C91.1563222,2.43479642 91.5154399,0.893460161 91.5519256,0.749215278 C91.5871814,0.641746711 91.6597429,0.408830044 91.7314844,0.408830044 C91.8569296,0.408830044 92.0368984,0.588625365 92.5222812,0.623767178 C93.0437398,0.678523026 93.7271292,0.714073465 93.9427638,0.714073465 L100.684419,0.714073465 C101.259991,0.714073465 101.673633,0.678523026 101.961419,0.623767178 C102.230757,0.588625365 102.393508,0.533869518 102.464429,0.533869518 C102.554619,0.533869518 102.554619,0.641746711 102.554619,0.749215278 C102.554619,1.28778399 102.500505,2.5234682 102.500505,2.7204258 C102.500505,2.88183297 102.446801,2.95415972 102.37424,2.95415972 C102.28528,2.95415972 102.248795,2.89940387 102.230757,2.65014218 L102.212719,2.45114145 C102.159835,1.91461586 101.727336,1.50272113 100.00144,1.46594481 L97.7360467,1.430803 L97.7360467,9.01081031 Z" id="Fill-16" fill="#340604"></path>
                        <path d="M114.851324,9.78188706 C114.851324,11.2508966 114.868952,12.451439 114.941514,13.0790881 C114.994807,13.5265333 115.030883,13.8142058 115.516676,13.884898 C115.731491,13.9208571 116.091838,13.9572248 116.217283,13.9572248 C116.32551,13.9572248 116.361996,14.0291429 116.361996,14.0826729 C116.361996,14.154591 116.271807,14.208121 116.091838,14.208121 C115.22848,14.208121 114.222458,14.154591 114.132269,14.154591 C114.060118,14.154591 113.035648,14.208121 112.568303,14.208121 C112.388335,14.208121 112.316183,14.1725705 112.316183,14.0826729 C112.316183,14.0291429 112.352259,13.9572248 112.442448,13.9572248 C112.585931,13.9572248 112.7659,13.9208571 112.910203,13.884898 C113.232835,13.8142058 113.287359,13.5097796 113.340652,13.0602913 C113.413214,12.4346853 113.413214,11.2868556 113.413214,9.8174375 L113.413214,8.29408077 C113.413214,8.22216265 113.377138,8.20418311 113.323024,8.20418311 L106.725262,8.20418311 C106.670739,8.20418311 106.635073,8.22216265 106.635073,8.29408077 L106.635073,9.8174375 C106.635073,11.2868556 106.635073,12.451439 106.706404,13.0790881 C106.760518,13.5265333 106.814632,13.8142058 107.281976,13.884898 C107.515649,13.9208571 107.857549,13.9572248 108.001032,13.9572248 C108.091221,13.9572248 108.126887,14.0291429 108.126887,14.0826729 C108.126887,14.154591 108.055555,14.208121 107.875177,14.208121 C106.99501,14.208121 105.987349,14.154591 105.915198,14.154591 C105.826238,14.154591 104.818987,14.208121 104.333604,14.208121 C104.171673,14.208121 104.082304,14.1725705 104.082304,14.0826729 C104.082304,14.0291429 104.117969,13.9572248 104.207749,13.9572248 C104.351642,13.9572248 104.549649,13.9208571 104.693132,13.884898 C104.998546,13.8142058 105.035031,13.5265333 105.106363,13.0790881 C105.196962,12.451439 105.196962,11.2508966 105.196962,9.78188706 L105.196962,7.093947 C105.196962,4.72841265 105.196962,4.29772113 105.160886,3.81390826 C105.124811,3.29454496 105.035031,3.04405738 104.513573,2.97173063 C104.388128,2.9537511 104.117969,2.93536294 103.974076,2.93536294 C103.919963,2.93536294 103.848221,2.86385344 103.848221,2.80991484 C103.848221,2.72001718 103.919963,2.68446674 104.099932,2.68446674 C104.818987,2.68446674 105.826238,2.72001718 105.915198,2.72001718 C105.987349,2.72001718 106.99501,2.68446674 107.479983,2.68446674 C107.659542,2.68446674 107.731693,2.72001718 107.731693,2.80991484 C107.731693,2.86385344 107.659542,2.93536294 107.605428,2.93536294 C107.498021,2.93536294 107.390204,2.93536294 107.210645,2.97173063 C106.778966,3.06081104 106.688776,3.27574817 106.653111,3.81390826 C106.635073,4.29772113 106.635073,4.76355446 106.635073,7.12908882 L106.635073,7.45231177 C106.635073,7.5418008 106.670739,7.5418008 106.725262,7.5418008 L113.323024,7.5418008 C113.377138,7.5418008 113.413214,7.5418008 113.413214,7.45231177 L113.413214,7.12908882 C113.413214,4.76355446 113.394766,4.29772113 113.377138,3.81390826 C113.340652,3.29454496 113.268911,3.04405738 112.748272,2.97173063 C112.622007,2.9537511 112.352259,2.93536294 112.208366,2.93536294 C112.136214,2.93536294 112.082511,2.86385344 112.082511,2.80991484 C112.082511,2.72001718 112.154252,2.68446674 112.334221,2.68446674 C113.035648,2.68446674 114.060118,2.72001718 114.132269,2.72001718 C114.222458,2.72001718 115.22848,2.68446674 115.696235,2.68446674 C115.876203,2.68446674 115.965573,2.72001718 115.965573,2.80991484 C115.965573,2.86385344 115.894241,2.93536294 115.82168,2.93536294 C115.713863,2.93536294 115.624493,2.93536294 115.426896,2.97173063 C115.013255,3.06081104 114.923476,3.27574817 114.88658,3.81390826 C114.851324,4.29772113 114.851324,4.72841265 114.851324,7.093947 L114.851324,9.78188706 Z" id="Fill-18" fill="#340604"></path>
                        <path d="M124.540532,13.7784102 C125.961015,13.7784102 128.819608,13.0253129 128.819608,8.61705855 C128.819608,4.96149276 126.590291,3.04422083 124.091225,3.04422083 C121.447857,3.04422083 119.542401,4.69139115 119.542401,8.00698034 C119.542401,11.5563034 121.681939,13.7784102 124.540532,13.7784102 M124.181005,2.46928443 C127.741025,2.46928443 130.437687,4.63826981 130.437687,8.18636703 C130.437687,11.5918539 127.902546,14.405242 124.091225,14.405242 C119.757626,14.405242 117.906284,11.1611624 117.906284,8.4192837 C117.906284,5.96426031 119.81215,2.46928443 124.181005,2.46928443" id="Fill-20" fill="#340604"></path>
                        <path d="M145.358534,12.2539501 C145.412238,12.7917016 145.520875,13.6163083 146.168189,13.8316541 C146.617086,13.9746731 147.030317,13.9746731 147.192248,13.9746731 C147.26481,13.9746731 147.318103,14.0106322 147.318103,14.0821417 C147.318103,14.1720393 147.17462,14.2255693 146.995061,14.2255693 C146.635534,14.2255693 144.873152,14.2075898 144.297989,14.1544684 C143.920834,14.118918 143.847862,14.0645708 143.847862,13.992244 C143.847862,13.9391227 143.884758,13.8851841 143.9565,13.8672045 C144.045459,13.849225 144.064727,13.6163083 144.028241,13.3302703 L143.27311,5.58762997 L143.237444,5.58762997 L139.425714,13.3654121 C139.102262,14.0294289 139.011662,14.1720393 138.868589,14.1720393 C138.725106,14.1720393 138.634507,14.0294289 138.329503,13.4732893 C137.915452,12.7201921 136.872945,10.7673697 136.477341,9.94276301 C136.009586,8.97554591 134.733817,6.4122367 134.464068,5.78540482 L134.391917,5.78540482 L133.780679,12.6662535 C133.762231,12.8995788 133.762231,13.1860254 133.762231,13.4377389 C133.762231,13.6698383 133.906534,13.8136746 134.140207,13.8672045 C134.409955,13.9391227 134.643217,13.9571022 134.751035,13.9571022 C134.805148,13.9571022 134.87689,14.0106322 134.87689,14.0645708 C134.87689,14.1720393 134.768663,14.2075898 134.589924,14.2075898 C133.995904,14.2075898 133.240773,14.1544684 133.115327,14.1544684 C132.971844,14.1544684 132.216713,14.2075898 131.785034,14.2075898 C131.622693,14.2075898 131.515286,14.1720393 131.515286,14.0645708 C131.515286,14.0106322 131.587028,13.9571022 131.676807,13.9571022 C131.802662,13.9571022 131.91007,13.9391227 132.144152,13.9039808 C132.66602,13.8136746 132.683648,13.2579436 132.7558,12.6846417 L133.906534,2.73869137 C133.924162,2.57769284 133.995904,2.46940702 134.085683,2.46940702 C134.19391,2.46940702 134.319765,2.52375424 134.409955,2.70314094 L139.192451,12.1640525 L143.794569,2.72030322 C143.86754,2.57769284 143.938052,2.46940702 144.045459,2.46940702 C144.154096,2.46940702 144.243876,2.59485512 144.279951,2.88211901 L145.358534,12.2539501 Z" id="Fill-22" fill="#340604"></path>
                        <path d="M153.573884,9.3326848 C153.646445,9.3326848 153.646445,9.29836023 153.628408,9.22603348 L152.063622,5.05069576 C151.975072,4.81696184 151.884883,4.81696184 151.794284,5.05069576 L150.320097,9.22603348 C150.30206,9.29836023 150.320097,9.3326848 150.374211,9.3326848 L153.573884,9.3326848 Z M151.811502,2.98958757 C152.010328,2.4882038 152.08248,2.39830614 152.190297,2.39830614 C152.351818,2.39830614 152.405522,2.6136519 152.567863,2.95403713 C152.855649,3.59843991 155.39038,9.88882442 156.360326,12.2008288 C156.935898,13.5627784 157.367577,13.759736 157.709476,13.8672045 C157.942739,13.9391227 158.176001,13.9566936 158.338752,13.9566936 C158.428532,13.9566936 158.536759,13.9926526 158.536759,14.0821417 C158.536759,14.1720393 158.35679,14.2079984 158.176001,14.2079984 C157.942739,14.2079984 156.774787,14.2079984 155.676936,14.1720393 C155.372342,14.1544684 155.120632,14.1544684 155.120632,14.0645708 C155.120632,13.9926526 155.157117,13.9926526 155.228039,13.9566936 C155.317818,13.9203259 155.479749,13.7952864 155.372342,13.5452075 L153.951859,10.0506402 C153.915374,9.97831345 153.898156,9.96033392 153.807556,9.96033392 L150.158577,9.96033392 C150.086015,9.96033392 150.032721,9.99711023 149.995826,10.085782 L149.097622,12.5232345 C148.954138,12.8999874 148.863949,13.2759231 148.863949,13.5452075 C148.863949,13.8496336 149.134107,13.9566936 149.403036,13.9566936 L149.546929,13.9566936 C149.673604,13.9566936 149.709269,14.0102235 149.709269,14.0821417 C149.709269,14.1720393 149.61867,14.2079984 149.476007,14.2079984 C149.097622,14.2079984 148.233853,14.1544684 148.055524,14.1544684 C147.892774,14.1544684 147.101567,14.2079984 146.455073,14.2079984 C146.256656,14.2079984 146.149249,14.1720393 146.149249,14.0821417 C146.149249,14.0102235 146.220581,13.9566936 146.293962,13.9566936 C146.400959,13.9566936 146.633812,13.9391227 146.759667,13.9203259 C147.479542,13.8316541 147.784546,13.2947199 148.09037,12.5232345 L151.811502,2.98958757 Z" id="Fill-24" fill="#340604"></path>
                        <g id="Group-28" transform="translate(158.241348, 2.199796)">
                            <mask id="mask-4" fill="white">
                                <use xlink:href="#path-3"></use>
                            </mask>
                            <g id="Clip-27"></g>
                            <path d="M0.330462048,11.7927751 C0.11359761,11.6853066 0.0963796395,11.6321852 0.0963796395,11.2202905 C0.0963796395,10.4667846 0.168121183,9.85793231 0.186159057,9.60703611 C0.186159057,9.4448117 0.221824853,9.35654854 0.311194319,9.35654854 C0.401383688,9.35654854 0.455087358,9.40966988 0.455087358,9.53470936 C0.455087358,9.66015746 0.455087358,9.87550322 0.510020883,10.090849 C0.761321262,11.2014937 1.94813137,11.5950003 3.00867636,11.5950003 C4.57305197,11.5950003 5.38229658,10.7176808 5.38229658,9.57066842 C5.38229658,8.47841184 4.7890965,7.95823129 3.38583191,6.91868743 L2.66718661,6.38175322 C0.95891797,5.10765819 0.401383688,4.1772174 0.401383688,3.12010263 C0.401383688,1.32787018 1.8214563,0.251958626 3.90811034,0.251958626 C4.53738617,0.251958626 5.16625204,0.341856287 5.54299764,0.430936696 C5.84964149,0.503672076 5.9750867,0.503672076 6.10094187,0.503672076 C6.22679704,0.503672076 6.26287278,0.520017105 6.26287278,0.610323392 C6.26287278,0.682650146 6.19113124,1.18485117 6.19113124,2.22316915 C6.19113124,2.45608582 6.17309337,2.56396301 6.06527607,2.56396301 C5.95786873,2.56396301 5.93901096,2.49204488 5.92138304,2.36659678 C5.90293521,2.18761871 5.77749,1.77531535 5.68730063,1.61390819 C5.58030324,1.43574737 5.0580248,0.860810965 3.63713228,0.860810965 C2.48762778,0.860810965 1.53367022,1.43574737 1.53367022,2.51084167 C1.53367022,3.47805877 2.01946296,4.03297251 3.58342861,5.09131316 L4.03396551,5.39573933 C5.95786873,6.70375029 6.6224004,7.76045643 6.6224004,9.06887602 C6.6224004,9.96458363 6.28050071,10.9330266 5.14821417,11.667327 C4.4828626,12.0980186 3.49323925,12.2050785 2.63152082,12.2050785 C1.8944277,12.2050785 0.976955844,12.0980186 0.330462048,11.7927751" id="Fill-26" fill="#340604" mask="url(#mask-4)"></path>
                        </g>
                    </g>
                </g>
            </g>
        </g>
    </g>
</svg>