<?xml version="1.0" encoding="UTF-8" standalone="no"?>
<svg width="27px" height="27px" viewBox="0 0 27 27" version="1.1" xmlns="http://www.w3.org/2000/svg" xmlns:xlink="http://www.w3.org/1999/xlink">
    <!-- Generator: Sketch 3.8.3 (29802) - http://www.bohemiancoding.com/sketch -->
    <title>Imported Layers Copy</title>
    <desc>Created with Sketch.</desc>
    <defs></defs>
    <g id="Boostrap-3-Grid" stroke="none" stroke-width="1" fill="none" fill-rule="evenodd">
        <g id="MVDSoundCity-Site-v1-Copy-2" transform="translate(-1038.000000, -281.000000)" fill="#DBDCE2">
            <g id="Group-16" transform="translate(345.000000, 250.000000)">
                <g id="Group-15">
                    <path d="M722.205844,42.2058441 L708.705844,42.2058441 L708.705844,28.7058441 C708.705844,27.4638441 707.697844,26.4558441 706.455844,26.4558441 C705.213844,26.4558441 704.205844,27.4638441 704.205844,28.7058441 L704.205844,42.2058441 L690.705844,42.2058441 C689.463844,42.2058441 688.455844,43.2138441 688.455844,44.4558441 C688.455844,45.6978441 689.463844,46.7058441 690.705844,46.7058441 L704.205844,46.7058441 L704.205844,60.2058441 C704.205844,61.4478441 705.213844,62.4558441 706.455844,62.4558441 C707.697844,62.4558441 708.705844,61.4478441 708.705844,60.2058441 L708.705844,46.7058441 L722.205844,46.7058441 C723.447844,46.7058441 724.455844,45.6978441 724.455844,44.4558441 C724.455844,43.2138441 723.447844,42.2058441 722.205844,42.2058441" id="Imported-Layers-Copy" transform="translate(706.455844, 44.455844) rotate(-315.000000) translate(-706.455844, -44.455844) "></path>
                </g>
            </g>
        </g>
    </g>
</svg>