<?xml version="1.0" encoding="UTF-8" standalone="no"?>
<svg width="96px" height="52px" viewBox="0 0 96 52" version="1.1" xmlns="http://www.w3.org/2000/svg" xmlns:xlink="http://www.w3.org/1999/xlink">
    <!-- Generator: Sketch 3.8.3 (29802) - http://www.bohemiancoding.com/sketch -->
    <title>Page 1 Copy 15</title>
    <desc>Created with Sketch.</desc>
    <defs>
        <polygon id="path-1" points="2.59194201e-20 0.122442033 2.59194201e-20 8.68598505 6.10146675 8.68598505 6.10146675 0.122442033 0 0.122442033"></polygon>
        <polygon id="path-3" points="0 50.8298507 95.2353098 50.8298507 95.2353098 0.203962819 0 0.203962819"></polygon>
    </defs>
    <g id="Boostrap-3-Grid" stroke="none" stroke-width="1" fill="none" fill-rule="evenodd">
        <g id="MVDSoundCity-Site-v1-Copy-3" transform="translate(-836.000000, -5220.000000)">
            <g id="Group-27" transform="translate(110.000000, 5174.000000)">
                <g id="Group-25" transform="translate(133.000000, 45.000000)">
                    <g id="Page-1-Copy-15" transform="translate(592.947368, 1.236842)">
                        <g id="Group-21">
                            <g id="Group-3" transform="translate(0.000000, 42.143737)">
                                <mask id="mask-2" fill="white">
                                    <use xlink:href="#path-1"></use>
                                </mask>
                                <g id="Clip-2"></g>
                                <path d="M4.30816459,1.39930075 C3.90398629,1.39930075 3.53136449,1.46718112 3.1902992,1.60294186 C2.84891516,1.7387026 2.55598152,1.93655297 2.31149827,2.19552784 C2.06733377,2.45482442 1.87640096,2.77460209 1.73901859,3.15486085 C1.60163622,3.53576302 1.53310441,3.97039042 1.53310441,4.46002987 C1.53310441,4.9448437 1.59557992,5.37239352 1.72084969,5.73978396 C1.84611947,6.10813952 2.02589594,6.416014 2.2601791,6.66212055 C2.49414351,6.90919223 2.7800646,7.09513941 3.11762361,7.2209272 C3.45486387,7.34639329 3.83736699,7.40944804 4.2657705,7.40944804 C4.5724105,7.40944804 4.88574431,7.38435482 5.20481567,7.33513351 C5.52388703,7.28559049 5.82287698,7.21384963 6.10146675,7.11894579 L6.10146675,8.42089773 C5.81873319,8.50325496 5.5140057,8.56791825 5.18664677,8.61520931 C4.8596066,8.66217867 4.52013508,8.68598505 4.1688697,8.68598505 C3.48195784,8.68598505 2.8782404,8.5862556 2.35707989,8.3871184 C1.83591938,8.1879812 1.40050332,7.90584336 1.05146922,7.5419917 C0.701797612,7.17749663 0.439464217,6.74190411 0.263512779,6.23360561 C0.0878800934,5.72595052 -9.56257791e-05,5.16553533 -9.56257791e-05,4.55236004 C-9.56257791e-05,3.92342106 0.0939363929,3.33887778 0.281681678,2.80001702 C0.469745715,2.26147797 0.740366677,1.79467978 1.09354456,1.39930075 C1.4470412,1.00456514 1.88946982,0.694438708 2.42083041,0.467956335 C2.95187226,0.24179567 3.55272092,0.126302528 4.2233764,0.122442033 C4.56667296,0.122442033 4.89180061,0.145926711 5.19875937,0.193539482 C5.50571813,0.240508838 5.78239539,0.307102377 6.02879116,0.393963514 L6.02879116,1.67693468 C5.70589477,1.57463157 5.40467356,1.50224729 5.12608378,1.46139038 C4.847494,1.41989006 4.57464177,1.39930075 4.30816459,1.39930075" id="Fill-1" fill="#3A383A" mask="url(#mask-2)"></path>
                            </g>
                            <mask id="mask-4" fill="white">
                                <use xlink:href="#path-3"></use>
                            </mask>
                            <g id="Clip-5"></g>
                            <polygon id="Fill-4" fill="#3A383A" mask="url(#mask-4)" points="7.74345705 50.6757527 9.17943754 50.6757527 9.17943754 41.7416021 7.74345705 41.7416021"></polygon>
                            <path d="M13.6570191,50.8298507 C13.0673268,50.8298507 12.5786791,50.728191 12.1907572,50.5245499 C11.803154,50.3209088 11.5102203,50.0461703 11.312275,49.700656 C11.2070866,49.5159956 11.129311,49.3123545 11.0789481,49.0900543 C11.0282664,48.8680759 11.0030849,48.6213259 11.0030849,48.3498044 L11.0030849,44.6974544 L12.4390654,44.6974544 L12.4390654,48.1953846 C12.4390654,48.3970955 12.4534093,48.5711395 12.4814595,48.7168732 C12.5098285,48.8626068 12.5522226,48.9893598 12.6089606,49.0961668 C12.7058614,49.2772883 12.842925,49.4117623 13.0207889,49.5002319 C13.1986529,49.5890233 13.4106234,49.6327756 13.6570191,49.6327756 C13.9155275,49.6327756 14.1367418,49.583876 14.3206621,49.4851117 C14.5042636,49.3860256 14.6426022,49.2364314 14.735678,49.0347206 C14.828435,48.8410524 14.8749728,48.5714612 14.8749728,48.2259469 L14.8749728,44.6974544 L16.3109533,44.6974544 L16.3109533,48.3498044 C16.3109533,48.83494 16.2280777,49.2444741 16.0626451,49.5774418 C15.9695693,49.7666061 15.8493996,49.9383981 15.7021359,50.0928179 C15.5545534,50.246916 15.3808332,50.3788162 15.1809753,50.4875535 C14.9811175,50.5966125 14.7548031,50.6809 14.5023511,50.7407377 C14.249899,50.8002536 13.9681217,50.8298507 13.6570191,50.8298507" id="Fill-6" fill="#3A383A" mask="url(#mask-4)"></path>
                            <path d="M20.6733377,48.9416826 C20.6733377,48.8149297 20.6379562,48.7097312 20.5671931,48.6276957 C20.4967488,48.5453385 20.4027168,48.4761713 20.2857346,48.4208375 C20.1684336,48.3648604 20.0342388,48.3166042 19.8828313,48.2757473 C19.731105,48.2348904 19.572685,48.19339 19.4069336,48.1525331 C19.1968757,48.0946257 18.9947865,48.0280322 18.8009849,47.9514657 C18.6071834,47.8755426 18.436332,47.7761349 18.2890683,47.6522773 C18.1414858,47.5290632 18.0245036,47.374 17.9374841,47.186766 C17.8507834,46.999532 17.8074331,46.7701542 17.8074331,46.4986327 C17.8074331,46.165665 17.8657648,45.8767713 17.9830658,45.6316299 C18.1003667,45.3871319 18.2587868,45.1841342 18.4586446,45.0239236 C18.6588213,44.8637131 18.8908732,44.7443595 19.1554378,44.6665061 C19.4200025,44.5880094 19.6998673,44.5490828 19.9947135,44.5490828 C20.3542664,44.5490828 20.6915066,44.5793233 21.006753,44.6381959 C21.3216805,44.6980335 21.6066454,44.7752434 21.86101,44.8701473 L21.86101,46.0607883 C21.7277714,46.0154274 21.5872015,45.9736054 21.4399378,45.9337136 C21.2923553,45.894787 21.1428603,45.8610076 20.9914528,45.8320539 C20.8400454,45.8037436 20.6895941,45.7799372 20.5400992,45.7609565 C20.3906042,45.7429408 20.249078,45.7332896 20.1158394,45.7332896 C19.9462631,45.7332896 19.8028244,45.7503401 19.6858422,45.7831543 C19.5685412,45.8156468 19.4735529,45.8603642 19.4008773,45.915698 C19.3282018,45.9710317 19.2756076,46.0350516 19.2434136,46.1064708 C19.2112195,46.1788551 19.1949632,46.2541347 19.1949632,46.3323097 C19.1949632,46.4680705 19.2303447,46.5790597 19.3011078,46.6652774 C19.3715521,46.7518169 19.4697279,46.8216275 19.5949977,46.875031 C19.7199487,46.9284345 19.8512748,46.9731519 19.9886572,47.0075747 C20.1260395,47.0429625 20.2592781,47.0767419 20.3886917,47.1095561 C20.5904621,47.1590991 20.7925512,47.2189368 20.9946404,47.2884257 C21.1964108,47.3582363 21.3780998,47.4563572 21.5397073,47.5811799 C21.7013149,47.7069677 21.833916,47.8697519 21.9365543,48.0688891 C22.0398302,48.2686697 22.0911493,48.5224972 22.0911493,48.8310151 C22.0911493,49.1684867 22.0283551,49.4625278 21.9034041,49.7134599 C21.7781343,49.9640704 21.6034579,50.1725371 21.3793748,50.3398252 C21.1549729,50.5061482 20.8862645,50.6293624 20.5735682,50.7097894 C20.2602344,50.7895729 19.9159816,50.8297864 19.5401722,50.8297864 C19.1685067,50.8297864 18.834454,50.8001893 18.5373765,50.7406733 C18.2406179,50.6808356 17.9951784,50.6061994 17.8013768,50.5151561 L17.8013768,49.3370617 C18.1166231,49.4564153 18.4073255,49.5374857 18.6738027,49.5805946 C18.9402798,49.6240251 19.1889069,49.6455796 19.4190462,49.6455796 C19.5969102,49.6455796 19.7623428,49.6320678 19.9159816,49.6053661 C20.0693016,49.578986 20.2019026,49.5368423 20.3128286,49.4789349 C20.4237545,49.4210274 20.5117302,49.3483215 20.576437,49.2595301 C20.640825,49.1710604 20.6733377,49.0655402 20.6733377,48.9416826" id="Fill-7" fill="#3A383A" mask="url(#mask-4)"></path>
                            <path d="M27.1686871,50.669608 C27.0070795,50.7185076 26.8142342,50.7580777 26.5901511,50.7870314 C26.3657493,50.8153417 26.1569663,50.8298186 25.962846,50.8298186 C25.4700545,50.8298186 25.0671512,50.7487482 24.7541361,50.585964 C24.4408023,50.4238232 24.2199067,50.1902632 24.0904932,49.8859275 C23.9977362,49.6681313 23.9511983,49.37216 23.9511983,48.997692 L23.9511983,45.8999665 L22.8543706,45.8999665 L22.8543706,44.6974223 L23.9511983,44.6974223 L23.9511983,43.0251845 L25.3871788,43.0251845 L25.3871788,44.6974223 L27.0838989,44.6974223 L27.0838989,45.8999665 L25.3871788,45.8999665 L25.3871788,48.8059541 C25.3871788,49.0366187 25.4216041,49.2074456 25.4901359,49.3181131 C25.6115806,49.5079207 25.8519201,49.6021812 26.211473,49.6021812 C26.3769056,49.6021812 26.5417007,49.5889911 26.7052208,49.5619677 C26.8687409,49.5355876 27.0233359,49.5014866 27.1686871,49.4599863 L27.1686871,50.669608 Z" id="Fill-8" fill="#3A383A" mask="url(#mask-4)"></path>
                            <path d="M30.985622,45.6906955 C30.8039331,45.6906955 30.6423255,45.7244748 30.5011181,45.7923552 C30.3595919,45.8602355 30.2371909,45.9525657 30.1342338,46.0696674 C30.0312767,46.1870908 29.9493573,46.3241384 29.8891131,46.479845 C29.8282313,46.636195 29.7880685,46.8028397 29.7676683,46.9801008 L32.0763935,46.9801008 C32.0763935,46.8028397 32.0531245,46.636195 32.0065866,46.479845 C31.9600488,46.3241384 31.891517,46.1870908 31.8006725,46.0696674 C31.7095092,45.9525657 31.5966708,45.8602355 31.4612009,45.7923552 C31.3257311,45.7244748 31.167311,45.6906955 30.985622,45.6906955 M31.5612893,49.651885 C31.839879,49.651885 32.1309002,49.6229313 32.4340339,49.5650239 C32.7368489,49.5077599 33.0438076,49.4254027 33.3549102,49.3179522 L33.3549102,50.4841434 C33.1690774,50.5665006 32.8841126,50.6449974 32.5006532,50.7186685 C32.1165563,50.7926613 31.718753,50.8299794 31.3066059,50.8299794 C30.8906338,50.8299794 30.4956993,50.7752891 30.1221212,50.6665518 C29.7485432,50.5578145 29.4224593,50.3818403 29.1435507,50.1386291 C28.864961,49.8960613 28.6437467,49.581431 28.4802266,49.1950598 C28.3163877,48.8083669 28.2347871,48.3396385 28.2347871,47.7882311 C28.2347871,47.2451881 28.3112877,46.7700255 28.4649264,46.363065 C28.6185652,45.9557828 28.8244794,45.6183112 29.0829877,45.3512936 C29.3414961,45.0836326 29.6376173,44.8832086 29.9707138,44.7493781 C30.3038102,44.6155476 30.6483818,44.5489541 31.0037909,44.5489541 C31.3754565,44.5489541 31.7177968,44.6068615 32.0308118,44.7217112 C32.3438269,44.8368827 32.6144479,45.0176825 32.8426747,45.2647542 C33.0709016,45.5115042 33.2487655,45.8296733 33.3759478,46.2179747 C33.5031301,46.6069196 33.5668806,47.0659968 33.5668806,47.5971366 C33.5627369,47.8023862 33.5566806,47.9770736 33.5487117,48.1211988 L29.701049,48.1211988 C29.7211305,48.3969025 29.7820122,48.6327144 29.882738,48.8279911 C29.9837826,49.0232678 30.1160649,49.1818698 30.2799038,49.3031537 C30.4434239,49.4241158 30.6343567,49.5129072 30.8523835,49.568241 C31.0704102,49.6242182 31.3066059,49.651885 31.5612893,49.651885" id="Fill-9" fill="#3A383A" mask="url(#mask-4)"></path>
                            <path d="M38.6381709,45.8571793 L38.5170449,45.8571793 C38.0765288,45.8571793 37.6898819,45.9237729 37.3567854,46.0576033 C37.0233702,46.1914338 36.7661368,46.3957184 36.5841291,46.6714221 L36.5841291,50.6760422 L35.1481486,50.6760422 L35.1481486,44.6974223 L36.335502,44.6974223 L36.4690594,45.5296807 L36.4932846,45.5296807 C36.662861,45.2256667 36.8961879,44.986316 37.1929465,44.8109852 C37.490024,44.6362978 37.8463894,44.5491149 38.2623615,44.5491149 C38.4080315,44.5491149 38.5329825,44.5571576 38.6381709,44.5735647 L38.6381709,45.8571793 Z" id="Fill-10" fill="#3A383A" mask="url(#mask-4)"></path>
                            <path d="M45.066614,49.6636596 C45.2078214,49.6636596 45.342335,49.6453222 45.4695173,49.6083258 C45.5970184,49.5713294 45.7168693,49.5217864 45.8300265,49.4600184 C45.9431837,49.3985722 46.043272,49.3306919 46.1299727,49.2563773 C46.2166734,49.1823845 46.290624,49.1106436 46.351187,49.040833 L46.351187,46.2027258 C46.1816106,46.0627828 45.9916341,45.9463246 45.7815761,45.8539944 C45.5715182,45.7610208 45.3493476,45.7153383 45.1150644,45.7153383 C44.9655695,45.7153383 44.8090619,45.7459005 44.6455418,45.8076685 C44.481703,45.8691147 44.3325268,45.9739915 44.1973757,46.1222988 C44.0619058,46.2706062 43.9487486,46.4761775 43.8579041,46.7393346 C43.7670597,47.0028134 43.721478,47.3377113 43.721478,47.7446718 C43.721478,48.3453005 43.8355915,48.8146724 44.0638183,49.1515005 C44.2920452,49.4889722 44.6264167,49.6597991 45.066614,49.6636596 M42.2370471,47.8070832 C42.2370471,47.2843078 42.3074915,46.8184747 42.4490176,46.409584 C42.5905438,45.9997281 42.7830704,45.6567875 43.0278724,45.3791535 C43.2720369,45.1011979 43.5519016,44.8933746 43.8668292,44.7556836 C44.1820755,44.6179926 44.5094345,44.5491471 44.8485872,44.5491471 C45.006051,44.5491471 45.155546,44.5633022 45.2970722,44.592256 C45.4382796,44.6212097 45.5715182,44.6601363 45.6967879,44.7093576 C45.8220577,44.7589007 45.9390399,44.8142344 46.0483721,44.8756806 C46.1573854,44.938092 46.2581113,45.0014684 46.351187,45.0674186 L46.3632996,45.0674186 C46.3591558,44.9850613 46.3562871,44.8689248 46.3543746,44.7186872 C46.3521433,44.5684496 46.351187,44.405022 46.351187,44.2280826 L46.351187,41.7416021 L47.7871675,41.7416021 L47.7871675,48.8989598 C47.7871675,49.2936954 47.7913113,49.6327756 47.7992801,49.9168437 C47.8075677,50.2009118 47.8155365,50.4534525 47.8235053,50.6757527 L46.5268197,50.6757527 L46.4662567,50.0400578 L46.4420315,50.0400578 C46.3572433,50.1430043 46.2552425,50.2436989 46.136029,50.3421415 C46.0171343,50.4415493 45.8854895,50.5271236 45.7423696,50.5985428 C45.5986121,50.670927 45.4411483,50.7275476 45.2696594,50.7684045 C45.0978518,50.8092614 44.9110628,50.8298507 44.7089736,50.8298507 C44.3899022,50.8298507 44.0842185,50.7719433 43.7912849,50.6570936 C43.4983512,50.5419222 43.2356991,50.3643394 43.0033284,50.1237019 C42.7709578,49.8830643 42.5854437,49.5681123 42.4461489,49.1798108 C42.3065352,48.790866 42.2370471,48.3333973 42.2370471,47.8070832" id="Fill-11" fill="#3A383A" mask="url(#mask-4)"></path>
                            <path d="M52.1557357,45.6906955 C51.9740467,45.6906955 51.8121204,45.7244748 51.670913,45.7923552 C51.5293869,45.8602355 51.4073046,45.9525657 51.3046663,46.0696674 C51.2013904,46.1870908 51.1197898,46.3241384 51.058908,46.479845 C50.998345,46.636195 50.9578634,46.8028397 50.9381008,46.9801008 L53.2465071,46.9801008 C53.2465071,46.8028397 53.2229195,46.636195 53.1767003,46.479845 C53.1301624,46.3241384 53.0616306,46.1870908 52.9707861,46.0696674 C52.8796229,45.9525657 52.7664657,45.8602355 52.6313146,45.7923552 C52.4961635,45.7244748 52.3374247,45.6906955 52.1557357,45.6906955 M52.7317217,49.651885 C53.0099927,49.651885 53.3006951,49.6229313 53.6038288,49.5650239 C53.9069625,49.5077599 54.2139213,49.4254027 54.5253426,49.3179522 L54.5253426,50.4841434 C54.3391911,50.5665006 54.054545,50.6449974 53.6704481,50.7186685 C53.2869887,50.7926613 52.8891855,50.8299794 52.4770384,50.8299794 C52.0604287,50.8299794 51.665813,50.7752891 51.2922349,50.6665518 C50.9186569,50.5578145 50.592573,50.3818403 50.3136644,50.1386291 C50.0347559,49.8960613 49.8135416,49.581431 49.6500215,49.1950598 C49.4868202,48.8083669 49.404582,48.3396385 49.404582,47.7882311 C49.404582,47.2451881 49.4810826,46.7700255 49.6350401,46.363065 C49.7886789,45.9557828 49.9949118,45.6183112 50.2531014,45.3512936 C50.5116098,45.0836326 50.8074122,44.8832086 51.1408274,44.7493781 C51.4739239,44.6155476 51.8181767,44.5489541 52.1739046,44.5489541 C52.5455702,44.5489541 52.8879105,44.6068615 53.2009255,44.7217112 C53.5142593,44.8368827 53.7842428,45.0176825 54.0127884,45.2647542 C54.241334,45.5115042 54.4188792,45.8296733 54.5463803,46.2179747 C54.6732438,46.6069196 54.7369943,47.0659968 54.7369943,47.5971366 C54.7331693,47.8023862 54.7267942,47.9770736 54.7188254,48.1211988 L50.8714815,48.1211988 C50.8912441,48.3969025 50.9518071,48.6327144 51.0531705,48.8279911 C51.1538963,49.0232678 51.2858599,49.1818698 51.4496987,49.3031537 C51.6135375,49.4241158 51.8044704,49.5129072 52.0224971,49.568241 C52.2405239,49.6242182 52.4770384,49.651885 52.7317217,49.651885" id="Fill-12" fill="#3A383A" mask="url(#mask-4)"></path>
                            <path d="M63.4615082,48.4610188 C63.6396909,47.8108471 63.8593114,47.1140278 64.1219636,46.369274 L65.5216062,42.4203093 L67.6059295,42.4203093 L67.6059295,50.6759778 L66.1218174,50.6759778 L66.1218174,46.4924881 C66.1218174,45.8799562 66.1460426,45.1680166 66.194493,44.3579561 L66.1396675,44.3579561 C66.0714545,44.5924812 65.9904913,44.8556382 65.8977343,45.1471056 C65.8043398,45.4392164 65.7077578,45.727145 65.6063944,46.0112131 L63.9284807,50.6759778 L62.9709479,50.6759778 L61.2923967,46.0112131 C61.1916708,45.727145 61.0944513,45.4392164 61.0016943,45.1471056 C60.9082998,44.8556382 60.8279741,44.5924812 60.7588048,44.3579561 L60.7049356,44.3579561 C60.753386,45.1187953 60.7769737,45.8281613 60.7769737,46.486054 L60.7769737,50.6759778 L59.2928616,50.6759778 L59.2928616,42.4203093 L61.365391,42.4203093 L62.764715,46.3502932 C62.9989981,47.0046471 63.2192562,47.7082223 63.4254891,48.4610188 L63.4615082,48.4610188 Z" id="Fill-13" fill="#3A383A" mask="url(#mask-4)"></path>
                            <path d="M73.0116231,41.5876649 L72.0116962,43.740856 L70.8966996,43.740856 L71.617718,41.5876649 L73.0116231,41.5876649 Z M71.4602542,50.8300116 C70.8705618,50.8300116 70.3819141,50.7280302 69.9939922,50.5243891 C69.6060703,50.320748 69.3128179,50.0463311 69.11551,49.7008168 C69.0103216,49.5161565 68.932546,49.3125154 68.8821831,49.0898935 C68.8318202,48.8682367 68.80632,48.621165 68.80632,48.3499653 L68.80632,44.6972936 L70.2423005,44.6972936 L70.2423005,48.1952238 C70.2423005,48.3969346 70.2560068,48.5709786 70.2846946,48.7167123 C70.3127448,48.862446 70.3551389,48.9895206 70.4118768,49.0963276 C70.5087776,49.2771275 70.6464788,49.4116014 70.824024,49.5003928 C71.0018879,49.5888625 71.2135396,49.6329364 71.4602542,49.6329364 C71.7184438,49.6329364 71.9402956,49.5837151 72.1238971,49.4852725 C72.3074986,49.3858648 72.4458372,49.2362706 72.5392317,49.0345597 C72.6319887,48.8412133 72.6778891,48.571622 72.6778891,48.2261077 L72.6778891,44.6972936 L74.1141884,44.6972936 L74.1141884,48.3499653 C74.1141884,48.8347791 74.0313127,49.244635 73.8658801,49.5776027 C73.7731231,49.7667669 73.6529533,49.9382373 73.5053709,50.0926571 C73.3577884,50.2467551 73.1840683,50.3786554 72.9842104,50.4873927 C72.7843525,50.5967734 72.5577194,50.6810608 72.3055861,50.7405768 C72.0528153,50.8004145 71.7713567,50.8300116 71.4602542,50.8300116 L71.4602542,50.8300116 Z" id="Fill-14" fill="#3A383A" mask="url(#mask-4)"></path>
                            <path d="M78.476509,48.9416826 C78.476509,48.8149297 78.4411275,48.7097312 78.3706832,48.6276957 C78.2996013,48.5453385 78.2062068,48.4761713 78.0885871,48.4208375 C77.9716049,48.3648604 77.8377288,48.3166042 77.6860026,48.2757473 C77.5345951,48.2348904 77.3758563,48.19339 77.2101049,48.1525331 C77.0003657,48.0946257 76.7979578,48.0280322 76.604475,47.9514657 C76.4103546,47.8755426 76.2395032,47.7761349 76.0925583,47.6522773 C75.9452946,47.5290632 75.8273561,47.374 75.7409742,47.186766 C75.6539547,46.999532 75.6109231,46.7701542 75.6109231,46.4986327 C75.6109231,46.165665 75.6692548,45.8767713 75.7865558,45.6316299 C75.903538,45.3871319 76.0622768,45.1841342 76.2621347,45.0239236 C76.4619926,44.8637131 76.6940444,44.7443595 76.9586091,44.6665061 C77.2231738,44.5880094 77.5033573,44.5490828 77.7978847,44.5490828 C78.1577564,44.5490828 78.4953154,44.5793233 78.810243,44.6381959 C79.1251706,44.6980335 79.4098166,44.7752434 79.6645,44.8701473 L79.6645,46.0607883 C79.5312614,46.0154274 79.3903727,45.9736054 79.2434278,45.9337136 C79.0958453,45.894787 78.9466691,45.8610076 78.7946241,45.8320539 C78.6432166,45.8037436 78.4927654,45.7799372 78.3432704,45.7609565 C78.1937755,45.7429408 78.0525681,45.7332896 77.9193295,45.7332896 C77.7494343,45.7332896 77.6063144,45.7503401 77.4890134,45.7831543 C77.3720312,45.8156468 77.2767242,45.8603642 77.2040486,45.915698 C77.1316918,45.9710317 77.0787788,46.0350516 77.0465848,46.1064708 C77.0140721,46.1788551 76.9984532,46.2541347 76.9984532,46.3323097 C76.9984532,46.4680705 77.033516,46.5790597 77.1042791,46.6652774 C77.1747234,46.7518169 77.2732179,46.8216275 77.398169,46.875031 C77.5234387,46.9284345 77.6547648,46.9731519 77.7924659,47.0075747 C77.9292108,47.0429625 78.0624494,47.0767419 78.1918629,47.1095561 C78.3936333,47.1590991 78.5960412,47.2189368 78.7978116,47.2884257 C79.0002196,47.3582363 79.1819085,47.4563572 79.3431974,47.5811799 C79.5051237,47.7069677 79.6370873,47.8697519 79.7403631,48.0688891 C79.8430014,48.2686697 79.8946394,48.5224972 79.8946394,48.8310151 C79.8946394,49.1684867 79.8318451,49.4625278 79.7065753,49.7134599 C79.5816243,49.9640704 79.4066291,50.1725371 79.182546,50.3398252 C78.958463,50.5061482 78.6894358,50.6293624 78.3770582,50.7097894 C78.0637244,50.7895729 77.7194716,50.8297864 77.3433435,50.8297864 C76.971678,50.8297864 76.6373065,50.8001893 76.3411853,50.7406733 C76.0441079,50.6808356 75.7983496,50.6061994 75.604548,50.5151561 L75.604548,49.3370617 C75.9197944,49.4564153 76.2104967,49.5374857 76.4776114,49.5805946 C76.7437699,49.6240251 76.9923969,49.6455796 77.2225363,49.6455796 C77.4000815,49.6455796 77.5658328,49.6320678 77.7194716,49.6053661 C77.8724728,49.578986 78.0050739,49.5368423 78.1159998,49.4789349 C78.2275632,49.4210274 78.3152202,49.3483215 78.379927,49.2595301 C78.4439963,49.1710604 78.476509,49.0655402 78.476509,48.9416826" id="Fill-15" fill="#3A383A" mask="url(#mask-4)"></path>
                            <path d="M81.4212093,50.6760744 L82.8575086,50.6760744 L82.8575086,44.6974544 L81.4212093,44.6974544 L81.4212093,50.6760744 Z M81.3851903,43.3276221 L82.8935276,43.3276221 L82.8935276,41.7416021 L81.3851903,41.7416021 L81.3851903,43.3276221 Z" id="Fill-16" fill="#3A383A" mask="url(#mask-4)"></path>
                            <path d="M88.9461615,50.5464582 C88.7644725,50.6243116 88.5426207,50.6909051 88.2799685,50.7468823 C88.0173164,50.802216 87.7409579,50.8298829 87.449618,50.8298829 C87.025677,50.8298829 86.6294675,50.768115 86.2622645,50.6452226 C85.894424,50.521365 85.5737589,50.334131 85.2986754,50.0835206 C85.0239107,49.8325884 84.8077964,49.514741 84.6503326,49.1303 C84.4928688,48.7455373 84.4138182,48.2964331 84.4138182,47.7817004 C84.4138182,47.2061649 84.5046627,46.7123433 84.6866704,46.3015223 C84.8683594,45.8897362 85.1035988,45.5554816 85.3927074,45.2987587 C85.6814973,45.0417141 86.0063062,44.8525498 86.3680904,44.731266 C86.7298746,44.6099821 87.0859213,44.5488576 87.4375054,44.5488576 C87.7004763,44.5488576 87.9526096,44.5729857 88.1954991,44.619955 C88.4374323,44.6672461 88.6573716,44.7319094 88.855317,44.8142666 L88.855317,46.0049076 C88.6777718,45.9270543 88.4890702,45.8639995 88.2885749,45.8170302 C88.088717,45.7697391 87.8741965,45.7459327 87.6437383,45.7459327 C87.4132802,45.7459327 87.1930221,45.7816423 86.9832829,45.8540266 C86.7735437,45.9257674 86.5873922,46.0399738 86.4261034,46.1966455 C86.2641771,46.3529956 86.1360385,46.559532 86.041369,46.8165767 C85.946062,47.0736213 85.8985678,47.383426 85.8985678,47.744704 C85.8985678,48.0078611 85.9349056,48.2562196 86.0075812,48.4888144 C86.0805756,48.7210875 86.1864014,48.9195813 86.3256963,49.0836523 C86.4653099,49.2483668 86.6425364,49.3809105 86.8592882,49.4819267 C87.0754024,49.5826213 87.3307233,49.6328078 87.6255694,49.6328078 C87.8879028,49.6328078 88.1263298,49.6064277 88.3405315,49.5530242 C88.5544145,49.4996207 88.7561849,49.4336706 88.9461615,49.3551738 L88.9461615,50.5464582 Z" id="Fill-17" fill="#3A383A" mask="url(#mask-4)"></path>
                            <path d="M93.7629277,48.1273756 C93.6258641,48.0945614 93.4684003,48.0652859 93.2905364,48.0382625 C93.1123537,48.011239 92.9332147,47.998049 92.751207,47.998049 C92.3996228,47.998049 92.1219893,48.0688247 91.9183064,48.2110196 C91.713986,48.3528928 91.6119851,48.569724 91.6119851,48.8618347 C91.6119851,48.9975955 91.6349353,49.1156623 91.681792,49.2163569 C91.7283298,49.3173731 91.7908054,49.4003738 91.8695373,49.4663239 C91.9482691,49.532274 92.0403886,49.5814953 92.145577,49.6146313 C92.2501279,49.6474455 92.3616913,49.6635309 92.4786735,49.6635309 C92.6237059,49.6635309 92.7610883,49.6442284 92.8908206,49.6053017 C93.0195967,49.5663751 93.1391289,49.5165103 93.2481423,49.4569944 C93.3571557,49.3978001 93.454694,49.3305632 93.5420322,49.2565704 C93.6284141,49.1822558 93.7023647,49.1108367 93.7629277,49.041026 L93.7629277,48.1273756 Z M93.8779974,50.0399291 L93.8537722,50.0399291 C93.7728091,50.1267903 93.676227,50.2152599 93.5630698,50.3056599 C93.4499127,50.3963815 93.3208179,50.4809907 93.1751479,50.5614177 C93.0301155,50.6418446 92.8681892,50.7068296 92.6909627,50.7557292 C92.51278,50.8052723 92.3212097,50.8297221 92.1149768,50.8297221 C91.8360682,50.8297221 91.5759661,50.7859698 91.3330766,50.6971784 C91.0908246,50.6087087 90.8829979,50.4809907 90.7092778,50.3146677 C90.5355576,50.148023 90.3991315,49.9469555 90.3003182,49.7101785 C90.2011861,49.4740449 90.1520982,49.2092793 90.1520982,48.9171685 C90.1520982,48.5967474 90.2094737,48.3081754 90.3245434,48.0533827 C90.4396131,47.7989118 90.6002644,47.5827241 90.8064973,47.405463 C91.0124115,47.2288454 91.2584885,47.0943714 91.5453659,47.0013979 C91.8322432,46.9090677 92.149402,46.86242 92.4965236,46.86242 C92.751207,46.86242 92.9851714,46.8794706 93.1993731,46.9122848 C93.4135749,46.9447773 93.6016389,46.9837039 93.7629277,47.0290647 L93.7629277,46.7884272 C93.7629277,46.648806 93.7399775,46.5136887 93.6931209,46.3843621 C93.6472205,46.2550355 93.5723137,46.1398641 93.4690378,46.0388478 C93.3663995,45.9381532 93.2318859,45.8577262 93.0661345,45.7982103 C92.9007019,45.739016 92.698294,45.7087755 92.4605046,45.7087755 C92.1698022,45.7087755 91.8784623,45.7422331 91.5877599,45.8075398 C91.2970576,45.8734899 90.9818112,45.9722542 90.6426585,46.1035111 L90.6426585,44.9624131 C90.9371859,44.8305128 91.2502009,44.7298183 91.5813849,44.6603294 C91.9125689,44.5898753 92.2606467,44.5535223 92.6237059,44.5490184 C93.0521094,44.5490184 93.4266437,44.6024219 93.7479464,44.709229 C94.069249,44.8166794 94.3376387,44.9636999 94.5534342,45.1502905 C94.7695485,45.3375245 94.9314748,45.5588596 95.0385757,45.8139739 C95.1456765,46.0690883 95.199227,46.3467223 95.199227,46.6468757 L95.199227,48.8988312 C95.199227,49.2935668 95.203052,49.6329686 95.2110208,49.916715 C95.2189896,50.2007831 95.2272772,50.4533238 95.235246,50.6759457 L93.9385604,50.6759457 L93.8779974,50.0399291 Z" id="Fill-18" fill="#3A383A" mask="url(#mask-4)"></path>
                            <path d="M78.5325139,17.2492064 C74.7642205,17.0889958 73.6010923,17.2080277 71.4115806,15.2095782 C68.3840684,12.4493243 65.6746712,2.41589777 64.5682809,0.789985959 C64.5029367,0.693795292 64.2154218,0.223458319 63.6027793,0.204477551 C62.6720217,0.175523839 62.0494979,1.64798097 61.9357032,1.93687468 C61.4008363,3.28418743 61.0103644,4.71064033 60.6339175,6.08980217 C60.5602857,6.35874999 59.6521595,9.82483108 59.2119622,11.2702647 C55.7834591,22.5168518 52.310012,32.6319921 49.0988982,32.4113004 C46.3824885,32.2247099 41.3359973,18.6701902 40.2602072,14.1135193 C40.0342116,13.1554731 38.827733,6.22556291 36.0176101,6.36228877 C33.8083357,6.46877409 27.3440329,17.2270085 23.9263675,17.3151565 C23.9199924,17.3151565 9.41356133,17.3154782 9.41356133,17.3154782 L8.68935541,18.047042 L23.3966006,18.047042 C24.295483,18.047042 25.058258,17.9045254 26.0135595,17.3305985 C28.7768259,15.6709073 33.1453303,9.82064887 34.0588753,8.85359488 C34.5870484,8.29446652 35.2538788,7.60665499 35.7804581,7.59571692 C37.9011192,7.55067782 39.2845055,15.1973533 39.7435093,17.3547266 C40.2672198,19.8145053 44.7581253,34.5577357 48.3214606,35.3533193 C48.4696806,35.386777 48.6194943,35.4028624 48.7683518,35.4028624 C51.0742081,35.4028624 53.781374,31.5555574 54.8670454,28.6627598 C56.6144472,24.0031424 58.8339216,17.8742848 60.4943039,11.7737376 C60.5424355,11.5967983 60.6007673,11.3744981 60.6680241,11.1187403 C61.2134098,9.02892569 62.6949719,3.18992701 64.0691144,3.47946414 C66.0574931,3.89704101 67.3442974,18.0673096 76.3318459,18.0692398 C76.5246912,18.0692398 76.6388046,18.0685964 76.7395304,18.0685964 L86.960014,18.0663445 L86.1864014,17.2849159 C83.2439961,17.2742996 78.8381976,17.2633615 78.5325139,17.2492064" id="Fill-19" fill="#3A383A" mask="url(#mask-4)"></path>
                            <path d="M32.8397741,19.4813767 C28.0992853,19.6065211 23.1975078,19.7342392 18.3776496,19.7342392 L7.01698799,19.7342392 L6.26983188,20.4880008 L17.9651837,20.4880008 C26.0293059,20.4880008 40.5567747,20.8425229 45.3297762,20.9589812 C46.2774277,20.9815008 46.7989069,20.9946908 46.8607449,20.9946908 C46.9222642,20.9946908 47.443106,20.9815008 48.3885262,20.9599463 C53.1698153,20.8425229 67.7167279,20.4880008 75.795194,20.4880008 L89.3600299,20.4880008 L88.61383,19.7342392 L76.2073411,19.7342392 C71.3935392,19.7342392 66.4997305,19.6065211 61.7656168,19.4813767 C57.0273593,19.3565541 52.129088,19.2278709 47.3114611,19.2278709 C42.4871404,19.2278709 37.5831316,19.3565541 32.8397741,19.4813767" id="Fill-20" fill="#3A383A" mask="url(#mask-4)"></path>
                        </g>
                        <polygon id="Fill-22" fill="#3A383A" points="6.14884059 20.7940299 89.1581885 20.7940299 89.1581885 19.2537313 6.14884059 19.2537313"></polygon>
                        <g id="Group-28" transform="translate(1.537210, 1.540299)" fill="#3A383A">
                            <path d="M42.9014918,3.43527875 C41.7529905,5.07038963 36.8717008,15.0031166 35.2970501,18.2691515 C34.357483,20.2160188 33.3879772,22.2285869 32.4152865,24.1996088 C32.4152865,24.1996088 30.2826285,28.570962 28.9478063,28.570962 C28.6133841,28.570962 28.2993457,28.3893188 27.9884924,28.0144382 C27.4578759,27.3745001 26.8641969,25.3496937 26.8135558,25.1886625 C26.5141683,24.2256959 26.0564877,23.2169964 25.3519717,22.4044329 C23.8948465,20.7255216 20.7203838,20.598951 20.1569621,20.598951 L3.3896713,20.598951 L2.63674366,21.3603066 L19.8722255,21.3603066 C22.5969699,21.3451697 24.4955324,22.1126444 25.2799913,23.7735203 C25.5210937,24.2836671 25.7150586,24.9464716 25.9204894,25.6485677 C26.3278474,27.0405214 26.789987,28.6183052 27.7786026,29.4157317 C28.1353196,29.7039776 28.5114649,29.850516 28.8952542,29.850516 C30.5007991,29.850516 31.8018606,27.2984934 32.5015992,25.9271516 L32.648745,25.639872 C34.0928118,22.8543541 35.4680831,19.974472 36.7981279,17.1895983 C37.7819661,15.1287209 38.6998753,12.9448157 39.8356367,10.923874 C41.0634439,8.74029085 42.8983068,5.48681634 44.4458853,4.50549216 C44.7745745,4.29647365 45.1590007,4.36024201 45.2281146,4.36185232 C45.4153911,4.36636119 45.596616,4.45492836 45.6988537,4.51579815 C46.4508258,4.96314285 47.8442515,7.2017987 49.2020056,13.2787944 C49.5915278,15.0166432 49.9562072,16.7924954 50.3106947,18.508766 C50.9941899,21.8282633 51.7002984,25.2611266 52.6041938,28.5893196 C53.1029606,30.4241091 53.6498205,31.7935185 54.5594488,33.4737182 C55.2368925,34.7249306 55.954467,35.3329845 56.7602652,35.3329845 C56.961874,35.3329845 57.1755857,35.3104401 57.3746465,35.2147876 C59.1575944,34.360678 65.7887084,24.2859216 68.2019625,22.7042731 C69.9460537,21.5596632 71.801619,21.3812407 74.1209164,21.3744773 C74.8767105,21.372545 80.6915159,21.3696464 84.64566,21.3680361 C85.9585059,21.367714 88.0325603,21.367392 90.3741525,21.3661037 L89.6202694,20.604104 C87.8373215,20.6050702 86.2779587,20.6050702 85.3622789,20.6063585 C81.2886983,20.6076467 75.2200506,20.6095791 74.4916473,20.6131218 L74.2177396,20.6131218 C72.5456287,20.6163424 70.6856045,20.5593374 68.964445,21.2308375 C66.4508643,22.2121617 64.7083655,25.0215121 62.5123265,27.8363376 C61.510334,29.1207226 58.9206324,32.3796721 57.9606815,33.1938459 C57.7348669,33.3845069 57.5061859,33.4775829 57.2615799,33.4775829 C55.5783217,33.4775829 53.708424,29.1661334 53.2803636,27.5268357 C52.4774319,24.4466307 51.8235569,21.2707732 51.1897473,18.2005522 C50.7820707,16.2195463 50.3584693,14.1718735 49.8995147,12.167357 C49.4322791,10.1196842 47.9461707,3.33093053 45.6641375,2.26297156 C45.4507443,2.16377634 45.2379881,2.1032286 45.0214099,2.1032286 C44.3888742,2.1032286 43.5464489,2.47102388 42.9014918,3.43527875" id="Fill-24"></path>
                            <path d="M92.010114,23.0854661 C90.5545813,23.0873985 68.6859191,23.0828896 65.2085655,23.0854661 C64.9305174,23.0861103 64.734323,23.0861103 64.7107542,23.0854661 C63.1892926,23.059057 62.132837,21.6922241 61.4662221,20.3666152 C59.4517267,16.3672441 57.1432582,2.20712594 56.8865494,1.04448062 C56.8808164,1.01968181 56.8754019,0.985543197 56.869032,0.946573645 C56.8174354,0.648021786 56.7384481,0.197134404 56.4279132,0.110177552 C56.3626213,0.0914979322 56.2998773,0.0824801845 56.2358594,0.0824801845 C55.916725,0.0824801845 55.7249897,0.302770877 55.6424989,0.673142654 C55.3386524,2.03224605 51.368265,21.2252336 50.2137123,23.0055946 C50.128992,23.1083326 49.9821647,23.2941626 49.7353293,23.3173511 C49.6219443,23.3244364 49.411736,23.2919081 49.2910256,23.1254019 C49.1492943,22.9318424 49.0199843,22.7109075 48.8979999,22.3524521 C48.415795,20.9498703 47.049123,15.969175 47.049123,15.969175 C46.7717118,14.9981568 46.2551092,13.1904205 45.2066161,13.1904205 C44.8670979,13.1904205 44.5145214,13.3884889 44.1609894,13.7772182 C43.6173145,14.3762543 43.3128311,15.1981576 43.0443379,15.9234421 C43.0443379,15.9234421 42.2656119,18.3215189 41.9391522,19.5311853 C41.7142931,20.365327 39.4141055,29.602077 39.0968822,30.0626263 C38.9784012,30.2355738 38.8596017,30.3895196 38.7044935,30.3734165 C38.5675397,30.3595678 38.529957,30.2272002 38.4984258,30.1392771 C37.8037832,28.1998173 31.4354295,3.31469858 31.4354295,3.31469858 C31.2691739,2.64029989 31.0955929,1.65028002 30.4624202,1.34657516 C30.2187698,1.22902238 29.8572753,1.28151856 29.6442006,1.42644664 C28.0746459,2.4902188 25.6413265,15.9086273 23.7529559,20.860981 L23.7532744,20.860981 C23.7532744,20.860981 23.4306366,21.8642054 23.0407959,22.4548679 C22.9086196,22.6561569 22.6977743,22.7846598 22.4757817,22.868074 C22.1681133,23.0004416 21.6104245,23.0638879 20.3921723,23.0587349 L1.05779326,23.0587349 L0.310917072,23.8126831 C0.316013029,23.8146154 0.318879505,23.8168699 0.323975462,23.8181581 C8.59057309,23.8191243 20.4106452,23.8197684 20.4768926,23.8197684 L20.4778481,23.8197684 C20.4778481,23.8197684 22.3665371,23.8242773 22.4499834,23.8197684 C22.4636788,23.8191243 22.4805592,23.8191243 22.4968025,23.8181581 C22.8398241,23.7949696 23.3863655,23.6770948 23.8462756,22.9279776 C24.6501628,21.6162174 27.3870102,11.4670645 28.3733964,7.79845153 C28.7998643,6.21197207 29.3397172,4.49183671 29.6989822,3.45576192 C29.9082349,2.85318314 30.2598559,2.68410037 30.5079653,3.34658276 C30.6309053,3.67605261 36.1291243,29.9743812 37.5811535,31.5041777 C38.0257758,32.0255967 38.7175519,31.9502341 39.0421007,31.8903305 C40.1160736,31.6903297 40.3759674,30.2133515 42.3535172,23.8378039 C43.3762121,20.5405289 44.6180331,15.458384 45.2263629,14.8886556 C45.3741457,14.7237596 45.5827614,14.6103937 45.7646234,14.911522 C45.9770611,15.2651466 46.2092456,15.9720736 46.6608748,17.5962343 C46.8220344,18.1814217 47.0179103,18.956948 47.1593231,19.4690273 C47.5182695,20.7669388 47.8316709,21.8635613 48.3798048,23.2220206 C48.6696373,23.9382874 49.1903804,24.0281428 49.6171668,24.0281428 C49.6741778,24.0281428 49.7334183,24.0226678 49.7904293,24.0094632 C50.7510172,23.7988344 51.1822626,22.873227 51.4478893,22.1836914 C52.5928871,19.2274805 56.0231031,2.97653305 56.0944465,2.62967183 C56.1380807,2.46058906 56.1686564,2.26091036 56.2419108,2.26413099 C56.3664432,2.24126455 56.4180398,2.70986537 56.4416086,2.84674189 C57.2397629,7.40843394 58.9615593,17.4648329 60.8129842,20.9157316 C61.8057403,22.7675905 62.9255768,23.6043087 64.2151724,23.7563221 C64.4253806,23.781443 64.6546987,23.8117169 64.917459,23.8117169 C65.2021956,23.8117169 92.7299179,23.8136492 92.7299179,23.8136492 L92.010114,23.0854661 Z" id="Fill-26"></path>
                        </g>
                    </g>
                </g>
            </g>
        </g>
    </g>
</svg>