<?xml version="1.0" encoding="UTF-8" standalone="no"?>
<svg width="141px" height="16px" viewBox="0 0 141 16" version="1.1" xmlns="http://www.w3.org/2000/svg" xmlns:xlink="http://www.w3.org/1999/xlink">
    <!-- Generator: Sketch 3.8.3 (29802) - http://www.bohemiancoding.com/sketch -->
    <title>Page 1 Copy 23</title>
    <desc>Created with Sketch.</desc>
    <defs></defs>
    <g id="Boostrap-3-Grid" stroke="none" stroke-width="1" fill="none" fill-rule="evenodd">
        <g id="MVDSoundCity-Site-v1-Copy-3" transform="translate(-889.000000, -5058.000000)" fill="#2F110F">
            <g id="Group-22" transform="translate(110.000000, 4991.000000)">
                <g id="Page-1-Copy-23" transform="translate(779.000000, 67.000000)">
                    <g id="Group-6">
                        <path d="M23.5499976,3.20201095 C22.9344322,3.20201095 22.5246365,3.5728934 22.316251,4.3102219 C22.1566923,4.8860657 22.0790927,6.199238 22.0790927,8.25151337 C22.0790927,10.5291575 22.177618,11.9541269 22.3790282,12.5228725 C22.5917732,13.1342074 22.9771555,13.4403185 23.5290718,13.4403185 C24.1298148,13.4403185 24.5335071,13.0703233 24.7418926,12.3321076 C24.9005794,11.763362 24.9790509,10.4173604 24.9790509,8.29410274 C24.9790509,6.06703349 24.8831413,4.67400612 24.6887063,4.119457 C24.469858,3.50812206 24.0879633,3.20201095 23.5499976,3.20201095 M23.5927209,0.902184863 C24.9363276,0.902184863 25.9686639,1.31565668 26.6906017,2.14792399 C27.2494933,2.78853913 27.6279003,3.5436132 27.8293105,4.41492077 C28.111808,5.63847794 28.2539286,6.9410029 28.2539286,8.32693205 C28.2539286,9.71197391 28.111808,11.011837 27.8293105,12.2274087 C27.6279003,13.091618 27.2494933,13.8475794 26.6906017,14.4952928 C25.9756391,15.3266728 24.9258647,15.7401446 23.5290718,15.7401446 C22.1322789,15.7401446 21.0816326,15.3266728 20.3675419,14.4952928 C19.8086504,13.8475794 19.4293714,13.091618 19.2288331,12.2274087 C18.9454638,11.0260335 18.804215,9.71995942 18.804215,8.30563736 C18.804215,6.9410029 18.9454638,5.64557617 19.2288331,4.41492077 C19.4293714,3.55071143 19.8086504,2.79563736 20.3675419,2.14792399 C21.0886079,1.31565668 22.1601799,0.902184863 23.5927209,0.902184863 M13.9328781,0.999785507 L16.3053334,0.999785507 L16.3053334,13.1670367 L18.6498877,13.1670367 L18.6498877,15.5174377 L10.8166873,15.5174377 L10.8166873,13.1670367 L13.1969897,13.1670367 L13.1969897,4.67755523 C12.4933619,5.41133462 11.7007996,6.0129095 10.8166873,6.48050531 L10.8166873,3.65541031 C12.1010043,2.98196586 13.1403159,2.09646184 13.9328781,0.999785507 M4.38899872,9.45288857 C4.23728714,9.55403833 4.13440227,9.62235878 4.07860031,9.66494815 C3.38107578,10.1724715 3.03144161,10.8059884 3.03144161,11.5654989 C3.03144161,12.206114 3.22936419,12.70299 3.62172174,13.0632251 C3.98269068,13.39418 4.45962308,13.5592138 5.05426274,13.5592138 C5.63408001,13.5592138 6.10054954,13.39418 6.45105561,13.0632251 C6.79022692,12.7393684 6.96024852,12.3471913 6.96024852,11.8822573 C6.96024852,11.3321446 6.71960256,10.8636615 6.23569491,10.4785826 C5.95232557,10.2523266 5.62710476,10.0509143 5.26003248,9.86724767 C4.68631855,9.58598035 4.39597397,9.44579034 4.38899872,9.45288857 M5.8180521,6.71474686 C5.94883795,6.58165507 6.03690042,6.48405443 6.08659905,6.42993043 C6.57835384,5.87981771 6.82248742,5.31462126 6.82248742,4.73167923 C6.82248742,4.32086924 6.73093733,3.95442319 6.54260571,3.62346828 C6.28103401,3.17982899 5.84944071,2.95712206 5.2486977,2.95712206 C4.73514527,2.95712206 4.32970914,3.11949404 4.02541406,3.44246345 C3.74989187,3.73082899 3.61125887,4.0946132 3.61125887,4.52937971 C3.61125887,5.04843768 3.85190483,5.49828792 4.33668438,5.86828309 C4.61918182,6.08832818 4.92696452,6.28264219 5.26003248,6.44767601 C5.62361714,6.63134267 5.81107686,6.72184509 5.8180521,6.71474686 M7.69526499,7.66058583 C9.15309126,8.56117359 9.88200439,9.80513816 9.88200439,11.3960287 C9.88200439,12.6062767 9.48528732,13.6097887 8.69010935,14.4118886 C7.81297226,15.2982799 6.56091573,15.7401446 4.93045214,15.7401446 C3.40984866,15.7401446 2.24934223,15.3692622 1.44718902,14.6319337 C0.672064884,13.9300963 0.286682582,12.9798209 0.286682582,11.785544 C0.286682582,10.817523 0.58051479,10.0322815 1.16817921,9.435143 C1.47944953,9.11128631 1.95638192,8.77323317 2.59636068,8.4200963 C2.09414302,8.07849404 1.71922358,7.74753913 1.47944953,7.43078068 C0.951946602,6.76177262 0.690374903,5.96588374 0.690374903,5.03690306 C0.690374903,3.85327343 1.06878196,2.87815427 1.8290837,2.10444734 C2.61728642,1.30146023 3.75948283,0.902184863 5.26003248,0.902184863 C6.52865522,0.902184863 7.51565243,1.18345217 8.22276792,1.74421224 C9.07200403,2.42830403 9.49575018,3.37503027 9.49575018,4.5835037 C9.49575018,5.36519614 9.29433998,6.03420419 8.89413528,6.59585153 C8.64738598,6.95519936 8.24718128,7.31188535 7.69526499,7.66058583" id="Fill-4"></path>
                        <path d="M134.577505,2.39707182 L131.393306,2.39707182 L131.393306,7.64355008 L134.436257,7.64355008 C135.619433,7.64355008 136.503545,7.42527955 137.08249,6.99406216 C137.662308,6.56107021 137.95178,5.90182222 137.95178,5.00921997 C137.95178,4.16719259 137.662308,3.52125378 137.08249,3.07140354 C136.503545,2.6215533 135.668259,2.39707182 134.577505,2.39707182 L134.577505,2.39707182 Z M129.67478,15.5225839 L129.67478,0.904669243 L134.635923,0.904669243 C136.354449,0.904669243 137.651845,1.25248245 138.524622,1.94810886 C139.3974,2.6463971 139.832481,3.67209114 139.832481,5.03051465 C139.832481,5.92311691 139.609273,6.6817401 139.160242,7.3028351 C138.71121,7.92747923 138.045946,8.41548245 137.165321,8.76329565 L140.067895,15.5225839 L138.307518,15.5225839 L135.547065,9.09336329 L131.393306,9.09336329 L131.393306,15.5225839 L129.67478,15.5225839 Z M122.250503,15.8003021 C120.484022,15.8003021 119.061944,15.1046757 117.979037,13.7178593 C116.898746,12.3274937 116.357293,10.4837288 116.357293,8.18745185 C116.357293,5.89827311 116.898746,4.06160644 117.979037,2.67833913 C119.061944,1.29773366 120.484022,0.605656361 122.250503,0.605656361 C124.023959,0.605656361 125.448653,1.29773366 126.532432,2.67833913 C127.612723,4.06160644 128.155048,5.89827311 128.155048,8.18745185 C128.155048,10.4837288 127.612723,12.3274937 126.532432,13.7178593 C125.448653,15.1046757 124.023959,15.8003021 122.250503,15.8003021 L122.250503,15.8003021 Z M122.250503,14.2759575 C123.481634,14.2759575 124.455553,13.7356048 125.166156,12.6504631 C125.876759,11.5688705 126.232496,10.0800171 126.232496,8.18745185 C126.232496,6.30198486 125.876759,4.81668052 125.162668,3.72798969 C124.448577,2.64284799 123.475531,2.09894622 122.250503,2.09894622 C121.018501,2.09894622 120.041966,2.64284799 119.327875,3.72798969 C118.613785,4.81668052 118.258047,6.30198486 118.258047,8.18745185 C118.258047,10.0800171 118.613785,11.5688705 119.327875,12.6504631 C120.041966,13.7356048 121.018501,14.2759575 122.250503,14.2759575 L122.250503,14.2759575 Z M106.224005,14.0097739 L108.953942,14.0097739 C110.496343,14.0097739 111.689982,13.5040251 112.532243,12.4960767 C113.373632,11.4881282 113.794762,10.0587224 113.794762,8.20785926 C113.794762,6.35078519 113.370144,4.91871755 112.520908,3.91076908 C111.672544,2.90282061 110.461467,2.39707182 108.891165,2.39707182 L106.224005,2.39707182 L106.224005,14.0097739 Z M104.506351,15.5225839 L104.506351,0.904669243 L109.146633,0.904669243 C109.947914,0.904669243 110.664621,0.996058937 111.293265,1.17883833 C111.924524,1.3580686 112.476441,1.63223768 112.945526,1.99690918 C113.856667,2.69519742 114.546345,3.57360322 115.018918,4.63390113 C115.492362,5.69419903 115.727777,6.88492689 115.727777,8.20785926 C115.727777,10.4313794 115.109596,12.2050493 113.870618,13.5315308 C112.635128,14.8588995 110.975891,15.5225839 108.891165,15.5225839 L104.506351,15.5225839 Z M95.5911157,9.74994944 L100.101484,9.74994944 L97.8275537,2.56299291 L95.5911157,9.74994944 Z M92.1749893,15.5225839 L96.937338,0.904669243 L98.9906759,0.904669243 L103.689375,15.5225839 L101.950796,15.5225839 L100.556618,11.1580605 L95.1394686,11.1580605 L93.814172,15.5225839 L92.1749893,15.5225839 Z M89.9891218,2.41747923 L94.0225574,2.41747923 L94.0225574,0.904669243 L84.1752549,0.904669243 L84.1752549,2.41747923 L88.2086904,2.41747923 L88.2086904,15.5225839 L89.9891218,15.5225839 L89.9891218,2.41747923 Z M83.0513685,5.63830048 C82.824673,4.50080934 82.4026706,3.62595266 81.7888491,3.01550499 C81.1750275,2.40417005 80.4086224,2.09894622 79.4835305,2.09894622 C78.258503,2.09894622 77.2863282,2.64284799 76.567878,3.73508792 C75.8511715,4.82377874 75.4910745,6.30908309 75.4910745,8.18745185 C75.4910745,10.0800171 75.8511715,11.5688705 76.5643903,12.6504631 C77.279353,13.7356048 78.2515278,14.2759575 79.4835305,14.2759575 C80.4086224,14.2759575 81.1776432,13.9742828 81.7888491,13.3664969 C82.4026706,12.7595984 82.8517021,11.863447 83.1341995,10.6762683 L84.7315307,11.0347288 C84.3871279,12.5945646 83.7698187,13.7773069 82.8752435,14.5847304 C81.9824121,15.3965903 80.8532943,15.8003021 79.4835305,15.8003021 C77.6656072,15.8003021 76.2269628,15.1224213 75.1745727,13.7639977 C74.118695,12.404687 73.5903201,10.5476129 73.5903201,8.18745185 C73.5903201,6.96212013 73.7524946,5.85923285 74.0803311,4.87967729 C74.4081676,3.90367085 74.8981786,3.05454525 75.550364,2.33407504 C76.0639165,1.7724277 76.6576842,1.34387214 77.3307954,1.04840837 C78.0039066,0.753831884 78.7214849,0.605656361 79.4835305,0.605656361 C80.8532943,0.605656361 81.974565,1.00315717 82.8551897,1.7928351 C83.7340706,2.58694944 84.3461484,3.75993172 84.6905511,5.30823285 L83.0513685,5.63830048 Z M64.1231684,15.5225839 L64.1231684,0.904669243 L73.2293512,0.904669243 L73.2293512,2.35536973 L65.8416945,2.35536973 L65.8416945,7.09876103 L71.6564334,7.09876103 L71.6564334,8.50687214 L65.8416945,8.50687214 L65.8416945,14.0097739 L73.4124514,14.0097739 L73.4124514,15.5225839 L64.1231684,15.5225839 Z M53.2906125,15.5225839 L53.2906125,0.904669243 L58.110507,0.904669243 C59.6947596,0.904669243 60.9093242,1.29152271 61.751585,2.06345507 C62.592974,2.8327256 63.0141044,3.94182383 63.0141044,5.39252432 C63.0141044,6.66044541 62.5624573,7.68170306 61.6582911,8.45097359 C60.7576126,9.22290596 59.5465356,9.60975942 58.0320355,9.60975942 L55.0082666,9.60975942 L55.0082666,15.5225839 L53.2906125,15.5225839 Z M55.0082666,8.08541481 L57.8384724,8.08541481 C58.9152759,8.08541481 59.7287639,7.83963865 60.2745768,7.35163543 C60.8195179,6.86008309 61.0924244,6.13251465 61.0924244,5.17425378 C61.0924244,4.33222641 60.8125426,3.65789469 60.2536511,3.15214589 C59.6947596,2.64994622 58.9318421,2.39707182 57.9692583,2.39707182 L55.0082666,2.39707182 L55.0082666,8.08541481 Z M40.5459674,11.5236193 C40.9496598,12.9068866 41.6532876,13.9671845 42.6577229,14.7009639 C43.6621583,15.4347433 44.9142148,15.8003021 46.4077892,15.8003021 C47.9641408,15.8003021 49.2205569,15.4107868 50.1726778,14.6273198 C51.1291584,13.8438528 51.6043469,12.8225952 51.6043469,11.5617723 C51.6043469,10.4730815 51.2704071,9.60266119 50.6042711,8.95672238 C49.9381352,8.30723446 48.7305459,7.73139066 46.9849907,7.22209275 C46.8358949,7.18039066 46.6153027,7.12360483 46.3258301,7.04641159 C45.1792741,6.74473688 44.3657861,6.43152754 43.8792628,6.11210725 C43.6237944,5.93287697 43.4267437,5.70484638 43.285495,5.43067729 C43.1442463,5.15739549 43.0718781,4.85572077 43.0718781,4.52476586 C43.0718781,3.80518293 43.3439127,3.2222409 43.8897256,2.77239066 C44.4381543,2.3234277 45.1592203,2.09894622 46.0564112,2.09894622 C46.9631931,2.09894622 47.7261106,2.31987858 48.3399321,2.7626306 C48.9546256,3.20449533 49.3862189,3.8397868 49.6347121,4.66939227 L51.3113866,4.26834235 C50.9286201,3.06785443 50.2868975,2.15484477 49.3897066,1.52576425 C48.4960033,0.898458293 47.3808359,0.585248953 46.0564112,0.585248953 C44.6378207,0.585248953 43.4860333,0.978313366 42.59233,1.76532947 C41.6986267,2.54879646 41.2530829,3.55585765 41.2530829,4.78473849 C41.2530829,5.24878519 41.3428892,5.6915372 41.5225018,6.11210725 C41.6986267,6.53001546 41.9532232,6.89202512 42.2845473,7.20079807 C42.9576585,7.82544219 44.0649787,8.33119098 45.6004046,8.71449533 C45.8358191,8.77039388 46.0180474,8.81209597 46.1462175,8.84758712 C47.65723,9.25129887 48.637252,9.65501063 49.0888991,10.0622715 C49.5414181,10.4659833 49.7654979,11.0276306 49.7654979,11.7481008 C49.7654979,12.4676837 49.4446366,13.0683713 48.7994264,13.5528254 C48.1577039,14.0337304 47.3468316,14.2759575 46.3702973,14.2759575 C45.3388329,14.2759575 44.468671,14.0097739 43.7615555,13.4756322 C43.05444,12.9414905 42.5539662,12.1766564 42.2644935,11.1829043 L40.5459674,11.5236193 Z M31.3342841,15.5225839 L31.3342841,0.904669243 L40.4404668,0.904669243 L40.4404668,2.35536973 L33.0528102,2.35536973 L33.0528102,7.09876103 L38.8666771,7.09876103 L38.8666771,8.50687214 L33.0528102,8.50687214 L33.0528102,14.0097739 L40.6226951,14.0097739 L40.6226951,15.5225839 L31.3342841,15.5225839 Z" id="Fill-5"></path>
                    </g>
                </g>
            </g>
        </g>
    </g>
</svg>