<?xml version="1.0" encoding="UTF-8" standalone="no"?>
<svg width="129px" height="18px" viewBox="0 0 129 18" version="1.1" xmlns="http://www.w3.org/2000/svg" xmlns:xlink="http://www.w3.org/1999/xlink">
    <!-- Generator: Sketch 3.8.3 (29802) - http://www.bohemiancoding.com/sketch -->
    <title>Page 1 Copy 22</title>
    <desc>Created with Sketch.</desc>
    <defs>
        <polygon id="path-1" points="19.1663531 0.351362319 0.489444293 0.351362319 0.489444293 17.6521739 19.1663531 17.6521739 19.1663531 0.351362319"></polygon>
    </defs>
    <g id="Boostrap-3-Grid" stroke="none" stroke-width="1" fill="none" fill-rule="evenodd">
        <g id="MVDSoundCity-Site-v1-Copy-3" transform="translate(-718.000000, -5057.000000)">
            <g id="Group-22" transform="translate(110.000000, 4991.000000)">
                <g id="Page-1-Copy-22" transform="translate(608.000000, 66.000000)">
                    <path d="M0,16.8846881 L0,14.3672548 L1.74267301,14.3672548 C2.70187177,14.3672548 3.1287538,14.1926206 3.1287538,13.3801915 L3.1287538,3.46400166 C3.1287538,2.67266373 2.70187177,2.51912055 1.74267301,2.51912055 L0,2.51912055 L0,0 L21.4443928,0 L21.4443928,6.8427953 L17.9976205,6.8427953 L17.9976205,5.7232799 C17.9976205,3.52643131 16.5815379,2.51912055 14.4119829,2.51912055 L11.6363925,2.51912055 C10.6643359,2.51912055 10.2168812,2.67266373 10.2168812,3.46400166 L10.2168812,7.06045541 L11.7169687,7.06045541 C12.5655896,7.06045541 12.9136098,6.62766612 12.9136098,5.90297605 L12.9136098,4.50083996 L16.0200766,4.50083996 L16.0200766,12.4800235 L12.9136098,12.4800235 L12.9136098,10.6813748 C12.9136098,9.98452501 12.491871,9.56185944 11.6363925,9.56185944 L10.2168812,9.56185944 L10.2168812,13.3801915 C10.2168812,14.1926206 10.5391857,14.3672548 11.5078136,14.3672548 L14.0673914,14.3672548 C16.6612569,14.3672548 18.2419204,13.6164118 18.2419204,10.8543218 L18.2419204,9.7803632 L21.685264,9.7803632 L21.685264,16.8846881 L0,16.8846881 Z" id="Fill-1" fill="#340604"></path>
                    <path d="M22.4597377,16.8846881 L22.4597377,14.3672548 L24.1639043,14.3672548 C25.112442,14.3672548 25.5319551,13.9715859 25.5319551,13.1853098 L25.5319551,3.69094186 C25.5319551,2.89116749 25.112442,2.51912055 24.1639043,2.51912055 L22.4597377,2.51912055 L22.4597377,0 L36.0214672,0 L36.0214672,2.51912055 L33.9407497,2.51912055 C32.9913697,2.51912055 32.5693294,2.89116749 32.5693294,3.69094186 L32.5693294,13.1853098 C32.5693294,14.2516756 32.8060426,14.3672548 34.3594204,14.3672548 L36.1958432,14.3672548 C38.2976206,14.3672548 39.8804823,13.2932962 39.8804823,10.7682702 L39.8804823,9.24718028 L43.370528,9.24718028 L43.370528,16.8846881 L22.4597377,16.8846881 Z" id="Fill-3" fill="#340604"></path>
                    <path d="M64.1700105,2.39257397 L63.6692567,2.39257397 C62.7225453,2.39257397 62.0152515,2.80174124 62.0152515,3.60151561 L62.0152515,7.54555063 L63.8547211,7.54555063 C65.7464579,7.54555063 66.8221513,6.64622628 66.8221513,4.89060342 C66.8221513,3.46400166 65.8214866,2.39257397 64.1700105,2.39257397 M66.9604066,10.1540974 L62.0152515,10.1540974 L62.0152515,13.1853098 C62.0152515,13.9715859 62.4376045,14.3664112 63.3843159,14.3664112 L65.7700624,14.3664112 L65.7700624,16.8846881 L51.8897388,16.8846881 L51.8897388,14.3664112 L53.5960112,14.3664112 C54.5393505,14.3664112 54.9642326,13.9715859 54.9642326,13.1853098 L54.9642326,4.21315741 C54.9642326,3.0683327 54.6042631,2.51912055 53.627203,2.51912055 L51.8897388,2.51912055 L51.8897388,0 L65.1951228,0 C71.2716107,0 74.3494765,1.53627546 74.3494765,4.94037841 C74.3494765,8.28542629 72.0353867,10.1540974 66.9604066,10.1540974" id="Fill-5" fill="#340604"></path>
                    <path d="M81.4124519,4.16928793 L78.7936042,9.74071194 L83.9031577,9.74071194 L81.4124519,4.16928793 Z M82.4240094,16.8846881 L82.4240094,14.3672548 L84.5913902,14.3672548 C85.4578333,14.3672548 85.7828556,13.8889088 85.5172368,13.2932962 L85.0403112,12.1704062 L77.6318406,12.1704062 L77.1820709,13.1861534 C76.8137689,14.0171426 77.2041351,14.3672548 78.2360595,14.3672548 L79.9383954,14.3672548 L79.9383954,16.8846881 L70.477108,16.8846881 L70.477108,14.3672548 L71.040593,14.3672548 C71.8552702,14.3672548 72.7624472,14.1521256 73.1035933,13.4232174 L79.5378458,0 L86.3887717,0 L92.6125659,13.1372221 C92.9808679,13.8889088 93.5350181,14.3672548 94.5236628,14.3672548 L95.2602668,14.3672548 L95.2602668,16.8846881 L82.4240094,16.8846881 Z" id="Fill-7" fill="#340604"></path>
                    <path d="M95.2602668,16.8846881 L95.2602668,14.3672548 L97.2251973,14.3672548 C98.1728474,14.3672548 98.3579619,14.1926206 98.3579619,13.3801915 L98.3579619,3.8841363 C98.3579619,3.09279837 97.9393315,2.51912055 96.9857373,2.51912055 L95.2602668,2.51912055 L95.2602668,0 L108.42632,0 L108.42632,2.51912055 L106.67028,2.51912055 C105.716686,2.51912055 105.564688,2.89116749 105.564688,3.69094186 L105.564688,13.1853098 C105.564688,13.9715859 105.987564,14.3672548 106.942008,14.3672548 L108.42632,14.3672548 L108.42632,16.8846881 L95.2602668,16.8846881 Z" id="Fill-9" fill="#340604"></path>
                    <g id="Group-13" transform="translate(109.200794, 0.000000)">
                        <mask id="mask-2" fill="white">
                            <use xlink:href="#path-1"></use>
                        </mask>
                        <g id="Clip-12"></g>
                        <path d="M10.5753544,17.6521739 C7.32593206,17.6521739 5.38048776,16.804029 4.27433726,16.804029 C3.74230749,16.804029 3.49481263,17.2150725 3.49481263,17.4571594 L0.623367158,17.4571594 L0.623367158,11.0401739 L3.86016219,11.0401739 L3.86016219,11.5117391 C3.86016219,13.8788116 6.17263968,14.8816232 9.05418699,14.8816232 C11.7118104,14.8816232 13.0469357,14.2705217 13.0469357,13.2164348 C13.0469357,12.2791884 12.439984,11.8429275 9.55170217,11.3192464 L5.24579668,10.5526377 C2.54944961,10.0667826 0.475206969,8.45707246 0.489517896,5.81597101 C0.518139751,2.05437681 4.61443224,0.350521739 9.21076537,0.350521739 C12.1764946,0.350521739 13.2026723,1.18521739 14.0646952,1.18521739 C14.8576889,1.18521739 15.0462564,0.920434783 15.0673019,0.574115942 L18.113004,0.574115942 L18.113004,6.46405797 L14.7305742,6.46405797 L14.7305742,5.92272464 C14.7305742,3.97510145 12.8347973,3.03113043 10.3143904,3.03113043 C8.16859313,3.03113043 6.74423495,3.27489855 6.74423495,4.31049275 C6.74423495,5.04768116 7.21565374,5.50663768 9.55170217,5.94626087 L14.014186,6.79692754 C16.8831061,7.34666667 19.1930581,8.65544928 19.1661199,11.5369565 C19.1400235,16.1307246 14.8038125,17.6521739 10.5753544,17.6521739" id="Fill-11" fill="#340604" mask="url(#mask-2)"></path>
                    </g>
                </g>
            </g>
        </g>
    </g>
</svg>