<?xml version="1.0" encoding="UTF-8" standalone="no"?>
<svg width="82px" height="44px" viewBox="0 0 82 44" version="1.1" xmlns="http://www.w3.org/2000/svg" xmlns:xlink="http://www.w3.org/1999/xlink">
    <!-- Generator: Sketch 3.8.3 (29802) - http://www.bohemiancoding.com/sketch -->
    <title>Page 1 Copy 14</title>
    <desc>Created with Sketch.</desc>
    <defs>
        <polygon id="path-1" points="0 43.1225071 80.9762557 43.1225071 80.9762557 0.0296467236 0 0.0296467236"></polygon>
    </defs>
    <g id="Boostrap-3-Grid" stroke="none" stroke-width="1" fill="none" fill-rule="evenodd">
        <g id="MVDSoundCity-Site-v1-Copy-3" transform="translate(-970.000000, -5224.000000)">
            <g id="Group-27" transform="translate(110.000000, 5174.000000)">
                <g id="Group-25" transform="translate(133.000000, 45.000000)">
                    <g id="Page-1-Copy-14" transform="translate(727.585906, 5.206073)">
                        <g id="Group-3">
                            <mask id="mask-2" fill="white">
                                <use xlink:href="#path-1"></use>
                            </mask>
                            <g id="Clip-2"></g>
                            <path d="M80.9762557,37.9609047 L80.9762557,5.19157254 C80.9762557,2.33901869 78.6142623,0.0292694017 75.6995205,0.0292694017 L5.27673526,0.0292694017 C2.36199345,0.0292694017 0,2.33901869 0,5.19157254 L0,37.9609047 C0,40.8113025 2.36199345,43.1226688 5.27673526,43.1226688 L75.6995205,43.1226688 C78.6142623,43.1226688 80.9762557,40.8113025 80.9762557,37.9609047" id="Fill-1" fill="#340604" mask="url(#mask-2)"></path>
                        </g>
                        <path d="M36.2620554,25.9986102 L35.6247789,25.9986102 L35.6247789,25.1586209 L30.8457583,25.1586209 L30.8457583,13.0942485 C30.8457583,12.7854289 30.8003966,12.5630788 30.8003966,12.2564075 L32.9395878,11.5925797 C31.9825667,9.25145876 30.5724818,8.14615322 28.7508225,8.14615322 C25.7016315,8.14615322 23.5165255,10.5753549 23.5165255,13.0942485 L23.5165255,26.0437247 L22.9251639,26.0437247 L22.9251639,25.2037354 L18.3286965,25.2037354 L18.3286965,13.846157 L18.1002284,13.9337006 L18.0095051,12.211293 L19.8754197,11.5925797 C18.8746964,9.20473302 17.5083136,8.14615322 15.6888671,8.14615322 C12.5024847,8.14615322 10.8169105,10.0447223 10.8169105,13.5373374 L10.8622721,26.0437247 L10.3168254,26.0437247 L10.3168254,25.2918162 L5.44597513,25.2918162 L5.40116663,13.8907344 C5.35580493,8.05699835 8.86027246,5.36194332 15.0056757,5.36194332 C17.2355903,5.36194332 19.2829517,5.98065663 20.8766961,7.26158653 C22.515249,5.93554212 24.8375465,5.44948696 26.9767377,5.36194332 C32.529673,5.36194332 36.171332,7.43721088 36.2166937,14.1560507 L36.2620554,25.9986102 Z" id="Fill-4" fill="#FEFEFE"></path>
                        <path d="M57.0934489,15.6147533 C57.0934489,9.82559464 54.2721242,5.36194332 47.2882353,5.36194332 C40.9047,5.36194332 37.8051215,9.64835906 37.8051215,15.702834 C37.8523404,21.3593345 40.4876004,26.0437247 47.1493895,26.0437247 C51.3125157,26.0437247 54.8275075,24.1886589 56.3070306,20.3426468 L56.6313789,20.3426468 L56.8624139,19.6369269 L52.9325711,19.6369269 C52.2372177,19.6369269 51.7757099,19.769585 51.4507994,20.0349013 C50.3872517,20.9613601 49.8774008,21.8459268 47.7047728,21.8459268 C44.6057564,21.8024235 43.4500195,19.6820414 43.3572682,17.0304897 L57.0012597,17.0304897 C57.0467922,16.8978315 57.0934489,16.7200588 57.0934489,15.6147533 L57.0934489,15.6147533 Z M43.6799302,14.289246 C43.264517,12.8305434 43.3572682,11.5480023 43.910403,10.4894225 C44.512443,9.47166055 45.4382692,8.7654036 46.6861953,8.36689208 C48.1207481,7.97052886 49.3220175,8.0151063 50.3400328,8.58763094 C51.3125157,9.0736861 52.0994961,10.0909109 52.6987255,11.5480023 L43.6799302,14.289246 Z" id="Fill-6" fill="#FEFEFE"></path>
                        <path d="M74.8838023,10.5653735 L70.6625027,10.6564227 L71.2979316,11.8204339 L69.9834984,11.8656859 C68.9840218,9.53275651 67.6684855,8.32349329 65.7164171,8.32349329 C62.9479992,8.32349329 60.7703315,10.2066291 60.7703315,12.7636374 C60.7703315,13.3028445 60.8607919,13.9309199 61.0858396,14.5589953 L62.3572489,14.2002509 C61.9948559,17.4731125 62.5392728,21.8712759 66.7147906,21.8712759 C69.9834984,21.8712759 69.3469664,19.673012 71.7524397,19.6272148 L75.6102431,19.5383465 L75.4293224,20.0317565 L74.6118696,20.0770084 C73.2963333,23.9784907 70.1649707,26.0437247 65.8526592,26.0437247 C60.3158234,26.0437247 57.0934489,22.1389712 57.0934489,15.5899767 C57.0934489,9.03934658 60.6340894,5.36194332 66.4423063,5.36194332 C70.4363518,5.36194332 73.5224842,7.29087627 74.8838023,10.5653735" id="Fill-8" fill="#FEFEFE"></path>
                        <path d="M5.40073165,32.1182037 L5.91393237,32.1182037 L5.91393237,30.4775084 L5.9205189,30.4775084 L6.53196874,32.1182037 L6.95460463,32.1182037 L7.56605447,30.4620883 L7.57318988,30.4620883 L7.57318988,32.1182037 L8.08693948,32.1182037 L8.08693948,29.7825773 L7.31466845,29.7825773 L6.76304628,31.3878064 L6.755362,31.3878064 L6.17190492,29.7825773 L5.40073165,29.7825773 L5.40073165,32.1182037 Z M8.56830528,32.1182037 L9.11718306,32.1182037 L9.11718306,29.7825773 L8.56830528,29.7825773 L8.56830528,32.1182037 Z M9.59745111,32.1182037 L10.1117496,32.1182037 L10.1117496,30.5540947 L10.1183361,30.5540947 L11.156264,32.1182037 L11.704044,32.1182037 L11.704044,29.7825773 L11.1908433,29.7825773 L11.1908433,31.3497703 L11.1842568,31.3497703 L10.1435845,29.7825773 L9.59745111,29.7825773 L9.59745111,32.1182037 Z M12.1865076,32.1182037 L12.7359342,32.1182037 L12.7359342,29.7825773 L12.1865076,29.7825773 L12.1865076,32.1182037 Z M13.060321,31.3420602 C13.0520878,31.9192848 13.5691307,32.1716599 14.1218506,32.1716599 C14.7991658,32.1716599 15.1586807,31.8519505 15.1586807,31.4248146 C15.1586807,30.8938502 14.5999231,30.7869378 14.4171468,30.7437616 C13.7930728,30.5921309 13.6745152,30.5710568 13.6745152,30.390128 C13.6745152,30.1942931 13.8770511,30.1254168 14.0515942,30.1254168 C14.3134089,30.1254168 14.5263735,30.1973771 14.5450354,30.4775084 L15.0752513,30.4775084 C15.0752513,29.938834 14.5966299,29.7260371 14.0757449,29.7260371 C13.6256651,29.7260371 13.1442993,29.9552821 13.1442993,30.4333042 C13.1442993,30.8707201 13.5169873,31.0053887 13.8869309,31.0973951 C14.2530324,31.1873455 14.6284648,31.2305217 14.6284648,31.4828969 C14.6284648,31.7203659 14.3342663,31.7738222 14.1432568,31.7738222 C13.8490584,31.7738222 13.5905369,31.6530316 13.5905369,31.3420602 L13.060321,31.3420602 Z M16.0363363,32.1182037 L16.5830185,32.1182037 L16.5830185,30.2122832 L17.3316878,30.2122832 L17.3316878,29.7825773 L15.2882159,29.7825773 L15.2882159,30.2122832 L16.0363363,30.2122832 L16.0363363,32.1182037 Z M17.6176531,32.1182037 L19.5101837,32.1182037 L19.5101837,31.6864418 L18.1665309,31.6864418 L18.1665309,31.1128152 L19.3746109,31.1128152 L19.3746109,30.7144634 L18.1665309,30.7144634 L18.1665309,30.2122832 L19.4816421,30.2122832 L19.4816421,29.7825773 L17.6176531,29.7825773 L17.6176531,32.1182037 Z M19.8806762,32.1182037 L20.429554,32.1182037 L20.429554,31.2058496 L20.9778829,31.2058496 C21.2545173,31.2058496 21.354413,31.3132761 21.3933834,31.5579412 C21.421925,31.744524 21.4153385,31.969657 21.4806549,32.1182037 L22.0289838,32.1182037 C21.9307347,31.9881611 21.9362235,31.7111139 21.9235993,31.5641092 C21.907133,31.3286962 21.8302901,31.0850591 21.5607911,31.0192668 L21.5607911,31.0130988 C21.8368766,30.9077283 21.9554342,30.7010994 21.9554342,30.4271362 C21.9554342,30.0735026 21.6727621,29.7825773 21.2259756,29.7825773 L19.8806762,29.7825773 L19.8806762,32.1182037 Z M20.429554,30.1819571 L21.0305751,30.1819571 C21.2748258,30.1819571 21.4071053,30.2785895 21.4071053,30.5047505 C21.4071053,30.7391356 21.2748258,30.838852 21.0305751,30.838852 L20.429554,30.838852 L20.429554,30.1819571 Z M22.4022207,32.1182037 L22.9516474,32.1182037 L22.9516474,29.7825773 L22.4022207,29.7825773 L22.4022207,32.1182037 Z M23.3248842,30.9596425 C23.3248842,31.6329855 23.7782573,32.1716599 24.5516261,32.1716599 C25.3233482,32.1716599 25.7767213,31.6329855 25.7767213,30.9596425 C25.7767213,30.2662535 25.3233482,29.7260371 24.5516261,29.7260371 C23.7782573,29.7260371 23.3248842,30.2662535 23.3248842,30.9596425 L23.3248842,30.9596425 Z M23.873762,30.9596425 C23.873762,30.5510107 24.058185,30.159341 24.5516261,30.159341 C25.0434206,30.159341 25.2272946,30.5510107 25.2272946,30.9596425 C25.2272946,31.3497703 25.0434206,31.74144 24.5516261,31.74144 C24.058185,31.74144 23.873762,31.3497703 23.873762,30.9596425 L23.873762,30.9596425 Z M27.1225696,32.1182037 L28.1967234,32.1182037 C28.9580168,32.1182037 29.3296071,31.6144814 29.3296071,30.9365124 C29.3296071,30.161911 28.8427525,29.7825773 28.1967234,29.7825773 L27.1225696,29.7825773 L27.1225696,32.1182037 Z M27.6692518,30.2122832 L28.0611506,30.2122832 C28.6067351,30.2122832 28.7807293,30.5140026 28.7807293,30.9853426 C28.7807293,31.5029429 28.4755533,31.6864418 28.1583019,31.6864418 L27.6692518,31.6864418 L27.6692518,30.2122832 Z M29.7099794,32.1182037 L31.60251,32.1182037 L31.60251,31.6864418 L30.2588572,31.6864418 L30.2588572,31.1128152 L31.4669371,31.1128152 L31.4669371,30.7144634 L30.2588572,30.7144634 L30.2588572,30.2122832 L31.5739683,30.2122832 L31.5739683,29.7825773 L29.7099794,29.7825773 L29.7099794,32.1182037 Z M32.9434184,32.1182037 L34.8375956,32.1182037 L34.8375956,31.6864418 L33.4917473,31.6864418 L33.4917473,31.1128152 L34.7003761,31.1128152 L34.7003761,30.7144634 L33.4917473,30.7144634 L33.4917473,30.2122832 L34.8096028,30.2122832 L34.8096028,29.7825773 L32.9434184,29.7825773 L32.9434184,32.1182037 Z M35.2069903,32.1182037 L36.2833396,32.1182037 C37.0446331,32.1182037 37.4151256,31.6144814 37.4151256,30.9365124 C37.4151256,30.161911 36.9299176,29.7825773 36.2833396,29.7825773 L35.2069903,29.7825773 L35.2069903,32.1182037 Z M35.7547703,30.2122832 L36.1461202,30.2122832 C36.6922536,30.2122832 36.8662478,30.5140026 36.8662478,30.9853426 C36.8662478,31.5029429 36.5627184,31.6864418 36.2449182,31.6864418 L35.7547703,31.6864418 L35.7547703,30.2122832 Z M39.9119706,29.7825773 L39.3636417,29.7825773 L39.3636417,31.2351478 C39.3636417,31.5810713 39.2373998,31.74144 38.8465988,31.74144 C38.4025567,31.74144 38.333947,31.4890649 38.333947,31.2351478 L38.333947,29.7825773 L37.7845203,29.7825773 L37.7845203,31.2351478 C37.7845203,31.8683986 38.1769679,32.1716599 38.8465988,32.1716599 C39.5134853,32.1716599 39.9119706,31.8658286 39.9119706,31.2351478 L39.9119706,29.7825773 Z M42.5767722,30.5674588 C42.5114557,30.0272424 42.0498495,29.7260371 41.5004229,29.7260371 C40.7287007,29.7260371 40.2753277,30.2662535 40.2753277,30.9596425 C40.2753277,31.6329855 40.7287007,32.1716599 41.5004229,32.1716599 C42.1124216,32.1716599 42.541644,31.8015783 42.5981784,31.2181857 L42.0674136,31.2181857 C42.0256989,31.524017 41.8368849,31.74144 41.5004229,31.74144 C41.0086284,31.74144 40.8247543,31.3497703 40.8247543,30.9596425 C40.8247543,30.5510107 41.0086284,30.159341 41.5004229,30.159341 C41.773764,30.159341 42.0114281,30.3351298 42.0465562,30.5674588 L42.5767722,30.5674588 Z M42.7052096,32.1182037 L43.2606739,32.1182037 L43.4566233,31.5980334 L44.3891666,31.5980334 L44.5779805,32.1182037 L45.1477157,32.1182037 L44.2151723,29.7825773 L43.6525726,29.7825773 L42.7052096,32.1182037 Z M43.9253649,30.3582599 L43.9325003,30.3582599 L44.2470072,31.2151017 L43.6009781,31.2151017 L43.9253649,30.3582599 Z M47.557838,30.5674588 C47.4925215,30.0272424 47.0309153,29.7260371 46.4814887,29.7260371 C45.7097665,29.7260371 45.2563935,30.2662535 45.2563935,30.9596425 C45.2563935,31.6329855 45.7097665,32.1716599 46.4814887,32.1716599 C47.0929385,32.1716599 47.5227098,31.8015783 47.5786953,31.2181857 L47.0484794,31.2181857 C47.0051181,31.524017 46.816853,31.74144 46.4814887,31.74144 C45.9891453,31.74144 45.8047224,31.3497703 45.8047224,30.9596425 C45.8047224,30.5510107 45.9891453,30.159341 46.4814887,30.159341 C46.7542809,30.159341 46.9908472,30.3351298 47.0265243,30.5674588 L47.557838,30.5674588 Z M47.9519322,32.1182037 L48.5013589,32.1182037 L48.5013589,29.7825773 L47.9519322,29.7825773 L47.9519322,32.1182037 Z M48.8740469,30.9596425 C48.8740469,31.6329855 49.3279688,32.1716599 50.1002398,32.1716599 C50.8730597,32.1716599 51.3264328,31.6329855 51.3264328,30.9596425 C51.3264328,30.2662535 50.8730597,29.7260371 50.1002398,29.7260371 C49.3279688,29.7260371 48.8740469,30.2662535 48.8740469,30.9596425 L48.8740469,30.9596425 Z M49.4229247,30.9596425 C49.4229247,30.5510107 49.6067987,30.159341 50.1002398,30.159341 C50.5931321,30.159341 50.7770061,30.5510107 50.7770061,30.9596425 C50.7770061,31.3497703 50.5931321,31.74144 50.1002398,31.74144 C49.6067987,31.74144 49.4229247,31.3497703 49.4229247,30.9596425 L49.4229247,30.9596425 Z M50.7215695,29.1076923 L50.1732406,29.1076923 L49.8384251,29.5728644 L50.184767,29.5728644 L50.7215695,29.1076923 Z M51.6991208,32.1182037 L52.2134193,32.1182037 L52.2134193,30.5540947 L52.2194569,30.5540947 L53.2573848,32.1182037 L53.8068114,32.1182037 L53.8068114,29.7825773 L53.292513,29.7825773 L53.292513,31.3497703 L53.2859264,31.3497703 L52.2452542,29.7825773 L51.6991208,29.7825773 L51.6991208,32.1182037 Z M55.9051712,32.1182037 L56.4545978,32.1182037 L56.4545978,31.2212697 L57.3794569,29.7825773 L56.7674582,29.7825773 L56.1878432,30.7041834 L55.6054839,29.7825773 L54.9868987,29.7825773 L55.9051712,31.2089336 L55.9051712,32.1182037 Z M60.7534086,30.5674588 C60.6869943,30.0272424 60.2264859,29.7260371 59.6776081,29.7260371 C58.905886,29.7260371 58.4508663,30.2662535 58.4508663,30.9596425 C58.4508663,31.6329855 58.905886,32.1716599 59.6776081,32.1716599 C60.2885091,32.1716599 60.7188293,31.8015783 60.7742659,31.2181857 L60.2429522,31.2181857 C60.2012375,31.524017 60.0124236,31.74144 59.6776081,31.74144 C59.1852648,31.74144 58.9997441,31.3497703 58.9997441,30.9596425 C58.9997441,30.5510107 59.1852648,30.159341 59.6776081,30.159341 C59.9504004,30.159341 60.1880644,30.3351298 60.221546,30.5674588 L60.7534086,30.5674588 Z M63.2639755,29.7825773 L62.7150977,29.7825773 L62.7150977,31.2351478 C62.7150977,31.5810713 62.5899536,31.74144 62.2002504,31.74144 C61.7562082,31.74144 61.6859519,31.4890649 61.6859519,31.2351478 L61.6859519,29.7825773 L61.1365252,29.7825773 L61.1365252,31.2351478 C61.1365252,31.8683986 61.528424,32.1716599 62.2002504,32.1716599 C62.8660391,32.1716599 63.2639755,31.8658286 63.2639755,31.2351478 L63.2639755,29.7825773 Z M63.7365593,32.1182037 L65.5001035,32.1182037 L65.5001035,31.6864418 L64.2848882,31.6864418 L64.2848882,29.7825773 L63.7365593,29.7825773 L63.7365593,32.1182037 Z M65.9721384,32.1182037 L66.5193696,32.1182037 L66.5193696,30.2122832 L67.26749,30.2122832 L67.26749,29.7825773 L65.224018,29.7825773 L65.224018,30.2122832 L65.9721384,30.2122832 L65.9721384,32.1182037 Z M69.6710258,29.7825773 L69.1215991,29.7825773 L69.1215991,31.2351478 C69.1215991,31.5810713 68.9970038,31.74144 68.6045562,31.74144 C68.1616119,31.74144 68.0913555,31.4890649 68.0913555,31.2351478 L68.0913555,29.7825773 L67.5435755,29.7825773 L67.5435755,31.2351478 C67.5435755,31.8683986 67.9338276,32.1716599 68.6045562,32.1716599 C69.2719916,32.1716599 69.6710258,31.8658286 69.6710258,31.2351478 L69.6710258,29.7825773 Z M70.1408651,32.1182037 L70.6902918,32.1182037 L70.6902918,31.2058496 L71.2391696,31.2058496 C71.5136084,31.2058496 71.6162486,31.3132761 71.65467,31.5579412 C71.6826628,31.744524 71.6744296,31.969657 71.7408438,32.1182037 L72.2902705,32.1182037 C72.1914725,31.9881611 72.1942169,31.7111139 72.184886,31.5641092 C72.1678707,31.3286962 72.0910279,31.0850591 71.8220777,31.0192668 L71.8220777,31.0130988 C72.0976144,30.9077283 72.2167209,30.7010994 72.2167209,30.4271362 C72.2167209,30.0735026 71.9340488,29.7825773 71.4867134,29.7825773 L70.1408651,29.7825773 L70.1408651,32.1182037 Z M70.6902918,30.1819571 L71.2907641,30.1819571 C71.5350147,30.1819571 71.6672942,30.2785895 71.6672942,30.5047505 C71.6672942,30.7391356 71.5350147,30.838852 71.2907641,30.838852 L70.6902918,30.838852 L70.6902918,30.1819571 Z M72.3973017,32.1182037 L72.952766,32.1182037 L73.1492642,31.5980334 L74.0807098,31.5980334 L74.2700726,32.1182037 L74.83871,32.1182037 L73.9067155,29.7825773 L73.3446647,29.7825773 L72.3973017,32.1182037 Z M73.6174569,30.3582599 L73.6234946,30.3582599 L73.9385504,31.2151017 L73.2925213,31.2151017 L73.6174569,30.3582599 Z" id="Fill-10" fill="#FEFEFE"></path>
                        <path d="M13.1160626,38.2306834 L14.3095123,38.2306834 C15.1538465,38.2306834 15.5642487,37.5994748 15.5642487,36.7511073 C15.5642487,35.7799726 15.0247066,35.3039602 14.3095123,35.3039602 L13.1160626,35.3039602 L13.1160626,38.2306834 Z M13.7234579,35.8477261 L14.1573899,35.8477261 C14.761502,35.8477261 14.9546646,36.2235559 14.9546646,36.8130699 C14.9546646,37.4616512 14.6181348,37.6909711 14.2651889,37.6909711 L13.7234579,37.6909711 L13.7234579,35.8477261 Z M15.9429132,38.2306834 L16.4912106,38.2306834 L16.4912106,36.1112123 L15.9429132,36.1112123 L15.9429132,38.2306834 Z M15.9429132,35.7834471 L16.4912106,35.7834471 L16.4912106,35.3039602 L15.9429132,35.3039602 L15.9429132,35.7834471 Z M16.9256898,38.2306834 L17.476176,38.2306834 L17.476176,37.2751841 C17.476176,36.902829 17.6146183,36.595911 18.0179069,36.595911 C18.0835713,36.595911 18.1651046,36.6040183 18.2149,36.6161792 L18.2149,36.0747296 C18.1804262,36.0648851 18.1333668,36.0544614 18.0956098,36.0544614 C17.8280275,36.0544614 17.5560676,36.2386122 17.4559295,36.506152 L17.449363,36.506152 L17.449363,36.1112123 L16.9256898,36.1112123 L16.9256898,38.2306834 Z M20.2592504,37.3134041 C20.2975546,36.6613482 19.9692328,36.0544614 19.2879651,36.0544614 C18.678381,36.0544614 18.2657899,36.5391602 18.2657899,37.1732642 C18.2657899,37.8305319 18.6559456,38.2880133 19.2879651,38.2880133 C19.7399548,38.2880133 20.0682765,38.074908 20.2242294,37.5757321 L19.7399548,37.5757321 C19.7049338,37.7066065 19.5287344,37.8496419 19.30657,37.8496419 C19.0012307,37.8496419 18.8310506,37.6822847 18.8157289,37.3134041 L20.2592504,37.3134041 Z M18.8157289,36.9427862 C18.8228425,36.7806409 18.9240751,36.4922538 19.2710018,36.4922538 C19.5396785,36.4922538 19.6606103,36.6480292 19.7104058,36.9427862 L18.8157289,36.9427862 Z M22.4847249,36.858239 C22.449704,36.3167894 22.0174136,36.0544614 21.5457246,36.0544614 C20.8951003,36.0544614 20.522455,36.5420556 20.522455,37.2027978 C20.522455,37.837481 20.9295741,38.2880133 21.5342334,38.2880133 C22.0595482,38.2880133 22.4278158,37.9805163 22.4962162,37.4199567 L21.9659765,37.4199567 C21.9325971,37.6764938 21.7843051,37.8496419 21.5282141,37.8496419 C21.1856651,37.8496419 21.0712996,37.485394 21.0712996,37.1819506 C21.0712996,36.8715581 21.1884011,36.4922538 21.5407998,36.4922538 C21.7689834,36.4922538 21.9123506,36.6202328 21.9473716,36.858239 L22.4847249,36.858239 Z M24.7080107,36.858239 C24.6724425,36.3167894 24.2401521,36.0544614 23.7668215,36.0544614 C23.1172916,36.0544614 22.7451936,36.5420556 22.7451936,37.2027978 C22.7451936,37.837481 23.150671,38.2880133 23.7542359,38.2880133 C24.2822868,38.2880133 24.6489128,37.9805163 24.7189547,37.4199567 L24.1887151,37.4199567 C24.1536941,37.6764938 24.0064965,37.8496419 23.7514999,37.8496419 C23.4073092,37.8496419 23.2940382,37.485394 23.2940382,37.1819506 C23.2940382,36.8715581 23.4111396,36.4922538 23.7629911,36.4922538 C23.991722,36.4922538 24.134542,36.6202328 24.1701102,36.858239 L24.7080107,36.858239 Z M25.0445405,38.2306834 L25.5928379,38.2306834 L25.5928379,36.1112123 L25.0445405,36.1112123 L25.0445405,38.2306834 Z M25.0461821,35.7834471 L25.5944795,35.7834471 L25.5944795,35.3039602 L25.0461821,35.3039602 L25.0461821,35.7834471 Z M25.9654832,37.1732642 C25.9654832,37.8461673 26.3726022,38.2880133 26.9996968,38.2880133 C27.6306219,38.2880133 28.0382881,37.8461673 28.0382881,37.1732642 C28.0382881,36.4957284 27.6306219,36.0544614 26.9996968,36.0544614 C26.3726022,36.0544614 25.9654832,36.4957284 25.9654832,37.1732642 L25.9654832,37.1732642 Z M26.5159694,37.1732642 C26.5159694,36.8339172 26.6275988,36.4922538 26.9996968,36.4922538 C27.3756253,36.4922538 27.4878019,36.8339172 27.4878019,37.1732642 C27.4878019,37.5097158 27.3756253,37.8496419 26.9996968,37.8496419 C26.6275988,37.8496419 26.5159694,37.5097158 26.5159694,37.1732642 L26.5159694,37.1732642 Z M27.6891726,35.2680566 L27.08123,35.2680566 L26.709132,35.8512007 L27.0927213,35.8512007 L27.6891726,35.2680566 Z M28.3934228,38.2306834 L28.943909,38.2306834 L28.943909,37.1199879 C28.943909,36.6903028 29.0703129,36.5148384 29.3696329,36.5148384 C29.6240823,36.5148384 29.7209373,36.6850909 29.7209373,37.0342825 L29.7209373,38.2306834 L30.2719707,38.2306834 L30.2719707,36.9265717 C30.2719707,36.4030739 30.1236787,36.0544614 29.5398131,36.0544614 C29.3072518,36.0544614 29.0670297,36.1697004 28.9269457,36.4065484 L28.9170961,36.4065484 L28.9170961,36.1112123 L28.3934228,36.1112123 L28.3934228,38.2306834 Z M31.8238384,38.2306834 L32.3923823,38.2306834 L32.3923823,36.2716204 L32.4011375,36.2716204 L33.5502638,38.2306834 L34.1582063,38.2306834 L34.1582063,35.3039602 L33.588568,35.3039602 L33.588568,37.268235 L33.5820016,37.268235 L32.4279505,35.3039602 L31.8238384,35.3039602 L31.8238384,38.2306834 Z M35.8813485,37.4112704 C35.8813485,37.5392494 35.866574,37.8977064 35.4353781,37.8977064 C35.2569899,37.8977064 35.0993954,37.8461673 35.0993954,37.6284293 C35.0993954,37.4147449 35.2537067,37.3527822 35.4238868,37.3186159 C35.5946141,37.2838705 35.7888712,37.2803959 35.8813485,37.1941115 L35.8813485,37.4112704 Z M35.1612294,36.7632682 C35.1809287,36.5339483 35.3160878,36.4441893 35.5245722,36.4441893 C35.718282,36.4441893 35.8813485,36.4800929 35.8813485,36.7325764 C35.8813485,36.9682662 35.5678012,36.9561053 35.2307242,37.0093816 C34.8903639,37.0580252 34.5500036,37.1732642 34.5500036,37.6527511 C34.5500036,38.0870689 34.8526069,38.2880133 35.2307242,38.2880133 C35.4747767,38.2880133 35.7297733,38.2185225 35.9048782,38.0256854 C35.9081615,38.0945971 35.9229359,38.1652462 35.9431825,38.2306834 L36.5002351,38.2306834 C36.4509868,38.1438198 36.4301931,37.9509827 36.4301931,37.7598828 L36.4301931,36.6578737 C36.4301931,36.1488532 35.9513905,36.0544614 35.5530267,36.0544614 C35.1021315,36.0544614 34.6419337,36.2200813 34.6118376,36.7632682 L35.1612294,36.7632682 Z M38.7579946,36.858239 C38.7229736,36.3167894 38.2895889,36.0544614 37.8168055,36.0544614 C37.1661811,36.0544614 36.7940831,36.5420556 36.7940831,37.2027978 C36.7940831,37.837481 37.2012021,38.2880133 37.8058614,38.2880133 C38.3328179,38.2880133 38.6994439,37.9805163 38.7694859,37.4199567 L38.2392462,37.4199567 C38.2042252,37.6764938 38.0570276,37.8496419 37.8025782,37.8496419 C37.4567459,37.8496419 37.3445693,37.485394 37.3445693,37.1819506 C37.3445693,36.8715581 37.4616707,36.4922538 37.8140695,36.4922538 C38.0417059,36.4922538 38.1861675,36.6202328 38.2195469,36.858239 L38.7579946,36.858239 Z M39.0950717,38.2306834 L39.6444635,38.2306834 L39.6444635,36.1112123 L39.0950717,36.1112123 L39.0950717,38.2306834 Z M39.0950717,35.7834471 L39.6444635,35.7834471 L39.6444635,35.3039602 L39.0950717,35.3039602 L39.0950717,35.7834471 Z M40.0160143,37.1732642 C40.0160143,37.8461673 40.4231333,38.2880133 41.0507751,38.2880133 C41.681153,38.2880133 42.0866304,37.8461673 42.0866304,37.1732642 C42.0866304,36.4957284 41.681153,36.0544614 41.0507751,36.0544614 C40.4231333,36.0544614 40.0160143,36.4957284 40.0160143,37.1732642 L40.0160143,37.1732642 Z M40.5665005,37.1732642 C40.5665005,36.8339172 40.6786771,36.4922538 41.0507751,36.4922538 C41.4261564,36.4922538 41.5377858,36.8339172 41.5377858,37.1732642 C41.5377858,37.5097158 41.4261564,37.8496419 41.0507751,37.8496419 C40.6786771,37.8496419 40.5665005,37.5097158 40.5665005,37.1732642 L40.5665005,37.1732642 Z M42.443954,38.2306834 L42.9927986,38.2306834 L42.9927986,37.1199879 C42.9927986,36.6903028 43.1213913,36.5148384 43.4196169,36.5148384 C43.6757079,36.5148384 43.7714684,36.6850909 43.7714684,37.0342825 L43.7714684,38.2306834 L44.3208602,38.2306834 L44.3208602,36.9265717 C44.3208602,36.4030739 44.1742098,36.0544614 43.589797,36.0544614 C43.3577829,36.0544614 43.1175608,36.1697004 42.9774769,36.4065484 L42.9659856,36.4065484 L42.9659856,36.1112123 L42.443954,36.1112123 L42.443954,38.2306834 Z M45.9859989,37.4112704 C45.9859989,37.5392494 45.9712244,37.8977064 45.5405757,37.8977064 C45.3638291,37.8977064 45.2034986,37.8461673 45.2034986,37.6284293 C45.2034986,37.4147449 45.3583571,37.3527822 45.5290844,37.3186159 C45.6992645,37.2838705 45.8924272,37.2803959 45.9859989,37.1941115 L45.9859989,37.4112704 Z M45.2647854,36.7632682 C45.2855791,36.5339483 45.4207382,36.4441893 45.6308642,36.4441893 C45.8240268,36.4441893 45.9859989,36.4800929 45.9859989,36.7325764 C45.9859989,36.9682662 45.6724516,36.9561053 45.3353745,37.0093816 C44.9944671,37.0580252 44.6552012,37.1732642 44.6552012,37.6527511 C44.6552012,38.0870689 44.9567101,38.2880133 45.3353745,38.2880133 C45.5788799,38.2880133 45.8360653,38.2185225 46.0095286,38.0256854 C46.0133591,38.0945971 46.0292279,38.1652462 46.0478328,38.2306834 L46.6054327,38.2306834 C46.5545428,38.1438198 46.5370323,37.9509827 46.5370323,37.7598828 L46.5370323,36.6578737 C46.5370323,36.1488532 46.0560409,36.0544614 45.6576771,36.0544614 C45.2089707,36.0544614 44.7476785,36.2200813 44.7159408,36.7632682 L45.2647854,36.7632682 Z M46.9769835,38.2306834 L47.5274697,38.2306834 L47.5274697,35.3039602 L46.9769835,35.3039602 L46.9769835,38.2306834 Z M50.466497,38.2306834 L50.9885286,38.2306834 L50.9885286,35.3039602 L50.4391368,35.3039602 L50.4391368,36.3712239 L50.4309288,36.3712239 C50.3072609,36.1615932 50.0741524,36.0544614 49.8388551,36.0544614 C49.2500647,36.0544614 48.9507447,36.5837501 48.9507447,37.1524169 C48.9507447,37.7390356 49.2462343,38.2880133 49.8503464,38.2880133 C50.105343,38.2880133 50.3313378,38.1889889 50.4582889,37.959669 L50.466497,37.959669 L50.466497,38.2306834 Z M50.4582889,37.1668942 C50.4582889,37.5131903 50.3493955,37.8496419 49.9855055,37.8496419 C49.6451453,37.8496419 49.5017781,37.5016085 49.5017781,37.1703687 C49.5017781,36.8217563 49.625446,36.4922538 49.9855055,36.4922538 C50.3422819,36.4922538 50.4582889,36.8217563 50.4582889,37.1668942 L50.4582889,37.1668942 Z M53.2988196,37.3134041 C53.3398599,36.6613482 53.0088021,36.0544614 52.3275343,36.0544614 C51.7212334,36.0544614 51.304812,36.5391602 51.304812,37.1732642 C51.304812,37.8305319 51.6971565,38.2880133 52.3275343,38.2880133 C52.7800712,38.2880133 53.111129,38.074908 53.2637987,37.5757321 L52.7800712,37.5757321 C52.7450502,37.7066065 52.5683037,37.8496419 52.3466864,37.8496419 C52.0408,37.8496419 51.8706198,37.6822847 51.8563926,37.3134041 L53.2988196,37.3134041 Z M51.8563926,36.9427862 C51.862959,36.7806409 51.9647388,36.4922538 52.3133071,36.4922538 C52.5803421,36.4922538 52.7001796,36.6480292 52.7510695,36.9427862 L51.8563926,36.9427862 Z M57.1899801,36.2889931 C57.1166549,35.6108781 56.6066617,35.2356275 55.9992664,35.2356275 C55.1428937,35.2356275 54.6389198,35.9114261 54.6389198,36.7806409 C54.6389198,37.6255338 55.1428937,38.2995951 55.9992664,38.2995951 C56.6767037,38.2995951 57.1516759,37.8340064 57.2135098,37.1043524 L56.626361,37.1043524 C56.5798488,37.4894476 56.3697228,37.7598828 55.9992664,37.7598828 C55.4515162,37.7598828 55.2463151,37.268235 55.2463151,36.7806409 C55.2463151,36.2681458 55.4515162,35.7770771 55.9992664,35.7770771 C56.3013224,35.7770771 56.5623383,35.9977106 56.6028313,36.2889931 L57.1899801,36.2889931 Z M59.4477396,36.1112123 L58.8983478,36.1112123 L58.8983478,37.2219078 C58.8983478,37.6527511 58.7703023,37.8305319 58.4715295,37.8305319 C58.2165329,37.8305319 58.119678,37.6562256 58.119678,37.3081923 L58.119678,36.1112123 L57.5708334,36.1112123 L57.5708334,37.4147449 C57.5708334,37.9388218 57.7169366,38.2880133 58.3013494,38.2880133 C58.5333634,38.2880133 58.7735855,38.1739325 58.9136695,37.9359263 L58.9251608,37.9359263 L58.9251608,38.2306834 L59.4477396,38.2306834 L59.4477396,36.1112123 Z M59.8816716,38.2306834 L60.4310634,38.2306834 L60.4310634,35.3039602 L59.8816716,35.3039602 L59.8816716,38.2306834 Z M61.5615848,35.4782664 L61.0110986,35.4782664 L61.0110986,36.1112123 L60.6794936,36.1112123 L60.6794936,36.5009402 L61.0110986,36.5009402 L61.0110986,37.7511965 C61.0110986,38.1739325 61.3065882,38.2544261 61.6436652,38.2544261 C61.7525586,38.2544261 61.8718489,38.2515306 61.963779,38.2341579 L61.963779,37.7807301 C61.9074171,37.792891 61.8516024,37.7957864 61.794146,37.7957864 C61.608097,37.7957864 61.5615848,37.7459847 61.5615848,37.5508312 L61.5615848,36.5009402 L61.963779,36.5009402 L61.963779,36.1112123 L61.5615848,36.1112123 L61.5615848,35.4782664 Z M64.1044371,36.1112123 L63.5555925,36.1112123 L63.5555925,37.2219078 C63.5555925,37.6527511 63.427547,37.8305319 63.1298685,37.8305319 C62.8748719,37.8305319 62.778017,37.6562256 62.778017,37.3081923 L62.778017,36.1112123 L62.2269836,36.1112123 L62.2269836,37.4147449 C62.2269836,37.9388218 62.373634,38.2880133 62.9596884,38.2880133 C63.1917025,38.2880133 63.4324718,38.1739325 63.5703669,37.9359263 L63.5824054,37.9359263 L63.5824054,38.2306834 L64.1044371,38.2306834 L64.1044371,36.1112123 Z M64.5230473,38.2306834 L65.0735336,38.2306834 L65.0735336,37.2751841 C65.0735336,36.902829 65.2119759,36.595911 65.6147173,36.595911 C65.6814761,36.595911 65.7630093,36.6040183 65.8128048,36.6161792 L65.8128048,36.0747296 C65.7777838,36.0648851 65.7312715,36.0544614 65.6929673,36.0544614 C65.4259323,36.0544614 65.1539724,36.2386122 65.0543814,36.506152 L65.045079,36.506152 L65.045079,36.1112123 L64.5230473,36.1112123 L64.5230473,38.2306834 Z M67.2760256,37.4112704 C67.2760256,37.5392494 67.2617983,37.8977064 66.8311496,37.8977064 C66.6527614,37.8977064 66.4940725,37.8461673 66.4940725,37.6284293 C66.4940725,37.4147449 66.6483838,37.3527822 66.8191111,37.3186159 C66.9892912,37.2838705 67.1830011,37.2803959 67.2760256,37.1941115 L67.2760256,37.4112704 Z M66.5559064,36.7632682 C66.5750586,36.5339483 66.7102177,36.4441893 66.9192492,36.4441893 C67.1129591,36.4441893 67.2760256,36.4800929 67.2760256,36.7325764 C67.2760256,36.9682662 66.9624783,36.9561053 66.6259484,37.0093816 C66.285041,37.0580252 65.9446807,37.1732642 65.9446807,37.6527511 C65.9446807,38.0870689 66.247284,38.2880133 66.6259484,38.2880133 C66.8694538,38.2880133 67.1244504,38.2185225 67.2995553,38.0256854 C67.3028385,38.0945971 67.3181602,38.1652462 67.3378595,38.2306834 L67.8949122,38.2306834 C67.8456639,38.1438198 67.8248702,37.9509827 67.8248702,37.7598828 L67.8248702,36.6578737 C67.8248702,36.1488532 67.3460676,36.0544614 66.9477038,36.0544614 C66.4973557,36.0544614 66.0366108,36.2200813 66.0070619,36.7632682 L66.5559064,36.7632682 Z" id="Fill-12" fill="#FEFEFE"></path>
                    </g>
                </g>
            </g>
        </g>
    </g>
</svg>