<?xml version="1.0" encoding="UTF-8" standalone="no"?>
<svg width="144px" height="40px" viewBox="0 0 144 40" version="1.1" xmlns="http://www.w3.org/2000/svg" xmlns:xlink="http://www.w3.org/1999/xlink">
    <!-- Generator: Sketch 3.8.3 (29802) - http://www.bohemiancoding.com/sketch -->
    <title>Group 22 Copy 2</title>
    <desc>Created with Sketch.</desc>
    <defs></defs>
    <g id="Boostrap-3-Grid" stroke="none" stroke-width="1" fill="none" fill-rule="evenodd">
        <g id="MVDSoundCity-Site-v1-Copy-3" transform="translate(-1069.000000, -5046.000000)">
            <g id="Group-22" transform="translate(110.000000, 4991.000000)">
                <g id="Group-22-Copy-2" transform="translate(959.000000, 55.000000)">
                    <path d="M4.80640069,0 L34.8181037,0 C37.477113,0 39.6253819,2.14388557 39.6253819,4.79680159 L39.6253819,34.7095687 C39.6253819,37.3633608 37.477113,39.5072464 34.8181037,39.5072464 L4.80640069,39.5072464 C2.14826892,39.5072464 0,37.3633608 0,34.7095687 L0,4.79680159 C0,2.14388557 2.14826892,0 4.80640069,0" id="Fill-1" fill="#340604"></path>
                    <path d="M9.20694813,35.453356 C8.65483527,35.3528464 8.15189497,35.2470467 7.69812722,35.0945189 C6.09009854,34.6836635 5.48795046,33.9122077 5.43877791,33.1407518 L5.43877791,33.090497 C5.43877791,33.0393605 5.48795046,32.9891056 5.48795046,32.9891056 L8.85670154,10.5410626 C8.85670154,10.1813438 9.00594454,9.87276145 9.20694813,9.61619727 L9.20694813,17.9867138 L7.24781018,31.5502302 C7.1960496,31.9099491 6.89497556,32.9891056 7.7498878,33.090497 C8.05096184,33.1407518 8.70400782,33.2447881 8.80580363,32.7316598 L9.00594454,30.6756197 C9.05770512,30.4710737 9.10774035,30.3176642 9.20694813,30.1104732 L9.20694813,35.453356 Z M13.5807171,2.32395567 C14.2829357,2.32395567 14.8868091,2.98961187 14.8868091,3.7593044 C14.8868091,4.53076026 14.2829357,5.14704328 13.5807171,5.14704328 C12.8759106,5.14704328 12.3220724,4.53076026 12.3220724,3.7593044 C12.3220724,2.98961187 12.8759106,2.32395567 13.5807171,2.32395567 L13.5807171,2.32395567 Z M22.525808,19.7350531 C21.4207196,19.4264708 20.2638707,19.3241978 19.1096097,19.1699066 C18.8568456,19.1178885 18.6058068,19.2730613 18.5557715,19.5296255 C18.4548384,19.8373261 18.7058772,20.0427538 19.0078139,20.094772 C19.9127614,20.4024727 20.8177089,20.7092917 21.7226564,20.9667375 C22.0237304,21.0725372 22.2747692,21.2241834 22.525808,21.3802379 L22.525808,19.7350531 Z M22.525808,12.2365022 C22.4766355,12.184484 22.4257376,12.184484 22.3757023,12.1315842 L21.9736952,12.0813294 C21.2205787,11.8741384 20.6167053,12.1315842 20.6167053,12.8519036 L20.6167053,14.7016343 C20.6167053,15.4193087 21.2205787,16.1890012 21.9736952,16.3970739 L22.3757023,16.4455654 C22.4257376,16.4993469 22.4766355,16.4993469 22.525808,16.4993469 L22.525808,12.2365022 Z M22.525808,9.46278777 L17.1487464,8.43476773 C16.9477429,8.43476773 16.845947,8.38274956 16.6458061,8.43476773 C16.4948378,8.48502257 16.3447321,8.5379224 16.1946264,8.58817724 C15.7417213,8.84474142 15.3888867,9.40900627 15.3388515,9.97591612 L15.1887458,12.0301929 L13.9818616,28.4679335 C13.9818616,28.723616 14.0318969,29.0321983 14.1336927,29.2887625 C14.2329004,29.5964632 14.4856646,29.9024005 14.6357703,30.2136279 C15.0377775,30.779656 15.0377775,31.3430392 15.08695,32.6814049 C15.1378479,33.1407518 15.08695,33.604507 15.08695,33.9642258 C14.8868091,35.6587837 11.8717553,35.8633297 9.20694813,35.453356 L9.20694813,30.1104732 C9.40795171,29.751636 9.70902575,29.3927988 9.86085679,29.0833348 C9.96265259,28.9316886 10.0618604,28.723616 10.0618604,28.4159153 C10.4638675,22.9196229 11.2678819,17.1138666 11.2678819,11.670474 C11.2678819,10.9527997 10.2637266,10.6944721 10.1636562,11.4641647 L9.20694813,17.9867138 L9.20694813,9.61619727 C9.30874393,9.51216094 9.45798694,9.40900627 9.60981797,9.30761493 C10.3128992,8.84474142 10.5147654,8.5379224 10.7658043,7.86962121 C11.2678819,6.6361735 12.4238682,5.96963564 13.6807876,5.96963564 C14.1828652,5.96963564 14.6858055,6.12304515 15.08695,6.32847282 C16.0427954,6.68642834 16.9477429,6.78958301 17.9527608,6.74020983 C19.3097507,6.480119 20.766811,6.12304515 22.525808,6.43162749 L22.525808,9.46278777 Z M22.525808,16.4993469 C23.2297519,16.5504834 23.7326922,16.0876098 23.7326922,15.4193087 L23.7326922,13.8790419 C23.7326922,13.1604859 23.2297519,12.4410482 22.525808,12.2365022 L22.525808,16.4993469 Z M22.525808,21.3802379 C22.87778,21.6359204 23.1797167,21.9427394 23.330685,22.3033399 C23.5825865,22.7662134 23.5825865,23.2282053 23.6326217,23.6901971 C23.8836606,26.4647932 23.983731,29.1882528 24.0846641,31.9593223 C24.0846641,32.6285051 24.636777,33.1407518 25.3415836,33.1407518 C25.9937669,33.1407518 26.5484678,32.6285051 26.5484678,31.9593223 L26.5484678,31.7018764 L25.8945591,22.8173499 C25.793626,21.9427394 25.5926224,21.1236737 24.7877454,20.6590368 C24.4366361,20.4536092 24.0354916,20.2490632 23.6326217,20.094772 C23.2806498,19.9395992 22.9286779,19.8373261 22.525808,19.7350531 L22.525808,21.3802379 Z M29.3616553,6.38049099 L29.1106165,6.38049099 C28.5576409,6.53213717 28.205669,7.15018352 28.3575,7.76646654 C28.4567078,8.28135822 28.9104755,8.63931374 29.3616553,8.69221357 L29.3616553,6.38049099 Z M29.3616553,32.8850693 C29.3124827,32.7827963 29.3124827,32.6814049 29.3124827,32.5756053 L29.3124827,30.4181739 C29.3124827,29.8027725 29.3124827,29.7022628 29.3616553,29.4439353 L29.3616553,32.8850693 Z M27.552623,9.10306892 C28.205669,9.40900627 28.7577818,9.25559676 29.3616553,9.40900627 L29.3616553,20.7613098 L28.7577818,12.5953394 C28.6585741,11.4641647 28.2557042,10.5410626 26.9987848,10.2827351 L22.525808,9.46278777 L22.525808,6.43162749 C22.7768468,6.43162749 22.9795758,6.480119 23.1797167,6.53213717 C25.1906152,6.99589235 26.0446648,8.28135822 27.552623,9.10306892 L27.552623,9.10306892 Z M29.3616553,8.69221357 L29.3616553,6.38049099 C29.8145603,6.38049099 30.2666027,6.78958301 30.3666732,7.30359303 C30.5176416,7.92075771 30.167395,8.5379224 29.6126941,8.63931374 C29.511761,8.63931374 29.4617257,8.69221357 29.3616553,8.69221357 L29.3616553,8.69221357 Z M29.3616553,9.40900627 C29.4125532,9.40900627 29.4617257,9.40900627 29.511761,9.46278777 C29.8637329,9.56594243 30.3666732,9.82162495 30.5676768,10.5410626 C30.7186451,10.9527997 30.769543,11.7242555 30.8187156,12.5442029 C30.8187156,12.6967307 30.8696135,12.8519036 30.8696135,13.0044314 C31.5226595,17.7292679 31.7236631,23.0227776 32.8813747,27.6973593 C33.1815861,28.7756341 33.6845264,28.2633874 33.9347025,30.0108452 L34.186604,32.0122221 L34.186604,32.1144951 L34.186604,32.3199228 C34.0356356,34.3239447 29.9163562,34.118517 29.3616553,32.8850693 L29.3616553,29.4439353 C29.4617257,28.9810618 29.8637329,28.6724795 29.8637329,27.9027869 L29.3616553,20.7613098 L29.3616553,9.40900627 Z" id="Fill-3" fill="#FFFFFF"></path>
                    <path d="M70.7549761,8.52117079 L70.7549761,8.52117079 C69.6094843,8.52117079 68.6623164,8.94198052 67.9160371,9.73292182 C67.217629,10.5247681 66.8192714,11.8414953 66.8192714,13.5826521 C66.8192714,15.321999 67.217629,16.5871431 67.9160371,17.4314775 C68.6623164,18.2215138 69.6094843,18.5916454 70.7549761,18.5916454 L70.7549761,16.6396312 C70.2061658,16.6396312 69.8582441,16.4812619 69.5094675,16.1120353 C69.110255,15.6930355 68.9119311,14.8487012 68.9119311,13.5826521 C68.9119311,12.317508 69.110255,11.4722687 69.5094675,10.9998758 C69.8078082,10.6840423 70.2557468,10.5247681 70.7549761,10.5247681 L70.7549761,8.52117079 Z M73.5434792,9.73292182 C72.796345,8.94198052 71.9004679,8.52117079 70.7549761,8.52117079 L70.7549761,10.5247681 C71.2516408,10.5247681 71.6517081,10.6840423 71.9996298,10.9998758 C72.3475516,11.4722687 72.5475852,12.317508 72.5475852,13.5826521 C72.5475852,14.8487012 72.3475516,15.6930355 71.9996298,16.1120353 C71.7004342,16.3762857 71.3516576,16.5871431 70.9045739,16.5871431 L70.854138,16.5871431 L70.7549761,16.6396312 L70.7549761,18.5916454 C71.9483391,18.5916454 72.796345,18.2215138 73.5434792,17.4314775 C74.2410324,16.6396312 74.5889542,15.376297 74.5889542,13.5826521 C74.5889542,11.7365191 74.2410324,10.4704701 73.5434792,9.73292182 L73.5434792,9.73292182 Z" id="Fill-5" fill="#340604"></path>
                    <path d="M78.9632188,9.47562758 L78.9632188,8.62762593 L76.919859,8.62762593 L76.919859,18.5916454 L78.9632188,18.5916454 L78.9632188,12.5482688 C78.9632188,11.8604048 79.1677304,11.3326784 79.5276004,11.013313 C79.8312957,10.6957673 80.2420742,10.5356296 80.8047004,10.5356296 C81.3673265,10.5356296 81.7754718,10.6957673 82.082678,11.013313 C82.3890064,11.3836313 82.5943957,11.8604048 82.5943957,12.5482688 L82.5943957,18.5916454 L84.6895417,18.5916454 L84.6895417,12.2325428 C84.6895417,11.013313 84.3849687,10.0570364 83.7205257,9.42285495 C83.1052356,8.83962634 82.3389757,8.52117079 81.3155403,8.52117079 C80.3956773,8.52117079 79.6285396,8.83962634 78.9632188,9.47562758" id="Fill-7" fill="#340604"></path>
                    <path d="M63.5606933,4.64791134 L61.5434975,4.64791134 C61.5434975,4.64791134 58.1630273,12.0375077 57.9109861,12.4896502 C57.7074476,12.0375077 54.2256412,4.64791134 54.2256412,4.64791134 L52.0568743,4.64791134 L52.0568743,17.8169935 L54.2758763,17.8169935 L54.2758763,9.62493045 C54.6794886,10.480032 57.1020291,15.4561883 57.1020291,15.4561883 L58.7173447,15.4561883 C58.7173447,15.4561883 61.0879179,10.480032 61.4915302,9.62493045 L61.4915302,17.8169935 L63.7113984,17.8169935 L63.7113984,4.64791134 L63.5606933,4.64791134 Z" id="Fill-9" fill="#340604"></path>
                    <path d="M129.753702,8.52117079 C128.539636,8.52117079 127.569052,8.99627855 126.934502,9.89400597 C126.20573,10.7347205 125.86886,11.9998646 125.86886,13.5826521 L125.86886,14.1627361 L125.916389,14.689427 L126.013948,15.2161178 C126.109839,15.902083 126.302455,16.4812619 126.595965,16.9554647 L126.840279,17.2206201 C126.840279,17.2740132 127.032895,17.5364536 127.032895,17.5364536 C127.082925,17.5364536 127.130454,17.5889417 127.130454,17.5889417 L127.325571,17.747311 C127.325571,17.801609 127.421463,17.8540971 127.421463,17.8540971 L127.569052,17.9581683 L127.76,18.1183475 L127.859226,18.1183475 C127.907589,18.1699307 128.150235,18.2730969 128.150235,18.2730969 L128.247794,18.3282999 L128.586331,18.4332761 C128.63386,18.4332761 129.026597,18.5373473 129.026597,18.5373473 L129.461025,18.5916454 L129.560252,18.5916454 L129.753702,18.5916454 L129.753702,16.6921193 L129.606946,16.6396312 L129.461025,16.6396312 L129.315938,16.5871431 C128.929038,16.4812619 128.685558,16.2740245 128.443745,16.009774 C128.101873,15.5853444 127.907589,15.0052605 127.907589,14.2668073 L129.753702,14.2668073 L129.753702,12.6867346 L127.907589,12.6867346 C127.907589,12.1582338 128.00348,11.7908171 128.101873,11.5265667 C128.392881,10.7881135 128.929038,10.4197919 129.753702,10.4197919 L129.753702,8.52117079 Z M129.753702,18.5916454 L129.753702,18.5916454 L129.998015,18.5916454 C130.726788,18.5916454 131.404697,18.4866692 131.939185,18.2730969 C132.424478,18.0106564 132.9598,17.5889417 133.39673,17.0622509 L133.445093,16.9554647 L132.183499,15.6396425 L132.085107,15.7455236 C131.503923,16.3762857 130.821011,16.6921193 129.998015,16.6921193 L129.753702,16.6921193 L129.753702,18.5916454 Z M133.638543,13.2668186 C133.638543,11.8414953 133.300006,10.6840423 132.620429,9.83789801 C131.939185,8.99627855 130.9686,8.52117079 129.753702,8.52117079 L129.753702,10.4197919 C130.580033,10.4197919 131.065325,10.7347205 131.356334,11.5265667 C131.503923,11.8939834 131.59898,12.262305 131.59898,12.6867346 L129.753702,12.6867346 L129.753702,14.2668073 L133.638543,14.2668073 L133.638543,13.2668186 Z" id="Fill-11" fill="#340604"></path>
                    <path d="M119.65398,8.30331574 C119.60202,8.30331574 119.553525,8.30331574 119.452204,8.25260592 L119.147374,8.25260592 C118.190453,8.25260592 117.434442,8.55342688 116.828247,9.10435898 C116.122463,9.80570156 115.768273,11.1069671 115.768273,13.0597249 C115.768273,15.0133421 116.122463,16.2630383 116.828247,17.0150907 C117.381616,17.5668823 118.141091,17.8169935 119.147374,17.8169935 L119.65398,17.8169935 L119.65398,15.9630769 C118.94733,15.914086 118.442457,15.6639749 118.239815,15.1139023 C117.987811,14.7116617 117.88649,14.0120381 117.88649,13.0597249 C117.88649,12.0567018 117.987811,11.4060691 118.239815,10.9565566 C118.442457,10.4056245 118.94733,10.1555134 119.65398,10.1555134 L119.65398,8.30331574 Z M123.4375,4.64791134 L121.4691,4.64791134 L121.4691,9.15420931 C121.269922,8.95222953 121.069011,8.75454718 120.81441,8.60327721 C120.460219,8.45286673 120.058398,8.35316607 119.65398,8.30331574 L119.65398,10.1555134 L119.70594,10.1555134 C120.410857,10.1555134 120.864637,10.4056245 121.166868,10.9565566 C121.368645,11.4060691 121.4691,12.1091306 121.4691,13.0597249 C121.4691,13.9613282 121.368645,14.7116617 121.166868,15.1139023 C120.864637,15.6639749 120.410857,15.9630769 119.70594,15.9630769 L119.65398,15.9630769 L119.65398,17.8169935 C119.957943,17.7654242 120.207349,17.7172928 120.511312,17.5668823 L120.610901,17.5144535 C120.661995,17.5144535 120.864637,17.4164718 120.864637,17.4164718 L121.269922,17.1655012 C121.269922,17.1165104 121.368645,17.06666 121.4691,16.9660999 L121.4691,17.7654242 L123.537955,17.7654242 L123.537955,4.64791134 L123.4375,4.64791134 Z" id="Fill-13" fill="#340604"></path>
                    <path id="Fill-15" fill="#340604"></path>
                    <path d="M89.096398,6.19721512 L87.2417961,6.19721512 L87.2417961,9.03830716 L86.2434783,9.03830716 L86.2434783,10.7952633 L87.2417961,10.7952633 L87.2417961,15.8064001 C87.2417961,16.6316908 87.4311745,17.2522101 87.8613572,17.7140537 C88.2882748,18.2831586 88.9535479,18.5916454 89.7616711,18.5916454 L90.9052879,18.5916454 L90.9052879,16.6822188 L90.0498201,16.6822188 C89.4776036,16.6822188 89.1910872,16.3755049 89.1910872,15.7009118 L89.1910872,10.7952633 L90.9052879,10.7952633 L90.9052879,9.03830716 L89.1910872,9.03830716 L89.1910872,6.19721512 L89.096398,6.19721512 Z" id="Fill-17" fill="#340604"></path>
                    <polygon id="Fill-19" fill="#340604" points="113.322189 8.52117079 111.106463 8.52117079 111.106463 17.8169935 113.437368 17.8169935 113.437368 8.52117079"></polygon>
                    <polygon id="Fill-21" fill="#340604" points="113.282685 4.64791134 111.106463 4.64791134 111.106463 6.97186701 113.437368 6.97186701 113.437368 4.64791134"></polygon>
                    <path d="M110.131628,8.52117079 L108.094965,8.52117079 C108.094965,8.52117079 106.256168,13.9614893 106.057449,14.6040733 C105.857876,13.9614893 104.020785,8.52117079 104.020785,8.52117079 L101.782844,8.52117079 L105.211397,17.8169935 L106.902647,17.8169935 L110.329495,8.52117079 L110.131628,8.52117079 Z" id="Fill-23" fill="#340604"></path>
                    <path d="M139.855571,8.52117079 C138.70666,8.52117079 137.810783,8.94198052 137.017487,9.73292182 C136.319079,10.5247681 135.969448,11.8414953 135.969448,13.5826521 C135.969448,15.321999 136.319079,16.5871431 137.017487,17.4314775 C137.810783,18.2215138 138.70666,18.5916454 139.855571,18.5916454 L139.855571,16.6396312 C139.356342,16.5871431 138.95713,16.4269639 138.609208,16.1120353 C138.262141,15.6930355 138.062107,14.8487012 138.062107,13.5826521 C138.062107,12.262305 138.262141,11.4215905 138.609208,10.9998758 C138.908404,10.6840423 139.356342,10.5247681 139.855571,10.5247681 L139.855571,8.52117079 Z M142.64151,9.73292182 C141.947376,8.94198052 141.000208,8.52117079 139.855571,8.52117079 L139.855571,10.5247681 C140.352236,10.5247681 140.801884,10.6840423 141.10108,10.9998758 C141.449002,11.4722687 141.645616,12.317508 141.645616,13.5826521 C141.645616,14.7962131 141.449002,15.6930355 141.10108,16.1120353 C140.801884,16.4269639 140.352236,16.6396312 139.855571,16.6396312 L139.855571,18.5916454 C141.000208,18.5916454 141.947376,18.2215138 142.64151,17.4314775 C143.390354,16.6396312 143.73913,15.376297 143.73913,13.5826521 C143.73913,11.7365191 143.390354,10.4704701 142.64151,9.73292182 L142.64151,9.73292182 Z" id="Fill-25" fill="#340604"></path>
                    <path d="M96.3184883,8.52117079 L96.3184883,8.52117079 C95.1477946,8.52117079 94.1699803,8.99627855 93.4865165,9.89400597 C92.8022142,10.7347205 92.4592244,11.9473765 92.4592244,13.5826521 L92.4592244,14.1627361 L92.5095408,14.689427 L92.5573413,15.2161178 L92.653781,15.6396425 L92.8022142,16.0604522 L92.8022142,16.1645234 L92.9498088,16.4812619 L92.9976094,16.5871431 L93.094049,16.7989054 C93.1426882,16.8522985 93.1930045,16.9554647 93.1930045,16.9554647 L93.2894442,17.1156439 L93.7305508,17.6414298 C93.7783514,17.6414298 93.7783514,17.6957279 93.7783514,17.6957279 C94.4140146,18.2730969 95.2442343,18.5916454 96.3184883,18.5916454 L96.3184883,16.6921193 L96.1734095,16.6396312 L96.0266535,16.6396312 L95.8798975,16.5871431 C95.832097,16.5871431 95.5872241,16.4812619 95.5872241,16.4812619 C95.3423512,16.3237976 95.1477946,16.2197264 95.0002,16.009774 C94.6580488,15.6396425 94.5112928,15.0052605 94.4626537,14.2668073 L96.3184883,14.2668073 L96.3184883,12.6867346 L94.4626537,12.6867346 C94.4626537,12.2125318 94.5607706,11.7908171 94.6580488,11.5265667 C94.9490451,10.7881135 95.48743,10.4197919 96.3184883,10.4197919 L96.3184883,8.52117079 Z M96.3184883,18.5916454 L96.5641998,18.5916454 C97.3457804,18.5916454 97.9797664,18.4866692 98.5181513,18.2730969 C99.0070585,18.0106564 99.4976429,17.6414298 99.9823571,17.0622509 L100.082151,16.9554647 L98.7135465,15.6396425 L98.6665846,15.7455236 C98.0795605,16.3762857 97.393581,16.6921193 96.6120004,16.6921193 L96.3184883,16.6921193 L96.3184883,18.5916454 Z M100.228907,13.2668186 C100.228907,11.8939834 99.886756,10.7347205 99.2519314,9.83789801 C98.467835,8.94198052 97.5428528,8.52117079 96.3184883,8.52117079 L96.3184883,10.4197919 C97.1478695,10.4197919 97.687093,10.7881135 97.9797664,11.5265667 C98.0795605,11.7908171 98.1751616,12.2125318 98.2238007,12.6867346 L96.3184883,12.6867346 L96.3184883,14.2668073 L100.228907,14.2668073 L100.228907,13.2668186 Z" id="Fill-27" fill="#340604"></path>
                    <g id="Group-7" transform="translate(52.115942, 21.014493)" fill="#340604">
                        <path d="M9.68684058,4.56518841 C9.68684058,2.09052174 7.94684058,0.524521739 5.43350725,0.524521739 L0.310173913,0.524521739 L0.310173913,14.2898551 L1.77950725,14.2898551 L1.77950725,8.62518841 L5.43350725,8.62518841 C7.94684058,8.62518841 9.68684058,7.03985507 9.68684058,4.56518841 L9.68684058,4.56518841 Z M8.21750725,4.56518841 C8.21750725,6.38252174 7.01884058,7.31052174 5.29817391,7.31052174 L1.77950725,7.31052174 L1.77950725,1.83918841 L5.29817391,1.83918841 C7.01884058,1.83918841 8.21750725,2.74785507 8.21750725,4.56518841 L8.21750725,4.56518841 Z M18.8525217,9.53385507 C18.8525217,8.06452174 18.6591884,6.73052174 17.6925217,5.74452174 C17.0351884,5.08718841 16.1265217,4.66185507 14.9665217,4.66185507 C13.8065217,4.66185507 12.8978551,5.08718841 12.2405217,5.74452174 C11.2738551,6.73052174 11.0805217,8.06452174 11.0805217,9.53385507 C11.0805217,11.0031884 11.2738551,12.3371884 12.2405217,13.3231884 C12.8978551,13.9805217 13.8065217,14.4058551 14.9665217,14.4058551 C16.1265217,14.4058551 17.0351884,13.9805217 17.6925217,13.3231884 C18.6591884,12.3371884 18.8525217,11.0031884 18.8525217,9.53385507 L18.8525217,9.53385507 Z M17.4605217,9.53385507 C17.4605217,10.5971884 17.4025217,11.7765217 16.7065217,12.4725217 C16.2618551,12.9171884 15.6431884,13.1685217 14.9665217,13.1685217 C14.2898551,13.1685217 13.6905217,12.9171884 13.2458551,12.4725217 C12.5498551,11.7765217 12.4725217,10.5971884 12.4725217,9.53385507 C12.4725217,8.47052174 12.5498551,7.29118841 13.2458551,6.59518841 C13.6905217,6.15052174 14.2898551,5.89918841 14.9665217,5.89918841 C15.6431884,5.89918841 16.2618551,6.15052174 16.7065217,6.59518841 C17.4025217,7.29118841 17.4605217,8.47052174 17.4605217,9.53385507 L17.4605217,9.53385507 Z M27.7088695,5.55118841 C27.0322029,4.87452174 26.3362029,4.66185507 25.4275362,4.66185507 C24.3255362,4.66185507 23.2815362,5.14518841 22.7595362,5.93785507 L22.7595362,4.77785507 L21.3675362,4.77785507 L21.3675362,14.2898551 L22.7595362,14.2898551 L22.7595362,8.45118841 C22.7595362,7.00118841 23.6488695,5.89918841 25.0408695,5.89918841 C25.7755362,5.89918841 26.1622029,6.07318841 26.6842029,6.59518841 L27.7088695,5.55118841 Z M32.6985507,14.2898551 L32.6985507,13.0911884 L31.963884,13.0911884 C31.0745507,13.0911884 30.6685507,12.5691884 30.6685507,11.6991884 L30.6685507,5.89918841 L32.6985507,5.89918841 L32.6985507,4.83585507 L30.6685507,4.83585507 L30.6685507,1.85852174 L29.2765507,1.85852174 L29.2765507,4.83585507 L28.077884,4.83585507 L28.077884,5.89918841 L29.2765507,5.89918841 L29.2765507,11.7378551 C29.2765507,13.1491884 30.0885507,14.2898551 31.7125507,14.2898551 L32.6985507,14.2898551 Z M41.6322318,14.2898551 L41.6322318,7.83252174 C41.6322318,5.76385507 40.3755652,4.66185507 37.8235652,4.66185507 C36.2768985,4.66185507 35.3102318,4.97118841 34.4595652,6.07318841 L35.4068985,6.94318841 C35.9675652,6.15052174 36.5862318,5.86052174 37.8042318,5.86052174 C39.5442318,5.86052174 40.2402318,6.55652174 40.2402318,7.94852174 L40.2402318,8.85718841 L37.3788985,8.85718841 C35.2522318,8.85718841 34.0922318,9.93985507 34.0922318,11.6025217 C34.0922318,12.3565217 34.3435652,13.0718551 34.8075652,13.5358551 C35.4068985,14.1545217 36.1802318,14.4058551 37.4948985,14.4058551 C38.7708985,14.4058551 39.4668985,14.1545217 40.2402318,13.3811884 L40.2402318,14.2898551 L41.6322318,14.2898551 Z M40.2402318,10.9258551 C40.2402318,11.7185217 40.0855652,12.2598551 39.7568985,12.5691884 C39.1575652,13.1491884 38.4422318,13.2071884 37.6302318,13.2071884 C36.1222318,13.2071884 35.4455652,12.6851884 35.4455652,11.5831884 C35.4455652,10.4811884 36.1415652,9.90118841 37.5722318,9.90118841 L40.2402318,9.90118841 L40.2402318,10.9258551 Z" id="Porta"></path>
                        <rect id="Rectangle-110" x="44.5507246" y="0.84057971" width="1.68115942" height="13.4492754"></rect>
                    </g>
                </g>
            </g>
        </g>
    </g>
</svg>