<?xml version="1.0" encoding="UTF-8" standalone="no"?>
<svg width="1440px" height="549px" viewBox="0 0 1440 549" version="1.1" xmlns="http://www.w3.org/2000/svg" xmlns:xlink="http://www.w3.org/1999/xlink">
    <!-- Generator: Sketch 3.8.3 (29802) - http://www.bohemiancoding.com/sketch -->
    <title>Group 7 Copy 2</title>
    <desc>Created with Sketch.</desc>
    <defs></defs>
    <g id="Boostrap-3-Grid" stroke="none" stroke-width="1" fill="none" fill-rule="evenodd">
        <g id="MVDSoundCity-Site-v1-Copy-3" transform="translate(0.000000, -4918.000000)">
            <g id="Group-7-Copy-2" transform="translate(-1.000000, 4918.000000)">
                <g id="Page-1">
                    <polygon id="Fill-1" fill="#FF6AA3" points="0.00560486399 0 0 36.4265403 37.7674419 18.2104908"></polygon>
                    <polygon id="Fill-2" fill="#340604" points="37.7693102 0 37.7674419 36.4265403 75.5348837 18.2104908"></polygon>
                    <polygon id="Fill-3" fill="#3A94E1" points="74.2344265 0 74.2325581 36.4265403 112 18.2104908"></polygon>
                    <polygon id="Fill-4" fill="#FF6AA3" points="112.001868 0 112 36.4265403 149.767442 18.2104908"></polygon>
                    <polygon id="Fill-5" fill="#FF5E2C" points="149.771179 0 149.767442 36.4265403 187.534884 18.2104908"></polygon>
                    <polygon id="Fill-6" fill="#FF6AA3" points="186.236295 0 186.232558 36.4265403 224 18.2104908"></polygon>
                    <polygon id="Fill-7" fill="#340604" points="224.001868 0 224 36.4265403 261.767442 18.2104908"></polygon>
                    <polygon id="Fill-8" fill="#FF6AA3" points="261.76931 0 261.767442 36.4265403 299.534884 18.2104908"></polygon>
                    <polygon id="Fill-9" fill="#FF6AA3" points="298.236295 0 298.232558 36.4265403 336 18.2104908"></polygon>
                    <polygon id="Fill-10" fill="#FF5E2C" points="336.003737 0 336 36.4265403 373.767442 18.2104908"></polygon>
                    <polygon id="Fill-11" fill="#340604" points="373.773047 0 373.767442 36.4265403 411.534884 18.2104908"></polygon>
                    <polygon id="Fill-12" fill="#3A94E1" points="410.238163 0 410.232558 36.4265403 448 18.2104908"></polygon>
                    <polygon id="Fill-13" fill="#FF6AA3" points="448.001868 0 448 36.4265403 485.767442 18.2104908"></polygon>
                    <polygon id="Fill-14" fill="#340604" points="485.771178 0 485.767442 36.4265403 523.534884 18.2104908"></polygon>
                    <polygon id="Fill-15" fill="#FF6AA3" points="522.234427 0 522.232558 36.4265403 560 18.2104908"></polygon>
                    <polygon id="Fill-16" fill="#340604" points="560.003737 0 560 36.4265403 597.767442 18.2104908"></polygon>
                    <polygon id="Fill-17" fill="#3A94E1" points="596.466985 0 596.465116 36.4265403 634.232558 18.2104908"></polygon>
                    <polygon id="Fill-18" fill="#FF6AA3" points="634.236295 0 634.232558 36.4265403 672 18.2104908"></polygon>
                    <polygon id="Fill-19" fill="#3A94E1" points="0 72.8530806 37.7674419 54.6361048 0.00560486399 36.4265403"></polygon>
                    <polygon id="Fill-20" fill="#FF6AA3" points="37.7674419 72.8530806 75.5348837 54.6361048 37.7693102 36.4265403"></polygon>
                    <polygon id="Fill-21" fill="#FF6AA3" points="74.2325581 72.8530806 112 54.6361048 74.2344265 36.4265403"></polygon>
                    <polygon id="Fill-22" fill="#FF6AA3" points="112 72.8530806 149.767442 54.6361048 112.001868 36.4265403"></polygon>
                    <polygon id="Fill-23" fill="#3A94E1" points="149.767442 72.8530806 187.534884 54.6361048 149.76931 36.4265403"></polygon>
                    <polygon id="Fill-24" fill="#FF6AA3" points="186.232558 72.8530806 224 54.6361048 186.236295 36.4265403"></polygon>
                    <polygon id="Fill-25" fill="#FF5E2C" points="224 72.8530806 261.767442 54.6361048 224.001868 36.4265403"></polygon>
                    <polygon id="Fill-26" fill="#FF6AA3" points="261.767442 72.8530806 299.534884 54.6361048 261.76931 36.4265403"></polygon>
                    <polygon id="Fill-27" fill="#FF6AA3" points="298.232558 72.8530806 336 54.6361048 298.236295 36.4265403"></polygon>
                    <polygon id="Fill-28" fill="#340604" points="336 72.8530806 373.767442 54.6361048 336.003737 36.4265403"></polygon>
                    <polygon id="Fill-29" fill="#FF6AA3" points="373.767442 72.8530806 411.534884 54.6361048 373.771179 36.4265403"></polygon>
                    <polygon id="Fill-30" fill="#340604" points="410.232558 72.8530806 448 54.6361048 410.236295 36.4265403"></polygon>
                    <polygon id="Fill-31" fill="#FF6AA3" points="448 72.8530806 485.767442 54.6361048 448.001868 36.4265403"></polygon>
                    <polygon id="Fill-32" fill="#FF5E2C" points="485.767442 72.8530806 523.534884 54.6361048 485.771178 36.4265403"></polygon>
                    <polygon id="Fill-33" fill="#FF6AA3" points="522.232558 72.8530806 560 54.6361048 522.234427 36.4265403"></polygon>
                    <polygon id="Fill-34" fill="#FF5E2C" points="560 72.8530806 597.767442 54.6361048 560.003737 36.4265403"></polygon>
                    <polygon id="Fill-35" fill="#FF6AA3" points="596.465116 72.8530806 634.232558 54.6361048 596.466985 36.4265403"></polygon>
                    <polygon id="Fill-36" fill="#340604" points="634.232558 72.8530806 672 54.6361048 634.236295 36.4265403"></polygon>
                    <polygon id="Fill-37" fill="#FF6AA3" points="0 109.279621 37.7674419 91.0663507 0.00560486399 72.8530806"></polygon>
                    <polygon id="Fill-38" fill="#FF5E2C" points="37.7674419 109.279621 75.5348837 91.0663507 37.7693102 72.8530806"></polygon>
                    <polygon id="Fill-39" fill="#340604" points="74.2325581 109.279621 112 91.0663507 74.2344265 72.8530806"></polygon>
                    <polygon id="Fill-40" fill="#FF6AA3" points="112 109.279621 149.767442 91.0663507 112.001868 72.8530806"></polygon>
                    <polygon id="Fill-41" fill="#340604" points="149.767442 109.279621 187.534884 91.0663507 149.76931 72.8530806"></polygon>
                    <polygon id="Fill-42" fill="#FF6AA3" points="186.232558 109.279621 224 91.0663507 186.236295 72.8530806"></polygon>
                    <polygon id="Fill-43" fill="#FF6AA3" points="224 109.279621 261.767442 91.0663507 224.001868 72.8530806"></polygon>
                    <polygon id="Fill-44" fill="#FF6AA3" points="261.767442 109.279621 299.534884 91.0663507 261.76931 72.8530806"></polygon>
                    <polygon id="Fill-45" fill="#3A94E1" points="298.232558 109.279621 336 91.0663507 298.236295 72.8530806"></polygon>
                    <polygon id="Fill-46" fill="#FF6AA3" points="336 109.279621 373.767442 91.0663507 336.003737 72.8530806"></polygon>
                    <polygon id="Fill-47" fill="#FF6AA3" points="373.767442 109.279621 411.534884 91.0663507 373.771179 72.8530806"></polygon>
                    <polygon id="Fill-48" fill="#FF5E2C" points="410.232558 109.279621 448 91.0663507 410.236295 72.8530806"></polygon>
                    <polygon id="Fill-49" fill="#340604" points="448 109.279621 485.767442 91.0663507 448.001868 72.8530806"></polygon>
                    <polygon id="Fill-50" fill="#FF6AA3" points="485.767442 109.279621 523.534884 91.0663507 485.771178 72.8530806"></polygon>
                    <polygon id="Fill-51" fill="#3A94E1" points="522.232558 109.279621 560 91.0663507 522.234427 72.8530806"></polygon>
                    <polygon id="Fill-52" fill="#FF6AA3" points="560 109.279621 597.767442 91.0663507 560.003737 72.8530806"></polygon>
                    <polygon id="Fill-53" fill="#FF6AA3" points="596.465116 109.279621 634.232558 91.0663507 596.466985 72.8530806"></polygon>
                    <polygon id="Fill-54" fill="#3A94E1" points="634.232558 109.279621 672 91.0663507 634.236295 72.8530806"></polygon>
                    <polygon id="Fill-55" fill="#FF6AA3" points="0 145.706161 37.7674419 127.490112 0.00560486399 109.279621"></polygon>
                    <polygon id="Fill-56" fill="#340604" points="37.7674419 145.706161 75.5348837 127.491038 37.7693102 109.279621"></polygon>
                    <polygon id="Fill-57" fill="#3A94E1" points="74.2325581 145.706161 112 127.491038 74.2344265 109.279621"></polygon>
                    <polygon id="Fill-58" fill="#FF6AA3" points="112 145.706161 149.767442 127.491038 112.001868 109.279621"></polygon>
                    <polygon id="Fill-59" fill="#FF5E2C" points="149.767442 145.706161 187.534884 127.491038 149.76931 109.279621"></polygon>
                    <polygon id="Fill-60" fill="#FF6AA3" points="186.232558 145.706161 224 127.491038 186.236295 109.279621"></polygon>
                    <polygon id="Fill-61" fill="#340604" points="224 145.706161 261.767442 127.491038 224.001868 109.279621"></polygon>
                    <polygon id="Fill-62" fill="#3A94E1" points="261.767442 145.706161 299.534884 127.491038 261.76931 109.279621"></polygon>
                    <polygon id="Fill-63" fill="#FF6AA3" points="298.232558 145.706161 336 127.491038 298.236295 109.279621"></polygon>
                    <polygon id="Fill-64" fill="#FF5E2C" points="336 145.706161 373.767442 127.491038 336.003737 109.279621"></polygon>
                    <polygon id="Fill-65" fill="#FF6AA3" points="373.767442 145.706161 411.534884 127.491038 373.771179 109.279621"></polygon>
                    <polygon id="Fill-66" fill="#3A94E1" points="410.232558 145.706161 448 127.491038 410.236295 109.279621"></polygon>
                    <polygon id="Fill-67" fill="#FF6AA3" points="448 145.706161 485.767442 127.491038 448.001868 109.279621"></polygon>
                    <polygon id="Fill-68" fill="#340604" points="485.767442 145.706161 523.534884 127.491038 485.771178 109.279621"></polygon>
                    <polygon id="Fill-69" fill="#FF6AA3" points="522.232558 145.706161 560 127.491038 522.234427 109.279621"></polygon>
                    <polygon id="Fill-70" fill="#340604" points="560 145.706161 597.767442 127.491038 560.003737 109.279621"></polygon>
                    <polygon id="Fill-71" fill="#3A94E1" points="596.465116 145.706161 634.232558 127.491038 596.466985 109.279621"></polygon>
                    <polygon id="Fill-72" fill="#FF6AA3" points="634.232558 145.706161 672 127.490112 634.236295 109.279621"></polygon>
                    <polygon id="Fill-73" fill="#3A94E1" points="0 183.433649 37.7674419 165.215747 0.00560486399 147.007109"></polygon>
                    <polygon id="Fill-74" fill="#FF6AA3" points="37.7674419 183.433649 75.5348837 165.216673 37.7693102 147.007109"></polygon>
                    <polygon id="Fill-75" fill="#FF6AA3" points="74.2325581 183.433649 112 165.216673 74.2344265 147.007109"></polygon>
                    <polygon id="Fill-76" fill="#FF6AA3" points="112 183.433649 149.767442 165.216673 112.001868 147.007109"></polygon>
                    <polygon id="Fill-77" fill="#3A94E1" points="149.767442 183.433649 187.534884 165.216673 149.76931 147.007109"></polygon>
                    <polygon id="Fill-78" fill="#FF6AA3" points="186.232558 183.433649 224 165.216673 186.236295 147.007109"></polygon>
                    <polygon id="Fill-79" fill="#FF5E2C" points="224 183.433649 261.767442 165.216673 224.001868 147.007109"></polygon>
                    <polygon id="Fill-80" fill="#FF6AA3" points="261.767442 183.433649 299.534884 165.216673 261.76931 147.007109"></polygon>
                    <polygon id="Fill-81" fill="#FF6AA3" points="298.232558 183.433649 336 165.216673 298.236295 147.007109"></polygon>
                    <polygon id="Fill-82" fill="#340604" points="336 183.433649 373.767442 165.216673 336.003737 147.007109"></polygon>
                    <polygon id="Fill-83" fill="#FF6AA3" points="373.767442 183.433649 411.534884 165.216673 373.771179 147.007109"></polygon>
                    <polygon id="Fill-84" fill="#340604" points="410.232558 183.433649 448 165.216673 410.236295 147.007109"></polygon>
                    <polygon id="Fill-85" fill="#3A94E1" points="448 183.433649 485.767442 165.216673 448.001868 147.007109"></polygon>
                    <polygon id="Fill-86" fill="#FF5E2C" points="485.767442 183.433649 523.534884 165.216673 485.771178 147.007109"></polygon>
                    <polygon id="Fill-87" fill="#FF6AA3" points="522.232558 183.433649 560 165.216673 522.234427 147.007109"></polygon>
                    <polygon id="Fill-88" fill="#FF5E2C" points="560 183.433649 597.767442 165.216673 560.003737 147.007109"></polygon>
                    <polygon id="Fill-89" fill="#FF6AA3" points="596.465116 183.433649 634.232558 165.216673 596.466985 147.007109"></polygon>
                    <polygon id="Fill-90" fill="#340604" points="634.232558 183.433649 672 165.215747 634.236295 147.007109"></polygon>
                    <polygon id="Fill-91" fill="#FF6AA3" points="0 219.86019 37.7674419 201.646919 0.00560486399 183.433649"></polygon>
                    <polygon id="Fill-92" fill="#FF5E2C" points="37.7674419 219.86019 75.5348837 201.646919 37.7693102 183.433649"></polygon>
                    <polygon id="Fill-93" fill="#340604" points="74.2325581 219.86019 112 201.646919 74.2344265 183.433649"></polygon>
                    <polygon id="Fill-94" fill="#3A94E1" points="112 219.86019 149.767442 201.646919 112.001868 183.433649"></polygon>
                    <polygon id="Fill-95" fill="#340604" points="149.767442 219.86019 187.534884 201.646919 149.76931 183.433649"></polygon>
                    <polygon id="Fill-96" fill="#FF6AA3" points="186.232558 219.86019 224 201.646919 186.236295 183.433649"></polygon>
                    <polygon id="Fill-97" fill="#FF6AA3" points="224 219.86019 261.767442 201.646919 224.001868 183.433649"></polygon>
                    <polygon id="Fill-98" fill="#FF6AA3" points="261.767442 219.86019 299.534884 201.646919 261.76931 183.433649"></polygon>
                    <polygon id="Fill-99" fill="#3A94E1" points="298.232558 219.86019 336 201.646919 298.236295 183.433649"></polygon>
                    <polygon id="Fill-100" fill="#FF6AA3" points="336 219.86019 373.767442 201.646919 336.003737 183.433649"></polygon>
                    <polygon id="Fill-101" fill="#FF6AA3" points="373.767442 219.86019 411.534884 201.646919 373.771179 183.433649"></polygon>
                    <polygon id="Fill-102" fill="#FF5E2C" points="410.232558 219.86019 448 201.646919 410.236295 183.433649"></polygon>
                    <polygon id="Fill-103" fill="#FF6AA3" points="448 219.86019 485.767442 201.646919 448.001868 183.433649"></polygon>
                    <polygon id="Fill-104" fill="#FF6AA3" points="485.767442 219.86019 523.534884 201.646919 485.771178 183.433649"></polygon>
                    <polygon id="Fill-105" fill="#3A94E1" points="522.232558 219.86019 560 201.646919 522.234427 183.433649"></polygon>
                    <polygon id="Fill-106" fill="#FF6AA3" points="560 219.86019 597.767442 201.646919 560.003737 183.433649"></polygon>
                    <polygon id="Fill-107" fill="#FF6AA3" points="596.465116 219.86019 634.232558 201.646919 596.466985 183.433649"></polygon>
                    <polygon id="Fill-108" fill="#3A94E1" points="634.232558 219.86019 672 201.646919 634.236295 183.433649"></polygon>
                    <polygon id="Fill-109" fill="#FF6AA3" points="0 256.28673 37.7674419 238.072533 0.00560486399 219.86019"></polygon>
                    <polygon id="Fill-110" fill="#340604" points="37.7674419 256.28673 75.5348837 238.071607 37.7693102 219.86019"></polygon>
                    <polygon id="Fill-111" fill="#3A94E1" points="74.2325581 256.28673 112 238.071607 74.2344265 219.86019"></polygon>
                    <polygon id="Fill-112" fill="#FF6AA3" points="112 256.28673 149.767442 238.071607 112.001868 219.86019"></polygon>
                    <polygon id="Fill-113" fill="#FF5E2C" points="149.767442 256.28673 187.534884 238.071607 149.76931 219.86019"></polygon>
                    <polygon id="Fill-114" fill="#FF6AA3" points="186.232558 256.28673 224 238.071607 186.236295 219.86019"></polygon>
                    <polygon id="Fill-115" fill="#340604" points="224 256.28673 261.767442 238.071607 224.001868 219.86019"></polygon>
                    <polygon id="Fill-116" fill="#FF6AA3" points="261.767442 256.28673 299.534884 238.071607 261.76931 219.86019"></polygon>
                    <polygon id="Fill-117" fill="#FF6AA3" points="298.232558 256.28673 336 238.071607 298.236295 219.86019"></polygon>
                    <polygon id="Fill-118" fill="#FF5E2C" points="336 256.28673 373.767442 238.071607 336.003737 219.86019"></polygon>
                    <polygon id="Fill-119" fill="#FF6AA3" points="373.767442 256.28673 411.534884 238.071607 373.771179 219.86019"></polygon>
                    <polygon id="Fill-120" fill="#3A94E1" points="410.232558 256.28673 448 238.071607 410.236295 219.86019"></polygon>
                    <polygon id="Fill-121" fill="#FF6AA3" points="448 256.28673 485.767442 238.071607 448.001868 219.86019"></polygon>
                    <polygon id="Fill-122" fill="#340604" points="485.767442 256.28673 523.534884 238.071607 485.771178 219.86019"></polygon>
                    <polygon id="Fill-123" fill="#FF6AA3" points="522.232558 256.28673 560 238.071607 522.234427 219.86019"></polygon>
                    <polygon id="Fill-124" fill="#340604" points="560 256.28673 597.767442 238.071607 560.003737 219.86019"></polygon>
                    <polygon id="Fill-125" fill="#3A94E1" points="596.465116 256.28673 634.232558 238.071607 596.466985 219.86019"></polygon>
                    <polygon id="Fill-126" fill="#FF6AA3" points="634.232558 256.28673 672 238.072533 634.236295 219.86019"></polygon>
                    <polygon id="Fill-127" fill="#3A94E1" points="0 292.71327 37.7674419 274.495368 0.00560486399 256.28673"></polygon>
                    <polygon id="Fill-128" fill="#340604" points="37.7674419 292.71327 75.5348837 274.496294 37.7693102 256.28673"></polygon>
                    <polygon id="Fill-129" fill="#FF6AA3" points="74.2325581 292.71327 112 274.496294 74.2344265 256.28673"></polygon>
                    <polygon id="Fill-130" fill="#FF6AA3" points="112 292.71327 149.767442 274.496294 112.001868 256.28673"></polygon>
                    <polygon id="Fill-131" fill="#3A94E1" points="149.767442 292.71327 187.534884 274.496294 149.76931 256.28673"></polygon>
                    <polygon id="Fill-132" fill="#FF6AA3" points="186.232558 292.71327 224 274.496294 186.236295 256.28673"></polygon>
                    <polygon id="Fill-133" fill="#FF5E2C" points="224 292.71327 261.767442 274.496294 224.001868 256.28673"></polygon>
                    <polygon id="Fill-134" fill="#FF6AA3" points="261.767442 292.71327 299.534884 274.496294 261.76931 256.28673"></polygon>
                    <polygon id="Fill-135" fill="#FF6AA3" points="298.232558 292.71327 336 274.496294 298.236295 256.28673"></polygon>
                    <polygon id="Fill-136" fill="#340604" points="336 292.71327 373.767442 274.496294 336.003737 256.28673"></polygon>
                    <polygon id="Fill-137" fill="#FF6AA3" points="373.767442 292.71327 411.534884 274.496294 373.771179 256.28673"></polygon>
                    <polygon id="Fill-138" fill="#340604" points="410.232558 292.71327 448 274.496294 410.236295 256.28673"></polygon>
                    <polygon id="Fill-139" fill="#3A94E1" points="448 292.71327 485.767442 274.496294 448.001868 256.28673"></polygon>
                    <polygon id="Fill-140" fill="#FF5E2C" points="485.767442 292.71327 523.534884 274.496294 485.771178 256.28673"></polygon>
                    <polygon id="Fill-141" fill="#FF6AA3" points="522.232558 292.71327 560 274.496294 522.234427 256.28673"></polygon>
                    <polygon id="Fill-142" fill="#FF5E2C" points="560 292.71327 597.767442 274.496294 560.003737 256.28673"></polygon>
                    <polygon id="Fill-143" fill="#FF6AA3" points="596.465116 292.71327 634.232558 274.496294 596.466985 256.28673"></polygon>
                    <polygon id="Fill-144" fill="#340604" points="634.232558 292.71327 672 274.495368 634.236295 256.28673"></polygon>
                    <polygon id="Fill-145" fill="#FF6AA3" points="0 329.13981 37.7674419 310.924687 0.00560486399 292.71327"></polygon>
                    <polygon id="Fill-146" fill="#FF5E2C" points="37.7674419 329.13981 75.5348837 310.92654 37.7693102 292.71327"></polygon>
                    <polygon id="Fill-147" fill="#340604" points="74.2325581 329.13981 112 310.92654 74.2344265 292.71327"></polygon>
                    <polygon id="Fill-148" fill="#3A94E1" points="112 329.13981 149.767442 310.92654 112.001868 292.71327"></polygon>
                    <polygon id="Fill-149" fill="#340604" points="149.767442 329.13981 187.534884 310.92654 149.76931 292.71327"></polygon>
                    <polygon id="Fill-150" fill="#FF6AA3" points="186.232558 329.13981 224 310.92654 186.236295 292.71327"></polygon>
                    <polygon id="Fill-151" fill="#340604" points="224 329.13981 261.767442 310.92654 224.001868 292.71327"></polygon>
                    <polygon id="Fill-152" fill="#FF6AA3" points="261.767442 329.13981 299.534884 310.92654 261.76931 292.71327"></polygon>
                    <polygon id="Fill-153" fill="#3A94E1" points="298.232558 329.13981 336 310.92654 298.236295 292.71327"></polygon>
                    <polygon id="Fill-154" fill="#FF6AA3" points="336 329.13981 373.767442 310.92654 336.003737 292.71327"></polygon>
                    <polygon id="Fill-155" fill="#FF6AA3" points="373.767442 329.13981 411.534884 310.92654 373.771179 292.71327"></polygon>
                    <polygon id="Fill-156" fill="#FF5E2C" points="410.232558 329.13981 448 310.92654 410.236295 292.71327"></polygon>
                    <polygon id="Fill-157" fill="#FF6AA3" points="448 329.13981 485.767442 310.92654 448.001868 292.71327"></polygon>
                    <polygon id="Fill-158" fill="#FF6AA3" points="485.767442 329.13981 523.534884 310.92654 485.771178 292.71327"></polygon>
                    <polygon id="Fill-159" fill="#3A94E1" points="522.232558 329.13981 560 310.92654 522.234427 292.71327"></polygon>
                    <polygon id="Fill-160" fill="#FF6AA3" points="560 329.13981 597.767442 310.92654 560.003737 292.71327"></polygon>
                    <polygon id="Fill-161" fill="#FF6AA3" points="596.465116 329.13981 634.232558 310.92654 596.466985 292.71327"></polygon>
                    <polygon id="Fill-162" fill="#3A94E1" points="634.232558 329.13981 672 310.924687 634.236295 292.71327"></polygon>
                    <polygon id="Fill-163" fill="#FF6AA3" points="0 365.566351 37.7674419 347.351228 0.00560486399 329.13981"></polygon>
                    <polygon id="Fill-164" fill="#340604" points="37.7674419 365.566351 75.5348837 347.351228 37.7693102 329.13981"></polygon>
                    <polygon id="Fill-165" fill="#3A94E1" points="74.2325581 365.566351 112 347.351228 74.2344265 329.13981"></polygon>
                    <polygon id="Fill-166" fill="#FF6AA3" points="112 365.566351 149.767442 347.351228 112.001868 329.13981"></polygon>
                    <polygon id="Fill-167" fill="#FF5E2C" points="149.767442 365.566351 187.534884 347.351228 149.76931 329.13981"></polygon>
                    <polygon id="Fill-168" fill="#FF6AA3" points="186.232558 365.566351 224 347.351228 186.236295 329.13981"></polygon>
                    <polygon id="Fill-169" fill="#340604" points="224 365.566351 261.767442 347.351228 224.001868 329.13981"></polygon>
                    <polygon id="Fill-170" fill="#3A94E1" points="261.767442 365.566351 299.534884 347.351228 261.76931 329.13981"></polygon>
                    <polygon id="Fill-171" fill="#FF6AA3" points="298.232558 365.566351 336 347.351228 298.236295 329.13981"></polygon>
                    <polygon id="Fill-172" fill="#FF5E2C" points="336 365.566351 373.767442 347.351228 336.003737 329.13981"></polygon>
                    <polygon id="Fill-173" fill="#FF6AA3" points="373.767442 365.566351 411.534884 347.351228 373.771179 329.13981"></polygon>
                    <polygon id="Fill-174" fill="#3A94E1" points="410.232558 365.566351 448 347.351228 410.236295 329.13981"></polygon>
                    <polygon id="Fill-175" fill="#FF6AA3" points="448 365.566351 485.767442 347.351228 448.001868 329.13981"></polygon>
                    <polygon id="Fill-176" fill="#340604" points="485.767442 365.566351 523.534884 347.351228 485.771178 329.13981"></polygon>
                    <polygon id="Fill-177" fill="#FF6AA3" points="522.232558 365.566351 560 347.351228 522.234427 329.13981"></polygon>
                    <polygon id="Fill-178" fill="#340604" points="560 365.566351 597.767442 347.351228 560.003737 329.13981"></polygon>
                    <polygon id="Fill-179" fill="#3A94E1" points="596.465116 365.566351 634.232558 347.351228 596.466985 329.13981"></polygon>
                    <polygon id="Fill-180" fill="#FF6AA3" points="634.232558 365.566351 672 347.351228 634.236295 329.13981"></polygon>
                    <polygon id="Fill-181" fill="#3A94E1" points="0 401.992891 37.7674419 383.776842 0.00560486399 365.566351"></polygon>
                    <polygon id="Fill-182" fill="#FF6AA3" points="37.7674419 401.992891 75.5348837 383.775915 37.7693102 365.566351"></polygon>
                    <polygon id="Fill-183" fill="#FF6AA3" points="74.2325581 401.992891 112 383.775915 74.2344265 365.566351"></polygon>
                    <polygon id="Fill-184" fill="#FF6AA3" points="112 401.992891 149.767442 383.775915 112.001868 365.566351"></polygon>
                    <polygon id="Fill-185" fill="#3A94E1" points="149.767442 401.992891 187.534884 383.775915 149.76931 365.566351"></polygon>
                    <polygon id="Fill-186" fill="#FF6AA3" points="186.232558 401.992891 224 383.775915 186.236295 365.566351"></polygon>
                    <polygon id="Fill-187" fill="#FF5E2C" points="224 401.992891 261.767442 383.775915 224.001868 365.566351"></polygon>
                    <polygon id="Fill-188" fill="#FF6AA3" points="261.767442 401.992891 299.534884 383.775915 261.76931 365.566351"></polygon>
                    <polygon id="Fill-189" fill="#FF6AA3" points="298.232558 401.992891 336 383.775915 298.236295 365.566351"></polygon>
                    <polygon id="Fill-190" fill="#340604" points="336 401.992891 373.767442 383.775915 336.003737 365.566351"></polygon>
                    <polygon id="Fill-191" fill="#FF6AA3" points="373.767442 401.992891 411.534884 383.775915 373.771179 365.566351"></polygon>
                    <polygon id="Fill-192" fill="#340604" points="410.232558 401.992891 448 383.775915 410.236295 365.566351"></polygon>
                    <polygon id="Fill-193" fill="#FF6AA3" points="448 401.992891 485.767442 383.775915 448.001868 365.566351"></polygon>
                    <polygon id="Fill-194" fill="#FF5E2C" points="485.767442 401.992891 523.534884 383.775915 485.771178 365.566351"></polygon>
                    <polygon id="Fill-195" fill="#FF6AA3" points="522.232558 401.992891 560 383.775915 522.234427 365.566351"></polygon>
                    <polygon id="Fill-196" fill="#FF5E2C" points="560 401.992891 597.767442 383.775915 560.003737 365.566351"></polygon>
                    <polygon id="Fill-197" fill="#FF6AA3" points="596.465116 401.992891 634.232558 383.775915 596.466985 365.566351"></polygon>
                    <polygon id="Fill-198" fill="#340604" points="634.232558 401.992891 672 383.776842 634.236295 365.566351"></polygon>
                    <polygon id="Fill-199" fill="#FF6AA3" points="0 438.419431 37.7674419 420.206161 0.00560486399 401.992891"></polygon>
                    <polygon id="Fill-200" fill="#FF5E2C" points="37.7674419 438.419431 75.5348837 420.206161 37.7693102 401.992891"></polygon>
                    <polygon id="Fill-201" fill="#340604" points="74.2325581 438.419431 112 420.206161 74.2344265 401.992891"></polygon>
                    <polygon id="Fill-202" fill="#FF6AA3" points="112 438.419431 149.767442 420.206161 112.001868 401.992891"></polygon>
                    <polygon id="Fill-203" fill="#340604" points="149.767442 438.419431 187.534884 420.206161 149.76931 401.992891"></polygon>
                    <polygon id="Fill-204" fill="#FF6AA3" points="186.232558 438.419431 224 420.206161 186.236295 401.992891"></polygon>
                    <polygon id="Fill-205" fill="#FF6AA3" points="224 438.419431 261.767442 420.206161 224.001868 401.992891"></polygon>
                    <polygon id="Fill-206" fill="#FF6AA3" points="261.767442 438.419431 299.534884 420.206161 261.76931 401.992891"></polygon>
                    <polygon id="Fill-207" fill="#3A94E1" points="298.232558 438.419431 336 420.206161 298.236295 401.992891"></polygon>
                    <polygon id="Fill-208" fill="#FF6AA3" points="336 438.419431 373.767442 420.206161 336.003737 401.992891"></polygon>
                    <polygon id="Fill-209" fill="#FF6AA3" points="373.767442 438.419431 411.534884 420.206161 373.771179 401.992891"></polygon>
                    <polygon id="Fill-210" fill="#FF5E2C" points="410.232558 438.419431 448 420.206161 410.236295 401.992891"></polygon>
                    <polygon id="Fill-211" fill="#FF6AA3" points="448 438.419431 485.767442 420.206161 448.001868 401.992891"></polygon>
                    <polygon id="Fill-212" fill="#FF6AA3" points="485.767442 438.419431 523.534884 420.206161 485.771178 401.992891"></polygon>
                    <polygon id="Fill-213" fill="#3A94E1" points="522.232558 438.419431 560 420.206161 522.234427 401.992891"></polygon>
                    <polygon id="Fill-214" fill="#FF6AA3" points="560 438.419431 597.767442 420.206161 560.003737 401.992891"></polygon>
                    <polygon id="Fill-215" fill="#3A94E1" points="596.465116 438.419431 634.232558 420.206161 596.466985 401.992891"></polygon>
                    <polygon id="Fill-216" fill="#3A94E1" points="634.232558 438.419431 672 420.206161 634.236295 401.992891"></polygon>
                    <polygon id="Fill-217" fill="#FF6AA3" points="0 474.845972 37.7674419 456.630848 0.00560486399 438.419431"></polygon>
                    <polygon id="Fill-218" fill="#340604" points="37.7674419 474.845972 75.5348837 456.630848 37.7693102 438.419431"></polygon>
                    <polygon id="Fill-219" fill="#3A94E1" points="74.2325581 474.845972 112 456.630848 74.2344265 438.419431"></polygon>
                    <polygon id="Fill-220" fill="#FF6AA3" points="112 474.845972 149.767442 456.630848 112.001868 438.419431"></polygon>
                    <polygon id="Fill-221" fill="#FF5E2C" points="149.767442 474.845972 187.534884 456.630848 149.76931 438.419431"></polygon>
                    <polygon id="Fill-222" fill="#FF6AA3" points="186.232558 474.845972 224 456.630848 186.236295 438.419431"></polygon>
                    <polygon id="Fill-223" fill="#340604" points="224 474.845972 261.767442 456.630848 224.001868 438.419431"></polygon>
                    <polygon id="Fill-224" fill="#FF6AA3" points="261.767442 474.845972 299.534884 456.630848 261.76931 438.419431"></polygon>
                    <polygon id="Fill-225" fill="#FF6AA3" points="298.232558 474.845972 336 456.630848 298.236295 438.419431"></polygon>
                    <polygon id="Fill-226" fill="#FF5E2C" points="336 474.845972 373.767442 456.630848 336.003737 438.419431"></polygon>
                    <polygon id="Fill-227" fill="#FF6AA3" points="373.767442 474.845972 411.534884 456.630848 373.771179 438.419431"></polygon>
                    <polygon id="Fill-228" fill="#3A94E1" points="410.232558 474.845972 448 456.630848 410.236295 438.419431"></polygon>
                    <polygon id="Fill-229" fill="#FF6AA3" points="448 474.845972 485.767442 456.630848 448.001868 438.419431"></polygon>
                    <polygon id="Fill-230" fill="#340604" points="485.767442 474.845972 523.534884 456.630848 485.771178 438.419431"></polygon>
                    <polygon id="Fill-231" fill="#FF6AA3" points="522.232558 474.845972 560 456.630848 522.234427 438.419431"></polygon>
                    <polygon id="Fill-232" fill="#340604" points="560 474.845972 597.767442 456.630848 560.003737 438.419431"></polygon>
                    <polygon id="Fill-233" fill="#3A94E1" points="596.465116 474.845972 634.232558 456.630848 596.466985 438.419431"></polygon>
                    <polygon id="Fill-234" fill="#FF6AA3" points="634.232558 474.845972 672 456.630848 634.236295 438.419431"></polygon>
                    <polygon id="Fill-235" fill="#3A94E1" points="0 511.272512 37.7674419 493.055536 0.00560486399 474.845972"></polygon>
                    <polygon id="Fill-236" fill="#FF6AA3" points="37.7674419 511.272512 75.5348837 493.055536 37.7693102 474.845972"></polygon>
                    <polygon id="Fill-237" fill="#FF6AA3" points="74.2325581 511.272512 112 493.055536 74.2344265 474.845972"></polygon>
                    <polygon id="Fill-238" fill="#3A94E1" points="112 511.272512 149.767442 493.055536 112.001868 474.845972"></polygon>
                    <polygon id="Fill-239" fill="#3A94E1" points="149.767442 511.272512 187.534884 493.055536 149.76931 474.845972"></polygon>
                    <polygon id="Fill-240" fill="#FF6AA3" points="186.232558 511.272512 224 493.055536 186.236295 474.845972"></polygon>
                    <polygon id="Fill-241" fill="#FF5E2C" points="224 511.272512 261.767442 493.055536 224.001868 474.845972"></polygon>
                    <polygon id="Fill-242" fill="#340604" points="261.767442 511.272512 299.534884 493.055536 261.76931 474.845972"></polygon>
                    <polygon id="Fill-243" fill="#FF6AA3" points="298.232558 511.272512 336 493.055536 298.236295 474.845972"></polygon>
                    <polygon id="Fill-244" fill="#340604" points="336 511.272512 373.767442 493.055536 336.003737 474.845972"></polygon>
                    <polygon id="Fill-245" fill="#FF6AA3" points="373.767442 511.272512 411.534884 493.055536 373.771179 474.845972"></polygon>
                    <polygon id="Fill-246" fill="#340604" points="410.232558 511.272512 448 493.055536 410.236295 474.845972"></polygon>
                    <polygon id="Fill-247" fill="#FF6AA3" points="448 511.272512 485.767442 493.055536 448.001868 474.845972"></polygon>
                    <polygon id="Fill-248" fill="#FF5E2C" points="485.767442 511.272512 523.534884 493.055536 485.771178 474.845972"></polygon>
                    <polygon id="Fill-249" fill="#FF6AA3" points="522.232558 511.272512 560 493.055536 522.234427 474.845972"></polygon>
                    <polygon id="Fill-250" fill="#FF5E2C" points="560 511.272512 597.767442 493.055536 560.003737 474.845972"></polygon>
                    <polygon id="Fill-251" fill="#FF6AA3" points="596.465116 511.272512 634.232558 493.055536 596.466985 474.845972"></polygon>
                    <polygon id="Fill-252" fill="#340604" points="634.232558 511.272512 672 493.055536 634.236295 474.845972"></polygon>
                    <polygon id="Fill-253" fill="#FF6AA3" points="0 549 37.7674419 530.787656 0.00560486399 512.57346"></polygon>
                    <polygon id="Fill-254" fill="#FF5E2C" points="37.7674419 549 75.5348837 530.787656 37.7693102 512.57346"></polygon>
                    <polygon id="Fill-255" fill="#340604" points="74.2325581 549 112 530.787656 74.2344265 512.57346"></polygon>
                    <polygon id="Fill-256" fill="#FF6AA3" points="112 549 149.767442 530.787656 112.001868 512.57346"></polygon>
                    <polygon id="Fill-257" fill="#340604" points="149.767442 549 187.534884 530.787656 149.771179 512.57346"></polygon>
                    <polygon id="Fill-258" fill="#FF6AA3" points="186.232558 549 224 530.787656 186.236295 512.57346"></polygon>
                    <polygon id="Fill-259" fill="#FF6AA3" points="224 549 261.767442 530.787656 224.001868 512.57346"></polygon>
                    <polygon id="Fill-260" fill="#FF6AA3" points="261.767442 549 299.534884 530.787656 261.76931 512.57346"></polygon>
                    <polygon id="Fill-261" fill="#3A94E1" points="298.232558 549 336 530.787656 298.236295 512.57346"></polygon>
                    <polygon id="Fill-262" fill="#FF6AA3" points="336 549 373.767442 530.787656 336.003737 512.57346"></polygon>
                    <polygon id="Fill-263" fill="#FF6AA3" points="373.767442 549 411.534884 530.787656 373.773047 512.57346"></polygon>
                    <polygon id="Fill-264" fill="#FF5E2C" points="410.232558 549 448 530.787656 410.238163 512.57346"></polygon>
                    <polygon id="Fill-265" fill="#FF6AA3" points="448 549 485.767442 530.787656 448.001868 512.57346"></polygon>
                    <polygon id="Fill-266" fill="#FF6AA3" points="485.767442 549 523.534884 530.787656 485.771178 512.57346"></polygon>
                    <polygon id="Fill-267" fill="#3A94E1" points="522.232558 549 560 530.787656 522.234427 512.57346"></polygon>
                    <polygon id="Fill-268" fill="#FF6AA3" points="560 549 597.767442 530.787656 560.003737 512.57346"></polygon>
                    <polygon id="Fill-269" fill="#340604" points="596.465116 549 634.232558 530.787656 596.466985 512.57346"></polygon>
                    <polygon id="Fill-270" fill="#3A94E1" points="634.232558 549 672 530.787656 634.236295 512.57346"></polygon>
                </g>
                <g id="Page-1-Copy" transform="translate(672.000000, 0.000000)">
                    <polygon id="Fill-1" fill="#FF6AA3" points="0.00560486399 0 0 36.4265403 37.7674419 18.2104908"></polygon>
                    <polygon id="Fill-2" fill="#340604" points="37.7693102 0 37.7674419 36.4265403 75.5348837 18.2104908"></polygon>
                    <polygon id="Fill-3" fill="#3A94E1" points="74.2344265 0 74.2325581 36.4265403 112 18.2104908"></polygon>
                    <polygon id="Fill-4" fill="#FF6AA3" points="112.001868 0 112 36.4265403 149.767442 18.2104908"></polygon>
                    <polygon id="Fill-5" fill="#FF5E2C" points="149.771179 0 149.767442 36.4265403 187.534884 18.2104908"></polygon>
                    <polygon id="Fill-6" fill="#FF6AA3" points="186.236295 0 186.232558 36.4265403 224 18.2104908"></polygon>
                    <polygon id="Fill-7" fill="#340604" points="224.001868 0 224 36.4265403 261.767442 18.2104908"></polygon>
                    <polygon id="Fill-8" fill="#FF6AA3" points="261.76931 0 261.767442 36.4265403 299.534884 18.2104908"></polygon>
                    <polygon id="Fill-9" fill="#FF6AA3" points="298.236295 0 298.232558 36.4265403 336 18.2104908"></polygon>
                    <polygon id="Fill-10" fill="#FF5E2C" points="336.003737 0 336 36.4265403 373.767442 18.2104908"></polygon>
                    <polygon id="Fill-11" fill="#340604" points="373.773047 0 373.767442 36.4265403 411.534884 18.2104908"></polygon>
                    <polygon id="Fill-12" fill="#3A94E1" points="410.238163 0 410.232558 36.4265403 448 18.2104908"></polygon>
                    <polygon id="Fill-13" fill="#FF6AA3" points="448.001868 0 448 36.4265403 485.767442 18.2104908"></polygon>
                    <polygon id="Fill-14" fill="#340604" points="485.771178 0 485.767442 36.4265403 523.534884 18.2104908"></polygon>
                    <polygon id="Fill-15" fill="#FF6AA3" points="522.234427 0 522.232558 36.4265403 560 18.2104908"></polygon>
                    <polygon id="Fill-16" fill="#340604" points="560.003737 0 560 36.4265403 597.767442 18.2104908"></polygon>
                    <polygon id="Fill-17" fill="#3A94E1" points="596.466985 0 596.465116 36.4265403 634.232558 18.2104908"></polygon>
                    <polygon id="Fill-18" fill="#FF6AA3" points="634.236295 0 634.232558 36.4265403 672 18.2104908"></polygon>
                    <polygon id="Fill-19" fill="#3A94E1" points="0 72.8530806 37.7674419 54.6361048 0.00560486399 36.4265403"></polygon>
                    <polygon id="Fill-20" fill="#FF6AA3" points="37.7674419 72.8530806 75.5348837 54.6361048 37.7693102 36.4265403"></polygon>
                    <polygon id="Fill-21" fill="#FF6AA3" points="74.2325581 72.8530806 112 54.6361048 74.2344265 36.4265403"></polygon>
                    <polygon id="Fill-22" fill="#FF6AA3" points="112 72.8530806 149.767442 54.6361048 112.001868 36.4265403"></polygon>
                    <polygon id="Fill-23" fill="#3A94E1" points="149.767442 72.8530806 187.534884 54.6361048 149.76931 36.4265403"></polygon>
                    <polygon id="Fill-24" fill="#FF6AA3" points="186.232558 72.8530806 224 54.6361048 186.236295 36.4265403"></polygon>
                    <polygon id="Fill-25" fill="#FF5E2C" points="224 72.8530806 261.767442 54.6361048 224.001868 36.4265403"></polygon>
                    <polygon id="Fill-26" fill="#FF6AA3" points="261.767442 72.8530806 299.534884 54.6361048 261.76931 36.4265403"></polygon>
                    <polygon id="Fill-27" fill="#FF6AA3" points="298.232558 72.8530806 336 54.6361048 298.236295 36.4265403"></polygon>
                    <polygon id="Fill-28" fill="#340604" points="336 72.8530806 373.767442 54.6361048 336.003737 36.4265403"></polygon>
                    <polygon id="Fill-29" fill="#FF6AA3" points="373.767442 72.8530806 411.534884 54.6361048 373.771179 36.4265403"></polygon>
                    <polygon id="Fill-30" fill="#340604" points="410.232558 72.8530806 448 54.6361048 410.236295 36.4265403"></polygon>
                    <polygon id="Fill-31" fill="#FF6AA3" points="448 72.8530806 485.767442 54.6361048 448.001868 36.4265403"></polygon>
                    <polygon id="Fill-32" fill="#FF5E2C" points="485.767442 72.8530806 523.534884 54.6361048 485.771178 36.4265403"></polygon>
                    <polygon id="Fill-33" fill="#FF6AA3" points="522.232558 72.8530806 560 54.6361048 522.234427 36.4265403"></polygon>
                    <polygon id="Fill-34" fill="#FF5E2C" points="560 72.8530806 597.767442 54.6361048 560.003737 36.4265403"></polygon>
                    <polygon id="Fill-35" fill="#FF6AA3" points="596.465116 72.8530806 634.232558 54.6361048 596.466985 36.4265403"></polygon>
                    <polygon id="Fill-36" fill="#340604" points="634.232558 72.8530806 672 54.6361048 634.236295 36.4265403"></polygon>
                    <polygon id="Fill-37" fill="#FF6AA3" points="0 109.279621 37.7674419 91.0663507 0.00560486399 72.8530806"></polygon>
                    <polygon id="Fill-38" fill="#FF5E2C" points="37.7674419 109.279621 75.5348837 91.0663507 37.7693102 72.8530806"></polygon>
                    <polygon id="Fill-39" fill="#340604" points="74.2325581 109.279621 112 91.0663507 74.2344265 72.8530806"></polygon>
                    <polygon id="Fill-40" fill="#FF6AA3" points="112 109.279621 149.767442 91.0663507 112.001868 72.8530806"></polygon>
                    <polygon id="Fill-41" fill="#340604" points="149.767442 109.279621 187.534884 91.0663507 149.76931 72.8530806"></polygon>
                    <polygon id="Fill-42" fill="#FF6AA3" points="186.232558 109.279621 224 91.0663507 186.236295 72.8530806"></polygon>
                    <polygon id="Fill-43" fill="#FF6AA3" points="224 109.279621 261.767442 91.0663507 224.001868 72.8530806"></polygon>
                    <polygon id="Fill-44" fill="#FF6AA3" points="261.767442 109.279621 299.534884 91.0663507 261.76931 72.8530806"></polygon>
                    <polygon id="Fill-45" fill="#3A94E1" points="298.232558 109.279621 336 91.0663507 298.236295 72.8530806"></polygon>
                    <polygon id="Fill-46" fill="#FF6AA3" points="336 109.279621 373.767442 91.0663507 336.003737 72.8530806"></polygon>
                    <polygon id="Fill-47" fill="#FF6AA3" points="373.767442 109.279621 411.534884 91.0663507 373.771179 72.8530806"></polygon>
                    <polygon id="Fill-48" fill="#FF5E2C" points="410.232558 109.279621 448 91.0663507 410.236295 72.8530806"></polygon>
                    <polygon id="Fill-49" fill="#340604" points="448 109.279621 485.767442 91.0663507 448.001868 72.8530806"></polygon>
                    <polygon id="Fill-50" fill="#FF6AA3" points="485.767442 109.279621 523.534884 91.0663507 485.771178 72.8530806"></polygon>
                    <polygon id="Fill-51" fill="#3A94E1" points="522.232558 109.279621 560 91.0663507 522.234427 72.8530806"></polygon>
                    <polygon id="Fill-52" fill="#FF6AA3" points="560 109.279621 597.767442 91.0663507 560.003737 72.8530806"></polygon>
                    <polygon id="Fill-53" fill="#FF6AA3" points="596.465116 109.279621 634.232558 91.0663507 596.466985 72.8530806"></polygon>
                    <polygon id="Fill-54" fill="#3A94E1" points="634.232558 109.279621 672 91.0663507 634.236295 72.8530806"></polygon>
                    <polygon id="Fill-55" fill="#FF6AA3" points="0 145.706161 37.7674419 127.490112 0.00560486399 109.279621"></polygon>
                    <polygon id="Fill-56" fill="#340604" points="37.7674419 145.706161 75.5348837 127.491038 37.7693102 109.279621"></polygon>
                    <polygon id="Fill-57" fill="#3A94E1" points="74.2325581 145.706161 112 127.491038 74.2344265 109.279621"></polygon>
                    <polygon id="Fill-58" fill="#FF6AA3" points="112 145.706161 149.767442 127.491038 112.001868 109.279621"></polygon>
                    <polygon id="Fill-59" fill="#FF5E2C" points="149.767442 145.706161 187.534884 127.491038 149.76931 109.279621"></polygon>
                    <polygon id="Fill-60" fill="#FF6AA3" points="186.232558 145.706161 224 127.491038 186.236295 109.279621"></polygon>
                    <polygon id="Fill-61" fill="#340604" points="224 145.706161 261.767442 127.491038 224.001868 109.279621"></polygon>
                    <polygon id="Fill-62" fill="#3A94E1" points="261.767442 145.706161 299.534884 127.491038 261.76931 109.279621"></polygon>
                    <polygon id="Fill-63" fill="#FF6AA3" points="298.232558 145.706161 336 127.491038 298.236295 109.279621"></polygon>
                    <polygon id="Fill-64" fill="#FF5E2C" points="336 145.706161 373.767442 127.491038 336.003737 109.279621"></polygon>
                    <polygon id="Fill-65" fill="#FF6AA3" points="373.767442 145.706161 411.534884 127.491038 373.771179 109.279621"></polygon>
                    <polygon id="Fill-66" fill="#3A94E1" points="410.232558 145.706161 448 127.491038 410.236295 109.279621"></polygon>
                    <polygon id="Fill-67" fill="#FF6AA3" points="448 145.706161 485.767442 127.491038 448.001868 109.279621"></polygon>
                    <polygon id="Fill-68" fill="#340604" points="485.767442 145.706161 523.534884 127.491038 485.771178 109.279621"></polygon>
                    <polygon id="Fill-69" fill="#FF6AA3" points="522.232558 145.706161 560 127.491038 522.234427 109.279621"></polygon>
                    <polygon id="Fill-70" fill="#340604" points="560 145.706161 597.767442 127.491038 560.003737 109.279621"></polygon>
                    <polygon id="Fill-71" fill="#3A94E1" points="596.465116 145.706161 634.232558 127.491038 596.466985 109.279621"></polygon>
                    <polygon id="Fill-72" fill="#FF6AA3" points="634.232558 145.706161 672 127.490112 634.236295 109.279621"></polygon>
                    <polygon id="Fill-73" fill="#3A94E1" points="0 183.433649 37.7674419 165.215747 0.00560486399 147.007109"></polygon>
                    <polygon id="Fill-74" fill="#FF6AA3" points="37.7674419 183.433649 75.5348837 165.216673 37.7693102 147.007109"></polygon>
                    <polygon id="Fill-75" fill="#FF6AA3" points="74.2325581 183.433649 112 165.216673 74.2344265 147.007109"></polygon>
                    <polygon id="Fill-76" fill="#FF6AA3" points="112 183.433649 149.767442 165.216673 112.001868 147.007109"></polygon>
                    <polygon id="Fill-77" fill="#3A94E1" points="149.767442 183.433649 187.534884 165.216673 149.76931 147.007109"></polygon>
                    <polygon id="Fill-78" fill="#FF6AA3" points="186.232558 183.433649 224 165.216673 186.236295 147.007109"></polygon>
                    <polygon id="Fill-79" fill="#FF5E2C" points="224 183.433649 261.767442 165.216673 224.001868 147.007109"></polygon>
                    <polygon id="Fill-80" fill="#FF6AA3" points="261.767442 183.433649 299.534884 165.216673 261.76931 147.007109"></polygon>
                    <polygon id="Fill-81" fill="#FF6AA3" points="298.232558 183.433649 336 165.216673 298.236295 147.007109"></polygon>
                    <polygon id="Fill-82" fill="#340604" points="336 183.433649 373.767442 165.216673 336.003737 147.007109"></polygon>
                    <polygon id="Fill-83" fill="#FF6AA3" points="373.767442 183.433649 411.534884 165.216673 373.771179 147.007109"></polygon>
                    <polygon id="Fill-84" fill="#340604" points="410.232558 183.433649 448 165.216673 410.236295 147.007109"></polygon>
                    <polygon id="Fill-85" fill="#3A94E1" points="448 183.433649 485.767442 165.216673 448.001868 147.007109"></polygon>
                    <polygon id="Fill-86" fill="#FF5E2C" points="485.767442 183.433649 523.534884 165.216673 485.771178 147.007109"></polygon>
                    <polygon id="Fill-87" fill="#FF6AA3" points="522.232558 183.433649 560 165.216673 522.234427 147.007109"></polygon>
                    <polygon id="Fill-88" fill="#FF5E2C" points="560 183.433649 597.767442 165.216673 560.003737 147.007109"></polygon>
                    <polygon id="Fill-89" fill="#FF6AA3" points="596.465116 183.433649 634.232558 165.216673 596.466985 147.007109"></polygon>
                    <polygon id="Fill-90" fill="#340604" points="634.232558 183.433649 672 165.215747 634.236295 147.007109"></polygon>
                    <polygon id="Fill-91" fill="#FF6AA3" points="0 219.86019 37.7674419 201.646919 0.00560486399 183.433649"></polygon>
                    <polygon id="Fill-92" fill="#FF5E2C" points="37.7674419 219.86019 75.5348837 201.646919 37.7693102 183.433649"></polygon>
                    <polygon id="Fill-93" fill="#340604" points="74.2325581 219.86019 112 201.646919 74.2344265 183.433649"></polygon>
                    <polygon id="Fill-94" fill="#3A94E1" points="112 219.86019 149.767442 201.646919 112.001868 183.433649"></polygon>
                    <polygon id="Fill-95" fill="#340604" points="149.767442 219.86019 187.534884 201.646919 149.76931 183.433649"></polygon>
                    <polygon id="Fill-96" fill="#FF6AA3" points="186.232558 219.86019 224 201.646919 186.236295 183.433649"></polygon>
                    <polygon id="Fill-97" fill="#FF6AA3" points="224 219.86019 261.767442 201.646919 224.001868 183.433649"></polygon>
                    <polygon id="Fill-98" fill="#FF6AA3" points="261.767442 219.86019 299.534884 201.646919 261.76931 183.433649"></polygon>
                    <polygon id="Fill-99" fill="#3A94E1" points="298.232558 219.86019 336 201.646919 298.236295 183.433649"></polygon>
                    <polygon id="Fill-100" fill="#FF6AA3" points="336 219.86019 373.767442 201.646919 336.003737 183.433649"></polygon>
                    <polygon id="Fill-101" fill="#FF6AA3" points="373.767442 219.86019 411.534884 201.646919 373.771179 183.433649"></polygon>
                    <polygon id="Fill-102" fill="#FF5E2C" points="410.232558 219.86019 448 201.646919 410.236295 183.433649"></polygon>
                    <polygon id="Fill-103" fill="#FF6AA3" points="448 219.86019 485.767442 201.646919 448.001868 183.433649"></polygon>
                    <polygon id="Fill-104" fill="#FF6AA3" points="485.767442 219.86019 523.534884 201.646919 485.771178 183.433649"></polygon>
                    <polygon id="Fill-105" fill="#3A94E1" points="522.232558 219.86019 560 201.646919 522.234427 183.433649"></polygon>
                    <polygon id="Fill-106" fill="#FF6AA3" points="560 219.86019 597.767442 201.646919 560.003737 183.433649"></polygon>
                    <polygon id="Fill-107" fill="#FF6AA3" points="596.465116 219.86019 634.232558 201.646919 596.466985 183.433649"></polygon>
                    <polygon id="Fill-108" fill="#3A94E1" points="634.232558 219.86019 672 201.646919 634.236295 183.433649"></polygon>
                    <polygon id="Fill-109" fill="#FF6AA3" points="0 256.28673 37.7674419 238.072533 0.00560486399 219.86019"></polygon>
                    <polygon id="Fill-110" fill="#340604" points="37.7674419 256.28673 75.5348837 238.071607 37.7693102 219.86019"></polygon>
                    <polygon id="Fill-111" fill="#3A94E1" points="74.2325581 256.28673 112 238.071607 74.2344265 219.86019"></polygon>
                    <polygon id="Fill-112" fill="#FF6AA3" points="112 256.28673 149.767442 238.071607 112.001868 219.86019"></polygon>
                    <polygon id="Fill-113" fill="#FF5E2C" points="149.767442 256.28673 187.534884 238.071607 149.76931 219.86019"></polygon>
                    <polygon id="Fill-114" fill="#FF6AA3" points="186.232558 256.28673 224 238.071607 186.236295 219.86019"></polygon>
                    <polygon id="Fill-115" fill="#340604" points="224 256.28673 261.767442 238.071607 224.001868 219.86019"></polygon>
                    <polygon id="Fill-116" fill="#FF6AA3" points="261.767442 256.28673 299.534884 238.071607 261.76931 219.86019"></polygon>
                    <polygon id="Fill-117" fill="#FF6AA3" points="298.232558 256.28673 336 238.071607 298.236295 219.86019"></polygon>
                    <polygon id="Fill-118" fill="#FF5E2C" points="336 256.28673 373.767442 238.071607 336.003737 219.86019"></polygon>
                    <polygon id="Fill-119" fill="#FF6AA3" points="373.767442 256.28673 411.534884 238.071607 373.771179 219.86019"></polygon>
                    <polygon id="Fill-120" fill="#3A94E1" points="410.232558 256.28673 448 238.071607 410.236295 219.86019"></polygon>
                    <polygon id="Fill-121" fill="#FF6AA3" points="448 256.28673 485.767442 238.071607 448.001868 219.86019"></polygon>
                    <polygon id="Fill-122" fill="#340604" points="485.767442 256.28673 523.534884 238.071607 485.771178 219.86019"></polygon>
                    <polygon id="Fill-123" fill="#FF6AA3" points="522.232558 256.28673 560 238.071607 522.234427 219.86019"></polygon>
                    <polygon id="Fill-124" fill="#340604" points="560 256.28673 597.767442 238.071607 560.003737 219.86019"></polygon>
                    <polygon id="Fill-125" fill="#3A94E1" points="596.465116 256.28673 634.232558 238.071607 596.466985 219.86019"></polygon>
                    <polygon id="Fill-126" fill="#FF6AA3" points="634.232558 256.28673 672 238.072533 634.236295 219.86019"></polygon>
                    <polygon id="Fill-127" fill="#3A94E1" points="0 292.71327 37.7674419 274.495368 0.00560486399 256.28673"></polygon>
                    <polygon id="Fill-128" fill="#340604" points="37.7674419 292.71327 75.5348837 274.496294 37.7693102 256.28673"></polygon>
                    <polygon id="Fill-129" fill="#FF6AA3" points="74.2325581 292.71327 112 274.496294 74.2344265 256.28673"></polygon>
                    <polygon id="Fill-130" fill="#FF6AA3" points="112 292.71327 149.767442 274.496294 112.001868 256.28673"></polygon>
                    <polygon id="Fill-131" fill="#3A94E1" points="149.767442 292.71327 187.534884 274.496294 149.76931 256.28673"></polygon>
                    <polygon id="Fill-132" fill="#FF6AA3" points="186.232558 292.71327 224 274.496294 186.236295 256.28673"></polygon>
                    <polygon id="Fill-133" fill="#FF5E2C" points="224 292.71327 261.767442 274.496294 224.001868 256.28673"></polygon>
                    <polygon id="Fill-134" fill="#FF6AA3" points="261.767442 292.71327 299.534884 274.496294 261.76931 256.28673"></polygon>
                    <polygon id="Fill-135" fill="#FF6AA3" points="298.232558 292.71327 336 274.496294 298.236295 256.28673"></polygon>
                    <polygon id="Fill-136" fill="#340604" points="336 292.71327 373.767442 274.496294 336.003737 256.28673"></polygon>
                    <polygon id="Fill-137" fill="#FF6AA3" points="373.767442 292.71327 411.534884 274.496294 373.771179 256.28673"></polygon>
                    <polygon id="Fill-138" fill="#340604" points="410.232558 292.71327 448 274.496294 410.236295 256.28673"></polygon>
                    <polygon id="Fill-139" fill="#3A94E1" points="448 292.71327 485.767442 274.496294 448.001868 256.28673"></polygon>
                    <polygon id="Fill-140" fill="#FF5E2C" points="485.767442 292.71327 523.534884 274.496294 485.771178 256.28673"></polygon>
                    <polygon id="Fill-141" fill="#FF6AA3" points="522.232558 292.71327 560 274.496294 522.234427 256.28673"></polygon>
                    <polygon id="Fill-142" fill="#FF5E2C" points="560 292.71327 597.767442 274.496294 560.003737 256.28673"></polygon>
                    <polygon id="Fill-143" fill="#FF6AA3" points="596.465116 292.71327 634.232558 274.496294 596.466985 256.28673"></polygon>
                    <polygon id="Fill-144" fill="#340604" points="634.232558 292.71327 672 274.495368 634.236295 256.28673"></polygon>
                    <polygon id="Fill-145" fill="#FF6AA3" points="0 329.13981 37.7674419 310.924687 0.00560486399 292.71327"></polygon>
                    <polygon id="Fill-146" fill="#FF5E2C" points="37.7674419 329.13981 75.5348837 310.92654 37.7693102 292.71327"></polygon>
                    <polygon id="Fill-147" fill="#340604" points="74.2325581 329.13981 112 310.92654 74.2344265 292.71327"></polygon>
                    <polygon id="Fill-148" fill="#3A94E1" points="112 329.13981 149.767442 310.92654 112.001868 292.71327"></polygon>
                    <polygon id="Fill-149" fill="#340604" points="149.767442 329.13981 187.534884 310.92654 149.76931 292.71327"></polygon>
                    <polygon id="Fill-150" fill="#FF6AA3" points="186.232558 329.13981 224 310.92654 186.236295 292.71327"></polygon>
                    <polygon id="Fill-151" fill="#340604" points="224 329.13981 261.767442 310.92654 224.001868 292.71327"></polygon>
                    <polygon id="Fill-152" fill="#FF6AA3" points="261.767442 329.13981 299.534884 310.92654 261.76931 292.71327"></polygon>
                    <polygon id="Fill-153" fill="#3A94E1" points="298.232558 329.13981 336 310.92654 298.236295 292.71327"></polygon>
                    <polygon id="Fill-154" fill="#FF6AA3" points="336 329.13981 373.767442 310.92654 336.003737 292.71327"></polygon>
                    <polygon id="Fill-155" fill="#FF6AA3" points="373.767442 329.13981 411.534884 310.92654 373.771179 292.71327"></polygon>
                    <polygon id="Fill-156" fill="#FF5E2C" points="410.232558 329.13981 448 310.92654 410.236295 292.71327"></polygon>
                    <polygon id="Fill-157" fill="#FF6AA3" points="448 329.13981 485.767442 310.92654 448.001868 292.71327"></polygon>
                    <polygon id="Fill-158" fill="#FF6AA3" points="485.767442 329.13981 523.534884 310.92654 485.771178 292.71327"></polygon>
                    <polygon id="Fill-159" fill="#3A94E1" points="522.232558 329.13981 560 310.92654 522.234427 292.71327"></polygon>
                    <polygon id="Fill-160" fill="#FF6AA3" points="560 329.13981 597.767442 310.92654 560.003737 292.71327"></polygon>
                    <polygon id="Fill-161" fill="#FF6AA3" points="596.465116 329.13981 634.232558 310.92654 596.466985 292.71327"></polygon>
                    <polygon id="Fill-162" fill="#3A94E1" points="634.232558 329.13981 672 310.924687 634.236295 292.71327"></polygon>
                    <polygon id="Fill-163" fill="#FF6AA3" points="0 365.566351 37.7674419 347.351228 0.00560486399 329.13981"></polygon>
                    <polygon id="Fill-164" fill="#340604" points="37.7674419 365.566351 75.5348837 347.351228 37.7693102 329.13981"></polygon>
                    <polygon id="Fill-165" fill="#3A94E1" points="74.2325581 365.566351 112 347.351228 74.2344265 329.13981"></polygon>
                    <polygon id="Fill-166" fill="#FF6AA3" points="112 365.566351 149.767442 347.351228 112.001868 329.13981"></polygon>
                    <polygon id="Fill-167" fill="#FF5E2C" points="149.767442 365.566351 187.534884 347.351228 149.76931 329.13981"></polygon>
                    <polygon id="Fill-168" fill="#FF6AA3" points="186.232558 365.566351 224 347.351228 186.236295 329.13981"></polygon>
                    <polygon id="Fill-169" fill="#340604" points="224 365.566351 261.767442 347.351228 224.001868 329.13981"></polygon>
                    <polygon id="Fill-170" fill="#3A94E1" points="261.767442 365.566351 299.534884 347.351228 261.76931 329.13981"></polygon>
                    <polygon id="Fill-171" fill="#FF6AA3" points="298.232558 365.566351 336 347.351228 298.236295 329.13981"></polygon>
                    <polygon id="Fill-172" fill="#FF5E2C" points="336 365.566351 373.767442 347.351228 336.003737 329.13981"></polygon>
                    <polygon id="Fill-173" fill="#FF6AA3" points="373.767442 365.566351 411.534884 347.351228 373.771179 329.13981"></polygon>
                    <polygon id="Fill-174" fill="#3A94E1" points="410.232558 365.566351 448 347.351228 410.236295 329.13981"></polygon>
                    <polygon id="Fill-175" fill="#FF6AA3" points="448 365.566351 485.767442 347.351228 448.001868 329.13981"></polygon>
                    <polygon id="Fill-176" fill="#340604" points="485.767442 365.566351 523.534884 347.351228 485.771178 329.13981"></polygon>
                    <polygon id="Fill-177" fill="#FF6AA3" points="522.232558 365.566351 560 347.351228 522.234427 329.13981"></polygon>
                    <polygon id="Fill-178" fill="#340604" points="560 365.566351 597.767442 347.351228 560.003737 329.13981"></polygon>
                    <polygon id="Fill-179" fill="#3A94E1" points="596.465116 365.566351 634.232558 347.351228 596.466985 329.13981"></polygon>
                    <polygon id="Fill-180" fill="#FF6AA3" points="634.232558 365.566351 672 347.351228 634.236295 329.13981"></polygon>
                    <polygon id="Fill-181" fill="#3A94E1" points="0 401.992891 37.7674419 383.776842 0.00560486399 365.566351"></polygon>
                    <polygon id="Fill-182" fill="#FF6AA3" points="37.7674419 401.992891 75.5348837 383.775915 37.7693102 365.566351"></polygon>
                    <polygon id="Fill-183" fill="#FF6AA3" points="74.2325581 401.992891 112 383.775915 74.2344265 365.566351"></polygon>
                    <polygon id="Fill-184" fill="#FF6AA3" points="112 401.992891 149.767442 383.775915 112.001868 365.566351"></polygon>
                    <polygon id="Fill-185" fill="#3A94E1" points="149.767442 401.992891 187.534884 383.775915 149.76931 365.566351"></polygon>
                    <polygon id="Fill-186" fill="#FF6AA3" points="186.232558 401.992891 224 383.775915 186.236295 365.566351"></polygon>
                    <polygon id="Fill-187" fill="#FF5E2C" points="224 401.992891 261.767442 383.775915 224.001868 365.566351"></polygon>
                    <polygon id="Fill-188" fill="#FF6AA3" points="261.767442 401.992891 299.534884 383.775915 261.76931 365.566351"></polygon>
                    <polygon id="Fill-189" fill="#FF6AA3" points="298.232558 401.992891 336 383.775915 298.236295 365.566351"></polygon>
                    <polygon id="Fill-190" fill="#340604" points="336 401.992891 373.767442 383.775915 336.003737 365.566351"></polygon>
                    <polygon id="Fill-191" fill="#FF6AA3" points="373.767442 401.992891 411.534884 383.775915 373.771179 365.566351"></polygon>
                    <polygon id="Fill-192" fill="#340604" points="410.232558 401.992891 448 383.775915 410.236295 365.566351"></polygon>
                    <polygon id="Fill-193" fill="#FF6AA3" points="448 401.992891 485.767442 383.775915 448.001868 365.566351"></polygon>
                    <polygon id="Fill-194" fill="#FF5E2C" points="485.767442 401.992891 523.534884 383.775915 485.771178 365.566351"></polygon>
                    <polygon id="Fill-195" fill="#FF6AA3" points="522.232558 401.992891 560 383.775915 522.234427 365.566351"></polygon>
                    <polygon id="Fill-196" fill="#FF5E2C" points="560 401.992891 597.767442 383.775915 560.003737 365.566351"></polygon>
                    <polygon id="Fill-197" fill="#FF6AA3" points="596.465116 401.992891 634.232558 383.775915 596.466985 365.566351"></polygon>
                    <polygon id="Fill-198" fill="#340604" points="634.232558 401.992891 672 383.776842 634.236295 365.566351"></polygon>
                    <polygon id="Fill-199" fill="#FF6AA3" points="0 438.419431 37.7674419 420.206161 0.00560486399 401.992891"></polygon>
                    <polygon id="Fill-200" fill="#FF5E2C" points="37.7674419 438.419431 75.5348837 420.206161 37.7693102 401.992891"></polygon>
                    <polygon id="Fill-201" fill="#340604" points="74.2325581 438.419431 112 420.206161 74.2344265 401.992891"></polygon>
                    <polygon id="Fill-202" fill="#FF6AA3" points="112 438.419431 149.767442 420.206161 112.001868 401.992891"></polygon>
                    <polygon id="Fill-203" fill="#340604" points="149.767442 438.419431 187.534884 420.206161 149.76931 401.992891"></polygon>
                    <polygon id="Fill-204" fill="#FF6AA3" points="186.232558 438.419431 224 420.206161 186.236295 401.992891"></polygon>
                    <polygon id="Fill-205" fill="#FF6AA3" points="224 438.419431 261.767442 420.206161 224.001868 401.992891"></polygon>
                    <polygon id="Fill-206" fill="#FF6AA3" points="261.767442 438.419431 299.534884 420.206161 261.76931 401.992891"></polygon>
                    <polygon id="Fill-207" fill="#3A94E1" points="298.232558 438.419431 336 420.206161 298.236295 401.992891"></polygon>
                    <polygon id="Fill-208" fill="#FF6AA3" points="336 438.419431 373.767442 420.206161 336.003737 401.992891"></polygon>
                    <polygon id="Fill-209" fill="#FF6AA3" points="373.767442 438.419431 411.534884 420.206161 373.771179 401.992891"></polygon>
                    <polygon id="Fill-210" fill="#FF5E2C" points="410.232558 438.419431 448 420.206161 410.236295 401.992891"></polygon>
                    <polygon id="Fill-211" fill="#FF6AA3" points="448 438.419431 485.767442 420.206161 448.001868 401.992891"></polygon>
                    <polygon id="Fill-212" fill="#FF6AA3" points="485.767442 438.419431 523.534884 420.206161 485.771178 401.992891"></polygon>
                    <polygon id="Fill-213" fill="#3A94E1" points="522.232558 438.419431 560 420.206161 522.234427 401.992891"></polygon>
                    <polygon id="Fill-214" fill="#FF6AA3" points="560 438.419431 597.767442 420.206161 560.003737 401.992891"></polygon>
                    <polygon id="Fill-215" fill="#3A94E1" points="596.465116 438.419431 634.232558 420.206161 596.466985 401.992891"></polygon>
                    <polygon id="Fill-216" fill="#3A94E1" points="634.232558 438.419431 672 420.206161 634.236295 401.992891"></polygon>
                    <polygon id="Fill-217" fill="#FF6AA3" points="0 474.845972 37.7674419 456.630848 0.00560486399 438.419431"></polygon>
                    <polygon id="Fill-218" fill="#340604" points="37.7674419 474.845972 75.5348837 456.630848 37.7693102 438.419431"></polygon>
                    <polygon id="Fill-219" fill="#3A94E1" points="74.2325581 474.845972 112 456.630848 74.2344265 438.419431"></polygon>
                    <polygon id="Fill-220" fill="#FF6AA3" points="112 474.845972 149.767442 456.630848 112.001868 438.419431"></polygon>
                    <polygon id="Fill-221" fill="#FF5E2C" points="149.767442 474.845972 187.534884 456.630848 149.76931 438.419431"></polygon>
                    <polygon id="Fill-222" fill="#FF6AA3" points="186.232558 474.845972 224 456.630848 186.236295 438.419431"></polygon>
                    <polygon id="Fill-223" fill="#340604" points="224 474.845972 261.767442 456.630848 224.001868 438.419431"></polygon>
                    <polygon id="Fill-224" fill="#FF6AA3" points="261.767442 474.845972 299.534884 456.630848 261.76931 438.419431"></polygon>
                    <polygon id="Fill-225" fill="#FF6AA3" points="298.232558 474.845972 336 456.630848 298.236295 438.419431"></polygon>
                    <polygon id="Fill-226" fill="#FF5E2C" points="336 474.845972 373.767442 456.630848 336.003737 438.419431"></polygon>
                    <polygon id="Fill-227" fill="#FF6AA3" points="373.767442 474.845972 411.534884 456.630848 373.771179 438.419431"></polygon>
                    <polygon id="Fill-228" fill="#3A94E1" points="410.232558 474.845972 448 456.630848 410.236295 438.419431"></polygon>
                    <polygon id="Fill-229" fill="#FF6AA3" points="448 474.845972 485.767442 456.630848 448.001868 438.419431"></polygon>
                    <polygon id="Fill-230" fill="#340604" points="485.767442 474.845972 523.534884 456.630848 485.771178 438.419431"></polygon>
                    <polygon id="Fill-231" fill="#FF6AA3" points="522.232558 474.845972 560 456.630848 522.234427 438.419431"></polygon>
                    <polygon id="Fill-232" fill="#340604" points="560 474.845972 597.767442 456.630848 560.003737 438.419431"></polygon>
                    <polygon id="Fill-233" fill="#3A94E1" points="596.465116 474.845972 634.232558 456.630848 596.466985 438.419431"></polygon>
                    <polygon id="Fill-234" fill="#FF6AA3" points="634.232558 474.845972 672 456.630848 634.236295 438.419431"></polygon>
                    <polygon id="Fill-235" fill="#3A94E1" points="0 511.272512 37.7674419 493.055536 0.00560486399 474.845972"></polygon>
                    <polygon id="Fill-236" fill="#FF6AA3" points="37.7674419 511.272512 75.5348837 493.055536 37.7693102 474.845972"></polygon>
                    <polygon id="Fill-237" fill="#FF6AA3" points="74.2325581 511.272512 112 493.055536 74.2344265 474.845972"></polygon>
                    <polygon id="Fill-238" fill="#3A94E1" points="112 511.272512 149.767442 493.055536 112.001868 474.845972"></polygon>
                    <polygon id="Fill-239" fill="#3A94E1" points="149.767442 511.272512 187.534884 493.055536 149.76931 474.845972"></polygon>
                    <polygon id="Fill-240" fill="#FF6AA3" points="186.232558 511.272512 224 493.055536 186.236295 474.845972"></polygon>
                    <polygon id="Fill-241" fill="#FF5E2C" points="224 511.272512 261.767442 493.055536 224.001868 474.845972"></polygon>
                    <polygon id="Fill-242" fill="#340604" points="261.767442 511.272512 299.534884 493.055536 261.76931 474.845972"></polygon>
                    <polygon id="Fill-243" fill="#FF6AA3" points="298.232558 511.272512 336 493.055536 298.236295 474.845972"></polygon>
                    <polygon id="Fill-244" fill="#340604" points="336 511.272512 373.767442 493.055536 336.003737 474.845972"></polygon>
                    <polygon id="Fill-245" fill="#FF6AA3" points="373.767442 511.272512 411.534884 493.055536 373.771179 474.845972"></polygon>
                    <polygon id="Fill-246" fill="#340604" points="410.232558 511.272512 448 493.055536 410.236295 474.845972"></polygon>
                    <polygon id="Fill-247" fill="#FF6AA3" points="448 511.272512 485.767442 493.055536 448.001868 474.845972"></polygon>
                    <polygon id="Fill-248" fill="#FF5E2C" points="485.767442 511.272512 523.534884 493.055536 485.771178 474.845972"></polygon>
                    <polygon id="Fill-249" fill="#FF6AA3" points="522.232558 511.272512 560 493.055536 522.234427 474.845972"></polygon>
                    <polygon id="Fill-250" fill="#FF5E2C" points="560 511.272512 597.767442 493.055536 560.003737 474.845972"></polygon>
                    <polygon id="Fill-251" fill="#FF6AA3" points="596.465116 511.272512 634.232558 493.055536 596.466985 474.845972"></polygon>
                    <polygon id="Fill-252" fill="#340604" points="634.232558 511.272512 672 493.055536 634.236295 474.845972"></polygon>
                    <polygon id="Fill-253" fill="#FF6AA3" points="0 549 37.7674419 530.787656 0.00560486399 512.57346"></polygon>
                    <polygon id="Fill-254" fill="#FF5E2C" points="37.7674419 549 75.5348837 530.787656 37.7693102 512.57346"></polygon>
                    <polygon id="Fill-255" fill="#340604" points="74.2325581 549 112 530.787656 74.2344265 512.57346"></polygon>
                    <polygon id="Fill-256" fill="#FF6AA3" points="112 549 149.767442 530.787656 112.001868 512.57346"></polygon>
                    <polygon id="Fill-257" fill="#340604" points="149.767442 549 187.534884 530.787656 149.771179 512.57346"></polygon>
                    <polygon id="Fill-258" fill="#FF6AA3" points="186.232558 549 224 530.787656 186.236295 512.57346"></polygon>
                    <polygon id="Fill-259" fill="#FF6AA3" points="224 549 261.767442 530.787656 224.001868 512.57346"></polygon>
                    <polygon id="Fill-260" fill="#FF6AA3" points="261.767442 549 299.534884 530.787656 261.76931 512.57346"></polygon>
                    <polygon id="Fill-261" fill="#3A94E1" points="298.232558 549 336 530.787656 298.236295 512.57346"></polygon>
                    <polygon id="Fill-262" fill="#FF6AA3" points="336 549 373.767442 530.787656 336.003737 512.57346"></polygon>
                    <polygon id="Fill-263" fill="#FF6AA3" points="373.767442 549 411.534884 530.787656 373.773047 512.57346"></polygon>
                    <polygon id="Fill-264" fill="#FF5E2C" points="410.232558 549 448 530.787656 410.238163 512.57346"></polygon>
                    <polygon id="Fill-265" fill="#FF6AA3" points="448 549 485.767442 530.787656 448.001868 512.57346"></polygon>
                    <polygon id="Fill-266" fill="#FF6AA3" points="485.767442 549 523.534884 530.787656 485.771178 512.57346"></polygon>
                    <polygon id="Fill-267" fill="#3A94E1" points="522.232558 549 560 530.787656 522.234427 512.57346"></polygon>
                    <polygon id="Fill-268" fill="#FF6AA3" points="560 549 597.767442 530.787656 560.003737 512.57346"></polygon>
                    <polygon id="Fill-269" fill="#340604" points="596.465116 549 634.232558 530.787656 596.466985 512.57346"></polygon>
                    <polygon id="Fill-270" fill="#3A94E1" points="634.232558 549 672 530.787656 634.236295 512.57346"></polygon>
                </g>
                <g id="Page-1-Copy-2" transform="translate(1343.000000, 0.000000)">
                    <polygon id="Fill-1" fill="#FF6AA3" points="0.00560486399 0 0 36.4265403 37.7674419 18.2104908"></polygon>
                    <polygon id="Fill-2" fill="#340604" points="37.7693102 0 37.7674419 36.4265403 75.5348837 18.2104908"></polygon>
                    <polygon id="Fill-3" fill="#3A94E1" points="74.2344265 0 74.2325581 36.4265403 112 18.2104908"></polygon>
                    <polygon id="Fill-19" fill="#3A94E1" points="0 72.8530806 37.7674419 54.6361048 0.00560486399 36.4265403"></polygon>
                    <polygon id="Fill-20" fill="#FF6AA3" points="37.7674419 72.8530806 75.5348837 54.6361048 37.7693102 36.4265403"></polygon>
                    <polygon id="Fill-21" fill="#FF6AA3" points="74.2325581 72.8530806 112 54.6361048 74.2344265 36.4265403"></polygon>
                    <polygon id="Fill-37" fill="#FF6AA3" points="0 109.279621 37.7674419 91.0663507 0.00560486399 72.8530806"></polygon>
                    <polygon id="Fill-38" fill="#FF5E2C" points="37.7674419 109.279621 75.5348837 91.0663507 37.7693102 72.8530806"></polygon>
                    <polygon id="Fill-39" fill="#340604" points="74.2325581 109.279621 112 91.0663507 74.2344265 72.8530806"></polygon>
                    <polygon id="Fill-55" fill="#FF6AA3" points="0 145.706161 37.7674419 127.490112 0.00560486399 109.279621"></polygon>
                    <polygon id="Fill-56" fill="#340604" points="37.7674419 145.706161 75.5348837 127.491038 37.7693102 109.279621"></polygon>
                    <polygon id="Fill-57" fill="#3A94E1" points="74.2325581 145.706161 112 127.491038 74.2344265 109.279621"></polygon>
                    <polygon id="Fill-73" fill="#3A94E1" points="0 183.433649 37.7674419 165.215747 0.00560486399 147.007109"></polygon>
                    <polygon id="Fill-74" fill="#FF6AA3" points="37.7674419 183.433649 75.5348837 165.216673 37.7693102 147.007109"></polygon>
                    <polygon id="Fill-75" fill="#FF6AA3" points="74.2325581 183.433649 112 165.216673 74.2344265 147.007109"></polygon>
                    <polygon id="Fill-91" fill="#FF6AA3" points="0 219.86019 37.7674419 201.646919 0.00560486399 183.433649"></polygon>
                    <polygon id="Fill-92" fill="#FF5E2C" points="37.7674419 219.86019 75.5348837 201.646919 37.7693102 183.433649"></polygon>
                    <polygon id="Fill-93" fill="#340604" points="74.2325581 219.86019 112 201.646919 74.2344265 183.433649"></polygon>
                    <polygon id="Fill-109" fill="#FF6AA3" points="0 256.28673 37.7674419 238.072533 0.00560486399 219.86019"></polygon>
                    <polygon id="Fill-110" fill="#340604" points="37.7674419 256.28673 75.5348837 238.071607 37.7693102 219.86019"></polygon>
                    <polygon id="Fill-111" fill="#3A94E1" points="74.2325581 256.28673 112 238.071607 74.2344265 219.86019"></polygon>
                    <polygon id="Fill-127" fill="#3A94E1" points="0 292.71327 37.7674419 274.495368 0.00560486399 256.28673"></polygon>
                    <polygon id="Fill-128" fill="#340604" points="37.7674419 292.71327 75.5348837 274.496294 37.7693102 256.28673"></polygon>
                    <polygon id="Fill-129" fill="#FF6AA3" points="74.2325581 292.71327 112 274.496294 74.2344265 256.28673"></polygon>
                    <polygon id="Fill-145" fill="#FF6AA3" points="0 329.13981 37.7674419 310.924687 0.00560486399 292.71327"></polygon>
                    <polygon id="Fill-146" fill="#FF5E2C" points="37.7674419 329.13981 75.5348837 310.92654 37.7693102 292.71327"></polygon>
                    <polygon id="Fill-147" fill="#340604" points="74.2325581 329.13981 112 310.92654 74.2344265 292.71327"></polygon>
                    <polygon id="Fill-163" fill="#FF6AA3" points="0 365.566351 37.7674419 347.351228 0.00560486399 329.13981"></polygon>
                    <polygon id="Fill-164" fill="#340604" points="37.7674419 365.566351 75.5348837 347.351228 37.7693102 329.13981"></polygon>
                    <polygon id="Fill-165" fill="#3A94E1" points="74.2325581 365.566351 112 347.351228 74.2344265 329.13981"></polygon>
                    <polygon id="Fill-181" fill="#3A94E1" points="0 401.992891 37.7674419 383.776842 0.00560486399 365.566351"></polygon>
                    <polygon id="Fill-182" fill="#FF6AA3" points="37.7674419 401.992891 75.5348837 383.775915 37.7693102 365.566351"></polygon>
                    <polygon id="Fill-183" fill="#FF6AA3" points="74.2325581 401.992891 112 383.775915 74.2344265 365.566351"></polygon>
                    <polygon id="Fill-199" fill="#FF6AA3" points="0 438.419431 37.7674419 420.206161 0.00560486399 401.992891"></polygon>
                    <polygon id="Fill-200" fill="#FF5E2C" points="37.7674419 438.419431 75.5348837 420.206161 37.7693102 401.992891"></polygon>
                    <polygon id="Fill-201" fill="#340604" points="74.2325581 438.419431 112 420.206161 74.2344265 401.992891"></polygon>
                    <polygon id="Fill-217" fill="#FF6AA3" points="0 474.845972 37.7674419 456.630848 0.00560486399 438.419431"></polygon>
                    <polygon id="Fill-218" fill="#340604" points="37.7674419 474.845972 75.5348837 456.630848 37.7693102 438.419431"></polygon>
                    <polygon id="Fill-219" fill="#3A94E1" points="74.2325581 474.845972 112 456.630848 74.2344265 438.419431"></polygon>
                    <polygon id="Fill-235" fill="#3A94E1" points="0 511.272512 37.7674419 493.055536 0.00560486399 474.845972"></polygon>
                    <polygon id="Fill-236" fill="#FF6AA3" points="37.7674419 511.272512 75.5348837 493.055536 37.7693102 474.845972"></polygon>
                    <polygon id="Fill-237" fill="#FF6AA3" points="74.2325581 511.272512 112 493.055536 74.2344265 474.845972"></polygon>
                    <polygon id="Fill-253" fill="#FF6AA3" points="0 549 37.7674419 530.787656 0.00560486399 512.57346"></polygon>
                    <polygon id="Fill-254" fill="#FF5E2C" points="37.7674419 549 75.5348837 530.787656 37.7693102 512.57346"></polygon>
                    <polygon id="Fill-255" fill="#340604" points="74.2325581 549 112 530.787656 74.2344265 512.57346"></polygon>
                </g>
            </g>
        </g>
    </g>
</svg>