<?xml version="1.0" encoding="UTF-8" standalone="no"?>
<svg width="112px" height="43px" viewBox="0 0 112 43" version="1.1" xmlns="http://www.w3.org/2000/svg" xmlns:xlink="http://www.w3.org/1999/xlink">
    <!-- Generator: Sketch 3.8.3 (29802) - http://www.bohemiancoding.com/sketch -->
    <title>Page 1 Copy 4</title>
    <desc>Created with Sketch.</desc>
    <defs>
        <polygon id="path-1" points="26.5297754 32.0129635 26.5297754 0.038793012 0.0183902857 0.038793012 0.0183902857 32.0129635"></polygon>
        <polygon id="path-3" points="0 0.0469719451 0 14.0039443 9.61640531 14.0039443 9.61640531 0.0469719451 2.63119938e-21 0.0469719451"></polygon>
    </defs>
    <g id="Boostrap-3-Grid" stroke="none" stroke-width="1" fill="none" fill-rule="evenodd">
        <g id="MVDSoundCity-Site-v1-Copy-3" transform="translate(-448.000000, -5045.000000)">
            <g id="Group-22" transform="translate(110.000000, 4991.000000)">
                <g id="Group-24" transform="translate(160.000000, 54.000000)">
                    <g id="Page-1-Copy-4" transform="translate(178.513514, 0.000000)">
                        <path d="M72.7996222,1.35558801 C72.7996222,1.35558801 70.0990201,2.07494994 72.9964885,3.89577363 C75.8941511,5.71542253 84.2631054,10.6655881 96.3012674,7.22933282 C91.9376885,14.0805992 88.8339376,21.0713718 88.8339376,21.0713718 C88.8339376,21.0713718 84.9209767,27.9025689 85.5297286,39.1463681 C85.8484229,44.3624274 88.0189032,41.5057342 88.0189032,41.5057342 C88.0189032,41.5057342 89.7893411,30.2695712 93.9732358,22.9749201 C98.1579071,15.681346 101.530165,10.6349457 102.807855,8.98094191 C104.084671,7.32703603 108.198963,3.21371123 106.158756,1.0408427 C104.119035,-1.13192793 100.309652,0.694867594 98.6401713,1.18103408 C96.9707876,1.66739636 90.0048456,2.97513134 86.9715705,2.96788681 C83.9376159,2.96103388 72.7996222,1.35558801 72.7996222,1.35558801" id="Fill-1" fill="#340604"></path>
                        <g id="Group-5" transform="translate(84.551561, 10.273424)">
                            <mask id="mask-2" fill="white">
                                <use xlink:href="#path-1"></use>
                            </mask>
                            <g id="Clip-4"></g>
                            <path d="M0.883345397,1.06376085 C0.883345397,1.06376085 -1.15851171,1.60798145 1.03216003,2.98463733 C3.22351128,4.36070582 9.55216166,8.10328708 18.6540256,5.50524315 C15.3544761,10.6856672 13.0075151,15.9713326 13.0075151,15.9713326 C13.0075151,15.9713326 10.0493753,21.1366802 10.5094096,29.6389155 C10.7498622,33.5824835 12.3915798,31.4228313 12.3915798,31.4228313 C12.3915798,31.4228313 13.7299407,22.9265678 16.8939747,17.4112313 C20.057232,11.8954052 22.6077575,8.07988921 23.5732568,6.82962095 C24.5392414,5.5792548 27.6503699,2.46870955 26.1078621,0.82576836 C24.5646748,-0.817270726 21.6851651,0.564378003 20.4227161,0.931988786 C19.1595876,1.29969747 13.8930252,2.28857537 11.5993578,2.28309303 C9.30549631,2.27780648 0.883345397,1.06376085 0.883345397,1.06376085" id="Fill-3" fill="#340604" mask="url(#mask-2)"></path>
                        </g>
                        <polygon id="Fill-6" fill="#340604" points="34.112837 35.0647822 34.112837 35.6502182 31.0086007 35.6502182 31.0086007 42.1935923 30.3017069 42.1935923 30.3017069 35.6502182 27.0543834 35.6502182 27.0543834 35.0647822"></polygon>
                        <path d="M37.1143592,38.4170596 L40.9905289,38.4170596 L41.2257395,38.4170596 C41.3073788,38.4170596 41.3892123,38.413829 41.4711429,38.4070739 C41.6210253,38.4003189 41.7692575,38.3869067 41.9159365,38.3666416 C42.0625184,38.3462787 42.2022081,38.3095665 42.3352967,38.2556242 C42.4681912,38.2017797 42.591087,38.1294323 42.7034989,38.0383863 C42.8159107,37.9476339 42.9097814,37.8280013 42.9847226,37.6800759 C43.0120004,37.6262314 43.0458793,37.5387097 43.0869417,37.4174128 C43.1278099,37.2963118 43.1482925,37.1549456 43.1482925,36.9933143 C43.1482925,36.9529799 43.1433417,36.8873876 43.1329548,36.7963415 C43.122762,36.705687 43.0987847,36.6079838 43.0613141,36.5036235 C43.0241347,36.3994589 42.9675405,36.2915742 42.8926963,36.1805568 C42.817658,36.0695393 42.7186424,35.9735982 42.596232,35.8927337 C42.4187805,35.7784855 42.2312333,35.7109352 42.0336874,35.6908659 C41.8357533,35.6706008 41.6347128,35.6606151 41.4301776,35.6606151 L37.1143592,35.6606151 L37.1143592,38.4170596 Z M44.2445506,42.1936119 L43.2723532,42.1936119 L40.4182769,39.012873 L37.1143592,39.012873 L37.1143592,42.1936119 L36.4075625,42.1936119 L36.4075625,35.0648017 L41.4067827,35.0648017 L41.6629613,35.0648017 C41.7516871,35.0648017 41.8405099,35.0681303 41.9294298,35.0747874 C42.004274,35.0747874 42.1084345,35.0816404 42.2416202,35.0950525 C42.3748059,35.1084647 42.5199317,35.1422398 42.6769976,35.1960843 C42.8341606,35.2498309 42.9929739,35.3322618 43.1534374,35.4433772 C43.313998,35.5543947 43.4590268,35.7042781 43.5887178,35.8927337 C43.6640473,36.0073734 43.7220006,36.1198594 43.7630629,36.2309747 C43.8039311,36.3419922 43.8346066,36.4481147 43.8550892,36.5491465 C43.875766,36.6500804 43.8892593,36.742595 43.8962486,36.8267881 C43.9028497,36.9110792 43.9064414,36.9766715 43.9064414,37.023663 C43.9064414,37.0976747 43.8996462,37.1953779 43.8858617,37.3163811 C43.8721742,37.4376779 43.841693,37.5690584 43.7940296,37.7104246 C43.746075,37.8517908 43.6729781,37.9965834 43.5739625,38.1446067 C43.475044,38.2927279 43.3404022,38.4307655 43.16994,38.5583279 C42.8972588,38.7537343 42.6039979,38.8751291 42.2901573,38.9220227 C41.9766078,38.969308 41.6593696,38.9993629 41.339025,39.012873 L44.2445506,42.1936119 Z" id="Fill-8" fill="#340604"></path>
                        <path d="M48.1681119,39.7802838 L52.2659018,39.7802838 L50.1964757,35.7009299 L48.1681119,39.7802838 Z M54.2328177,42.1935923 L53.4848616,42.1935923 L52.5527559,40.3457485 L47.8915477,40.3457485 L46.9693435,42.1935923 L46.2419671,42.1935923 L49.8073055,35.0647822 L50.58584,35.0647822 L54.2328177,42.1935923 Z" id="Fill-10" fill="#340604"></path>
                        <polygon id="Fill-12" fill="#340604" points="62.3261398 35.0647822 58.9762088 42.1935923 58.2999905 42.1935923 54.8886117 35.0647822 55.6672432 35.0647822 58.6585823 41.4465249 61.5578952 35.0647822"></polygon>
                        <polygon id="Fill-14" fill="#340604" points="71.566577 35.0748266 71.566577 35.6605564 65.3481057 35.6605564 65.3481057 38.1646172 71.0952821 38.1646172 71.0952821 38.7603327 65.3481057 38.7603327 65.3481057 41.5978376 71.8636238 41.5978376 71.8636238 42.193651 64.6413091 42.193651 64.6413091 35.0748266"></polygon>
                        <polygon id="Fill-16" fill="#340604" points="75.7664501 41.5978181 81.0322359 41.5978181 81.0322359 42.1936314 75.0494606 42.1936314 75.0494606 35.0648213 75.7664501 35.0648213"></polygon>
                        <g id="Group-20" transform="translate(0.000000, 17.224254)">
                            <mask id="mask-4" fill="white">
                                <use xlink:href="#path-3"></use>
                            </mask>
                            <g id="Clip-19"></g>
                            <path d="M9.61640531,9.87064812 C9.61640531,12.6260158 7.6590027,14.0039443 3.7433238,14.0039443 C2.314781,14.0039443 1.06689315,13.843292 -4.8537062e-05,13.5216938 L0.449695875,10.8074437 C1.55168132,11.2208713 2.6497838,11.427634 3.7433238,11.427634 C4.80162588,11.427634 5.53560333,11.3358047 5.94593565,11.1519504 C6.35587967,10.9682918 6.56080314,10.6604973 6.56080314,10.2287627 C6.56080314,9.55844817 5.82022466,8.91995083 4.33877647,8.31366226 C3.04244863,7.78109164 2.09849985,7.25752774 1.50770674,6.74306844 C0.696167073,6.02654558 0.291076758,5.14946835 0.291076758,4.11144515 C0.291076758,2.8899592 0.727619089,1.90695524 1.60041253,1.16302066 C2.47369134,0.418988184 3.7433238,0.0469719451 5.41018356,0.0469719451 C6.97074716,0.0469719451 8.19640504,0.189512904 9.08744842,0.474105326 L8.637704,3.20215914 C7.64114106,2.79803203 6.5650744,2.59587057 5.41018356,2.59587057 C3.99921118,2.59587057 3.29348231,2.97258596 3.29348231,3.72572305 C3.29348231,4.11144515 3.44346183,4.42158921 3.7433238,4.65576364 C4.04318576,4.89003598 4.65591763,5.18598468 5.58210183,5.54439296 C6.86066511,6.03124474 7.79112058,6.53190027 8.37298287,7.04606588 C9.20180173,7.78109164 9.61640531,8.72239063 9.61640531,9.87064812" id="Fill-18" fill="#340604" mask="url(#mask-4)"></path>
                        </g>
                        <path d="M20.248303,22.7822842 C20.248303,20.6698194 19.383955,19.613587 17.6557444,19.613587 C16.0066492,19.613587 15.0279479,20.7067273 14.7191551,22.8925185 L20.248303,22.7822842 Z M23.3437056,22.9064202 C23.3437056,23.3749648 23.3173985,23.9858547 23.264396,24.738796 L14.7457534,24.8904415 C14.8690376,25.9285626 15.2967462,26.7918361 16.028588,27.4807514 C16.7608181,28.1696668 17.7217548,28.5139776 18.9121748,28.5139776 C20.235198,28.5139776 21.641705,28.3072149 23.1318899,27.8939831 L22.8676541,30.5670177 C21.6505387,31.0261641 20.1424922,31.2559331 18.3434175,31.2559331 C16.0683884,31.2559331 14.3245488,30.590024 13.1119959,29.2579122 C11.8995401,27.9262898 11.293021,26.3233893 11.293021,24.4497002 C11.293021,22.4931885 11.8686706,20.7963049 13.0196785,19.3585601 C14.170298,17.9212068 15.7686235,17.2023344 17.8144606,17.2023344 C19.6839141,17.2023344 21.0728506,17.7306953 21.9812703,18.7867319 C22.8892045,19.8432581 23.3437056,21.2164875 23.3437056,22.9064202 L23.3437056,22.9064202 Z" id="Fill-21" fill="#340604"></path>
                        <path d="M37.0316035,17.7672998 C37.0316035,18.3000662 36.2421967,20.4815498 34.6637715,24.3117507 C33.085055,28.1419516 32.2960365,30.3235331 32.2960365,30.8562016 L28.6848792,30.8562016 C28.6848792,30.2684159 27.9835186,28.0343605 26.58138,24.1532522 C25.1795326,20.2726333 24.4782691,18.1440151 24.4782691,17.7672998 L28.3409455,17.7672998 C28.3409455,18.1806294 28.775061,19.7766769 29.6435832,22.5550508 C30.5122024,25.3338163 30.9467062,26.9662823 30.9467062,27.4530362 L31.1187216,27.4530362 C31.1187216,27.0122949 31.5328398,25.4691128 32.3620469,22.8236857 C33.1908658,20.1783566 33.6054694,18.4929272 33.6054694,17.7672998 L37.0316035,17.7672998 Z" id="Fill-23" fill="#340604"></path>
                        <path d="M46.4306307,22.7822842 C46.4306307,20.6698194 45.5663798,19.613587 43.8380721,19.613587 C42.1889769,19.613587 41.2098873,20.7067273 40.9014828,22.8925185 L46.4306307,22.7822842 Z M49.5260333,22.9064202 C49.5260333,23.3749648 49.4993379,23.9858547 49.4463354,24.738796 L40.9276928,24.8904415 C41.050977,25.9285626 41.4786855,26.7918361 42.2109156,27.4807514 C42.9427575,28.1696668 43.9040825,28.5139776 45.0945025,28.5139776 C46.4171374,28.5139776 47.8239356,28.3072149 49.3143146,27.8939831 L49.0494964,30.5670177 C47.8328664,31.0261641 46.3248199,31.2559331 44.5257452,31.2559331 C42.250716,31.2559331 40.5063911,30.590024 39.2943236,29.2579122 C38.0814795,27.9262898 37.4753487,26.3233893 37.4753487,24.4497002 C37.4753487,22.4931885 38.0509983,20.7963049 39.2016178,19.3585601 C40.3522374,17.9212068 41.9505629,17.2023344 43.9968854,17.2023344 C45.8662418,17.2023344 47.25479,17.7306953 48.1632097,18.7867319 C49.0716293,19.8432581 49.5260333,21.2164875 49.5260333,22.9064202 L49.5260333,22.9064202 Z" id="Fill-25" fill="#340604"></path>
                        <path d="M63.7293559,30.856182 L60.210516,30.856182 C60.4044701,28.532549 60.5018355,26.1811127 60.5018355,23.801971 C60.5018355,22.3599185 60.2965237,21.3818095 59.8865797,20.8672523 C59.4765386,20.3529888 58.852352,20.0957102 58.0146994,20.0957102 C57.0095939,20.0957102 56.0572968,20.4540206 55.1577109,21.1704456 C55.2017825,24.7524724 55.2238183,27.9813776 55.2238183,30.856182 L51.6656634,30.856182 C51.8242825,27.9813776 51.9035921,25.7218684 51.9035921,24.0776546 C51.9035921,21.8822693 51.6876022,19.8111178 51.2556223,17.8637107 L54.641956,17.4779886 L54.8667797,18.938446 L55.0781101,18.938446 C56.2862946,17.8546061 57.6755224,17.3125393 59.2450168,17.3125393 C60.6030838,17.3125393 61.6897315,17.6455917 62.5058337,18.3115008 C63.3211592,18.9776056 63.7293559,20.2059445 63.7293559,21.9971048 C63.7293559,22.2635859 63.7179012,22.6195467 63.6963507,23.0647914 C63.6738295,23.5105256 63.6632484,23.9673224 63.6632484,24.4357691 C63.6632484,25.6758559 63.684896,27.8160262 63.7293559,30.856182" id="Fill-27" fill="#340604"></path>
                        <path d="M71.1862406,13.5925433 C71.1862406,15.9991947 69.7798307,18.5480933 66.9669138,21.2393371 L65.7896959,20.1922093 C66.9885614,18.8053719 67.5885765,17.2943007 67.5885765,15.6592893 C66.9182797,15.2368551 66.5832769,14.5617435 66.5832769,13.6338567 C66.5832769,12.9635422 66.8055766,12.3825115 67.2511469,11.8910585 C67.6963288,11.3997034 68.3158558,11.153879 69.1094368,11.153879 C69.7620661,11.153879 70.2715111,11.4018572 70.6374806,11.8979114 C71.0033529,12.3938678 71.1862406,12.958843 71.1862406,13.5925433" id="Fill-29" fill="#340604"></path>
                        <path d="M80.8606671,27.0949021 C80.8606671,29.8502697 78.9032645,31.2281983 74.9876827,31.2281983 C73.5591399,31.2281983 72.3111549,31.067546 71.2442132,30.7459477 L71.6940547,28.0316977 C72.7960402,28.4451252 73.8941427,28.6518879 74.9876827,28.6518879 C76.0459847,28.6518879 76.7798651,28.5600586 77.1901974,28.3762043 C77.6001415,28.1925458 77.8050649,27.8847513 77.8050649,27.4530166 C77.8050649,26.7827021 77.0643894,26.1442048 75.5830382,25.5379162 C74.2867104,25.0053456 73.3427616,24.4817817 72.7519685,23.9673224 C71.9405259,23.2507995 71.5353385,22.3737223 71.5353385,21.3356991 C71.5353385,20.1142131 71.9719779,19.1312092 72.8446743,18.3872746 C73.7179531,17.6432421 74.9876827,17.2712259 76.6545424,17.2712259 C78.215106,17.2712259 79.4407639,17.4137668 80.3317102,17.6983593 L79.8819658,20.4264131 C78.8854999,20.022286 77.8094333,19.8201245 76.6545424,19.8201245 C75.243473,19.8201245 74.5378412,20.1968399 74.5378412,20.949977 C74.5378412,21.3356991 74.6877236,21.6458432 74.9876827,21.8800176 C75.2874475,22.1142899 75.9001794,22.4102386 76.8263636,22.7686469 C78.105024,23.2554987 79.0353824,23.7561542 79.6172447,24.2703198 C80.4461606,25.0053456 80.8606671,25.9466446 80.8606671,27.0949021" id="Fill-31" fill="#340604"></path>
                    </g>
                </g>
            </g>
        </g>
    </g>
</svg>