<?xml version="1.0" encoding="UTF-8" standalone="no"?>
<svg width="145px" height="38px" viewBox="0 0 145 38" version="1.1" xmlns="http://www.w3.org/2000/svg" xmlns:xlink="http://www.w3.org/1999/xlink">
    <!-- Generator: Sketch 3.8.3 (29802) - http://www.bohemiancoding.com/sketch -->
    <title>Page 1 Copy 5</title>
    <desc>Created with Sketch.</desc>
    <defs>
        <polygon id="path-1" points="56.6770969 0.182817883 0.0731784123 0.182817883 0.0731784123 6.27531074 56.6770969 6.27531074 56.6770969 0.182817883"></polygon>
    </defs>
    <g id="Boostrap-3-Grid" stroke="none" stroke-width="1" fill="none" fill-rule="evenodd">
        <g id="MVDSoundCity-Site-v1-Copy-3" transform="translate(-270.000000, -5047.000000)">
            <g id="Group-22" transform="translate(110.000000, 4991.000000)">
                <g id="Group-24" transform="translate(160.000000, 54.000000)">
                    <g id="Page-1-Copy-5" transform="translate(0.000000, 2.324324)">
                        <path d="M19.2219693,23.8931156 C20.6379786,21.9401619 22.3330933,19.8582624 23.6682175,18.2229808 C24.6450868,17.0284084 25.9868067,15.7208782 27.0959387,15.7187928 C28.8281981,15.7149696 27.4073288,19.14993 25.1866348,21.9387716 C22.9294904,24.7738391 20.0849747,28.2741411 18.0437552,28.2748363 C16.5642183,28.275879 17.6063511,26.1286377 19.2219693,23.8931156 L19.2219693,23.8931156 Z M0.000138858464,31.8192788 L0.000138858464,31.8192788 C3.51013377,30.5600598 6.05367374,31.8463887 7.66651484,31.8401326 C8.34865706,31.8376996 8.82147014,31.7024978 9.21686963,31.1418795 C8.17230681,31.5770277 6.47163773,30.9204821 4.14853557,30.9246529 C3.35461228,30.9284761 2.696076,30.9868666 2.15313939,31.0758426 C3.99231979,30.6354809 6.46469481,29.9740694 8.67914021,26.9043973 C11.841989,22.5205913 15.3301137,18.1329621 18.4745636,13.7425524 C20.498773,10.916174 22.8645741,8.8436587 24.6704285,8.53710856 C31.6341806,8.48705956 37.1597062,6.71692367 37.603359,5.14072766 C37.4832464,5.1459411 37.3641752,5.1515021 37.2444098,5.15671553 C37.2444098,5.15671553 36.9576671,6.16742733 33.6604728,6.19731771 C27.856536,6.24979965 22.3212903,4.51268219 16.1330627,4.54674332 C9.80007519,4.58149957 2.22291577,8.60175519 2.23159443,14.5398608 C2.2343716,15.4059866 2.63671401,15.4254501 2.79501266,15.4195415 C3.13313303,15.4039012 3.4712534,15.3882609 3.81006806,15.3726206 C3.81006806,15.3726206 3.10570848,15.1536562 3.10223702,13.3362518 C3.09668268,11.1149797 5.57148771,7.00262006 10.0232902,6.98663218 C15.4342575,6.96369305 18.7377004,8.42171781 23.8709508,8.53050487 C20.0471358,8.80994514 15.0607282,11.9404407 11.9971633,16.2234536 C12.0041062,16.2258865 2.95296417,28.2498118 2.08509875,29.5729823 C1.30401987,30.7772864 0.242446884,31.6333329 0.000138858464,31.8192788 L0.000138858464,31.8192788 Z M17.672656,20.3382462 C14.1699512,24.7866989 15.3682997,28.7218017 17.8424105,28.7228444 C20.1137879,28.7218017 22.4021754,25.7720386 24.6652213,22.8744099 C22.6812809,25.685148 22.9121331,28.7892288 25.5681484,28.7836678 C27.0646956,28.7791495 30.6437726,28.2112323 35.9554561,20.8748827 C31.2280196,26.6180058 27.687823,28.2842205 26.087132,28.2894339 C25.1029726,28.2911717 25.0023002,27.0632333 26.5228004,25.0484134 C28.9594194,21.8219906 31.2589156,18.8722275 33.6851202,15.6409388 L29.9175428,15.6409388 C29.0184342,16.8977249 28.2439511,17.8893207 27.3431068,19.1450641 C28.4209957,17.1921103 28.8254209,15.2909434 26.8105846,15.294419 C24.2299,15.3034556 19.9016815,17.5049166 17.672656,20.3382462 L17.672656,20.3382462 Z M42.2700449,27.7058764 C42.2676149,26.2440285 49.0754984,21.468172 49.0577939,17.4618188 C49.0525867,16.364564 48.5579034,15.2057906 47.1686245,15.2106564 C44.763943,15.2189979 38.698258,22.2710414 35.6232372,25.9044599 C36.7459079,24.4380937 37.86719,22.9724225 38.9874307,21.5050136 C42.3023295,17.1611773 43.5989204,15.6409388 43.5992676,15.6409388 C42.3811317,15.6419815 41.1650786,15.6409388 39.9462484,15.6409388 C36.7202191,19.8773783 33.4962726,24.0974824 30.2525388,28.3266231 L33.8062742,28.3266231 C35.2018018,26.4077304 44.647649,15.7278295 46.9825541,15.7163599 C47.3217159,15.7146221 47.5275736,15.9940623 47.5282679,16.2092035 C47.5365994,17.7655885 40.5929818,22.4701947 40.5964532,26.1112596 C40.5985361,27.3694359 41.1133539,28.8069545 42.5796993,28.8020886 C46.2788889,28.7944422 50.3776437,22.9411419 51.4003363,21.2116708 C50.5342066,22.6057441 45.9098725,28.3002083 42.9737102,28.306812 C42.6008752,28.3061169 42.2710863,28.173348 42.2700449,27.7058764 L42.2700449,27.7058764 Z M59.8540398,22.0152354 C57.5857867,24.8436991 53.8348724,28.1976774 51.9772932,28.1896835 C51.3659688,28.186903 50.9046115,27.4173995 52.5237013,25.3699088 C54.4031506,22.9960568 56.2798228,20.6215097 58.1530235,18.2452248 C59.1094112,17.0325791 60.3275471,15.7330429 61.53145,15.736171 C63.8680909,15.7399941 62.0879254,19.236473 59.8540398,22.0152354 L59.8540398,22.0152354 Z M54.7086393,33.7294824 C59.3833096,27.7093521 64.0413168,21.6760143 68.6781482,15.6409388 C67.3954431,15.6402437 66.0974636,15.6409388 64.8237843,15.6409388 C63.7521441,17.12086 62.6815453,18.6035617 61.6078222,20.0827878 C62.9998783,17.8444852 63.8434435,15.2916385 61.4845853,15.2874677 C58.7337991,15.2822543 54.2202046,17.6140512 51.9786818,20.4334784 C48.454801,24.8694187 49.2820504,28.7284054 51.7551197,28.7391798 C54.0153884,28.748564 57.1039478,25.7098249 59.6197161,22.724958 C53.3992039,30.7230666 49.7402833,35.45374 48.3749574,36.9082892 C49.4951981,36.5190191 51.0490244,36.3869454 52.4087959,36.0637123 C57.9360572,34.7565296 61.8011826,31.520375 68.4250787,22.2790353 C65.1664176,26.3983462 61.7518879,30.0536612 59.4985621,31.9555233 C56.0989597,34.8229141 52.9354166,35.400563 52.9354166,35.400563 C52.9354166,35.400563 53.7821061,34.9171035 54.7086393,33.7294824 L54.7086393,33.7294824 Z M86.0646169,27.483784 C86.060104,25.9701492 87.8503368,23.8100482 89.5753061,21.5891237 C90.5275281,20.3653561 91.4787086,19.1408934 92.4281533,17.9167782 C94.6141327,15.1022169 95.7628394,15.3124922 95.7687409,16.3364114 C95.7749895,17.3436476 94.1197966,19.76164 92.23028,21.4090863 C90.6309776,22.8014218 88.8976768,23.6220169 87.5535268,24.2604892 C87.5545683,24.2629222 96.5633585,21.1199143 96.5352396,16.7534864 C96.5296853,15.8856228 96.0048003,15.2262967 94.8248505,15.2325529 C92.9992088,15.2429797 88.8178332,17.6804357 86.4551564,20.3382462 C86.2801947,20.5335764 86.1149531,20.7341199 85.9622088,20.9325781 C85.8552878,21.0722983 85.7518382,21.212366 85.653943,21.3548666 C81.8769927,26.0382715 78.7370556,28.3095925 77.220374,28.3113303 C76.2025414,28.312373 76.8652435,26.7698906 78.2670197,24.9754253 C80.7956324,21.7403134 85.5279289,15.6409388 85.5279289,15.6409388 L81.7120983,15.6409388 C81.7120983,15.6409388 79.7038577,18.3255117 78.6915794,19.6705786 C74.052318,25.443592 70.6926374,28.3360073 69.2332349,28.3353121 C68.0588395,28.3342695 68.620522,26.8925801 70.0278525,25.1026332 C72.5005747,21.9516314 74.9684368,18.7981967 77.4307446,15.6430242 C76.1240864,15.644762 73.6277583,15.6409388 73.6277583,15.6409388 C73.6277583,15.6409388 70.3729158,19.7706766 68.7562561,21.8306797 C66.4015636,24.8301442 66.1016294,28.8531803 68.8506799,28.8552657 C70.4840026,28.8556132 72.5415379,27.6294127 76.2219816,22.9741603 C74.4334845,25.6841053 74.5900475,28.8048691 77.0179878,28.8020886 C78.6058343,28.7996557 80.797021,27.9377006 85.2547249,21.9870828 C83.3492396,25.2851035 84.1730174,28.6953869 86.7984839,28.6863503 C92.3507397,28.6689722 99.8497913,18.3932864 99.8449312,18.3915486 C99.8497913,18.3936339 91.5349462,28.3189767 87.0428748,28.3318365 C86.432939,28.3342695 86.0666998,28.0850671 86.0646169,27.483784 L86.0646169,27.483784 Z M108.951617,15.2937239 C107.085359,15.2958092 102.936268,19.4516142 97.1597556,26.7132379 C97.5443936,26.130028 97.9293787,25.5464705 98.312628,24.9636082 C100.707242,21.8612652 103.098385,18.7481477 105.481196,15.6409388 L101.911492,15.6409388 C98.7340635,19.8718173 95.5510803,24.1030434 92.3569884,28.3266231 C93.6015074,28.3294036 94.8578294,28.3252328 96.103737,28.3266231 C97.5482122,26.1769489 104.82266,17.9591808 106.62539,17.1184271 C105.998791,17.5890267 105.256593,19.6608469 106.74342,19.6591091 C109.483792,19.6552859 111.412536,15.288858 108.951617,15.2937239 L108.951617,15.2937239 Z M115.333552,22.1740714 C113.555469,24.4099411 110.527313,28.3384402 108.204558,28.3266231 C105.448218,28.3161962 110.908827,22.0128024 113.775907,18.3724326 C114.730559,17.1646529 116.128864,15.7594576 117.333808,15.7622381 C118.958799,15.7677991 117.445589,19.5211267 115.333205,22.1740714 L115.333552,22.1740714 Z M116.486771,25.4846044 C119.05843,22.2216875 121.683202,18.9090692 124.244794,15.6409388 L120.442502,15.6409388 C119.258386,17.2466776 118.073924,18.8517213 116.887725,20.4564175 C118.332895,18.1517304 119.120222,15.2885104 117.285555,15.2839921 C114.534768,15.2759982 110.321803,17.6533258 108.07785,20.4727529 C104.555358,24.904175 105.629775,28.7603811 108.100067,28.7704604 C110.810932,28.7854056 113.161111,25.2739815 115.632792,22.1546079 C113.564148,24.954224 113.127785,28.7499542 115.669936,28.7586433 C118.080867,28.765247 121.523168,25.7581361 123.941735,21.9592778 C121.482552,25.1113223 118.029836,28.3210621 115.898706,28.3130681 C115.004804,28.3106352 115.078747,27.2738562 116.486771,25.4846044 L116.486771,25.4846044 Z M141.186916,15.6409388 L137.531119,15.6409388 C137.531119,15.6409388 135.641256,18.0895167 134.706044,19.305638 C132.236793,22.4545544 126.3971,28.2261775 124.728021,28.2171409 C123.900078,28.2119275 123.734142,26.933245 124.988034,25.4230858 C127.69265,22.1646872 133.083135,15.6419815 133.083135,15.6419815 L129.121503,15.6409388 C129.121503,15.6409388 125.642404,19.891976 123.890011,22.0228817 C121.564826,24.8489126 121.815465,28.6863503 124.336788,28.701643 C126.450908,28.7117224 130.600693,24.4297522 133.234144,21.2175794 C131.740027,23.1573258 130.245215,25.0960295 128.74728,27.0340381 C125.973235,30.6271394 122.835033,34.7391515 120.808047,36.798807 C120.891015,36.8672768 120.973636,36.937832 121.055215,37.0063018 C122.570855,36.1947433 128.944459,35.5048317 133.230673,32.4341169 C137.328386,29.4999941 139.919832,24.6122225 137.986922,21.8077405 C139.224498,24.9312849 136.331035,29.2083892 134.081181,31.1161598 C130.024431,34.5549434 125.51639,35.311587 125.51639,35.3108918 C125.51639,35.3108918 126.11973,34.703005 127.055984,33.5226827 C131.77856,27.5765832 141.186916,15.6409388 141.186916,15.6409388 L141.186916,15.6409388 Z" id="Fill-1" fill="#30100F"></path>
                        <path d="M140.295861,33.0360257 C140.297596,32.6756033 140.300027,32.3155286 140.300027,31.9551062 L141.037018,31.9551062 C141.577872,31.9596246 141.861143,32.1473083 141.861143,32.490005 C141.854894,32.8869213 141.618488,33.0401964 140.949884,33.038111 C140.730141,33.038111 140.512827,33.038111 140.295861,33.0360257 L140.295861,33.0360257 Z M139.503673,31.3329693 C139.503673,32.6502313 139.499507,33.9678408 139.497077,35.2833649 C139.760909,35.2854503 140.025087,35.2854503 140.289265,35.2878832 C140.289265,34.7481186 140.291695,34.2069638 140.291695,33.6651138 L140.449299,33.6651138 C140.974879,33.6651138 141.222394,33.8569683 141.626472,34.6417645 C141.735476,34.8565581 141.843786,35.0720469 141.952442,35.292054 C142.282925,35.292054 142.613061,35.292054 142.940767,35.2941393 C142.789412,35.0251259 142.638403,34.7588931 142.482882,34.4947455 C142.063529,33.7780716 141.988893,33.6908334 141.637234,33.5629304 C142.304448,33.468741 142.708527,33.0447147 142.708527,32.4455169 C142.708527,31.7396175 142.233631,31.3409633 141.381734,31.3388779 C140.755829,31.3367925 140.127495,31.3347071 139.503326,31.3329693 L139.503673,31.3329693 Z M138.176881,33.2942646 C138.187642,31.6370865 139.539776,30.3045319 141.192886,30.3111355 C142.866478,30.3111355 144.199172,31.6568976 144.195007,33.3092098 C144.186675,34.9552659 142.851204,36.2815644 141.179348,36.2815644 C139.522419,36.2766986 138.178963,34.9291987 138.176881,33.2942646 L138.176881,33.2942646 Z M137.461412,33.2880085 C137.461412,35.3410603 139.107232,37.0003237 141.175529,37.0062323 C143.23723,37.0083177 144.921236,35.3469688 144.925402,33.3071244 C144.930262,31.245036 143.25181,29.5882055 141.192886,29.5819494 C139.126672,29.579864 137.465231,31.236347 137.461412,33.2880085 L137.461412,33.2880085 Z" id="Fill-3" fill="#30100F"></path>
                        <g id="Group-7" transform="translate(44.087563, 0.164745)">
                            <mask id="mask-2" fill="white">
                                <use xlink:href="#path-1"></use>
                            </mask>
                            <g id="Clip-6"></g>
                            <path d="M1.6009687,6.17625542 L1.6009687,1.18351988 L0.0731784123,1.18351988 L0.0731784123,0.298625714 L4.10250399,0.298625714 L4.10250399,1.18351988 L2.57540799,1.18351988 L2.57540799,6.17625542 L1.6009687,6.17625542 Z M56.6770969,5.28301975 L56.6770969,6.17590786 L53.366711,6.17590786 L53.366711,0.298625714 L56.6364808,0.298625714 L56.6364808,1.18317232 L54.3491347,1.18317232 L54.3491347,2.57168457 L56.2567029,2.57168457 L56.2567029,3.44024329 L54.3491347,3.44024329 L54.3491347,5.28301975 L56.6770969,5.28301975 Z M44.7540146,0.290631776 L45.6947807,0.290631776 L46.5532732,4.45686365 L47.5113966,0.290631776 L48.4278625,0.290631776 L49.3280125,4.47319909 L50.2361469,0.290631776 L51.16025,0.290631776 L49.873032,6.17660298 L48.8735982,6.17660298 L47.9571323,2.05138348 L47.0573294,6.17660298 L46.0172795,6.17660298 L44.7540146,0.290631776 Z M37.1563736,6.17625542 L37.1563736,1.18351988 L35.6292776,1.18351988 L35.6292776,0.298625714 L39.658256,0.298625714 L39.658256,1.18351988 L38.13116,1.18351988 L38.13116,6.17625542 L37.1563736,6.17625542 Z M32.3265289,0.298625714 L33.283958,0.298625714 L33.283958,6.17590786 L32.3265289,6.17590786 L32.3265289,3.48924961 L30.5758708,3.48924961 L30.5758708,6.17590786 L29.6180945,6.17590786 L29.6180945,0.298625714 L30.5758708,0.298625714 L30.5758708,2.63806901 L32.3265289,2.63806901 L32.3265289,0.298625714 Z M25.9841684,1.9853466 C25.9841684,1.63743652 25.9265422,1.39796595 25.819274,1.25755069 C25.69569,1.1008 25.4558119,1.01773256 25.1173444,1.01773256 C24.4900513,1.01773256 24.1682468,1.34027057 24.1595682,1.9853466 L24.1435994,3.24977904 L24.1595682,4.50621753 C24.1682468,5.20064744 24.4240935,5.48981945 25.1173444,5.48981945 C25.69569,5.48981945 25.9841684,5.1926535 25.9841684,4.60596797 L25.9841684,3.79510462 L25.0437494,3.79510462 L25.0437494,2.95261308 L26.9589549,2.95261308 L26.9589549,4.69633423 C26.9589549,5.22567194 26.7770503,5.63092983 26.4219197,5.90341884 C26.0997681,6.15157848 25.6627111,6.27531074 25.1173444,6.27531074 C23.8377637,6.27531074 23.1938075,5.75500965 23.1771445,4.70467573 C23.1691601,4.00190432 23.1604815,3.51427411 23.1604815,3.24977904 C23.1604815,2.68742288 23.1691601,2.17511574 23.1771445,1.71216247 C23.1858232,1.24121526 23.3673806,0.868975802 23.7058481,0.59648679 C24.0439685,0.32295509 24.5146987,0.182539833 25.1006814,0.182539833 C25.6463952,0.182539833 26.0751207,0.298625714 26.3972724,0.522108411 C26.7687188,0.777914423 26.942639,1.17517838 26.9339603,1.7034734 L26.9256288,2.16677424 L25.9841684,2.16677424 L25.9841684,1.9853466 Z M19.4942708,6.17660298 L20.4766945,6.17660298 L20.4766945,0.290631776 L19.4942708,0.290631776 L19.4942708,6.17660298 Z M12.8308001,0.290631776 L14.094065,0.290631776 L15.7371078,4.51455903 L15.7371078,0.298278151 L16.6615581,0.298278151 L16.6615581,6.17660298 L15.4729296,6.17660298 L13.747266,1.84458378 L13.747266,6.17660298 L12.8308001,6.17660298 L12.8308001,0.290631776 Z M9.18090528,1.98499904 C9.17257378,1.33192907 8.88340102,1.050751 8.19778734,1.050751 C7.51321509,1.050751 7.22404233,1.33192907 7.21536368,1.98499904 L7.1907163,3.23309603 L7.21536368,4.48154059 C7.22404233,5.14295206 7.52918382,5.42378257 8.19778734,5.42378257 C8.84243777,5.42378257 9.17257378,5.10993362 9.18090528,4.48154059 L9.20555266,3.23309603 L9.18090528,1.98499904 Z M10.1466659,4.80373104 L10.1466659,4.80373104 C10.1303501,5.32472725 9.92379808,5.71330215 9.52735716,5.96980328 C9.18888965,6.17590786 8.75113833,6.27531074 8.19778734,6.27531074 C7.64513064,6.27531074 7.20703217,6.17590786 6.86856466,5.96980328 C6.46448652,5.71330215 6.25793455,5.32472725 6.24925589,4.80373104 C6.24092439,4.20071008 6.23294002,3.6793663 6.23294002,3.2251021 C6.23294002,2.82853327 6.24092439,2.32352493 6.24925589,1.72085153 C6.25793455,1.19950775 6.46448652,0.811280424 6.8605803,0.538096287 C7.20703217,0.298625714 7.653115,0.182887396 8.19778734,0.182887396 C8.75113833,0.182887396 9.18888965,0.290631776 9.52735716,0.505077848 C9.92379808,0.761231422 10.1303501,1.15050144 10.1466659,1.67080253 C10.1549974,1.86926072 10.1549974,2.39025693 10.1549974,3.2251021 C10.1549974,4.07663026 10.1549974,4.60527285 10.1466659,4.80373104 L10.1466659,4.80373104 Z" id="Fill-5" fill="#30100F" mask="url(#mask-2)"></path>
                        </g>
                    </g>
                </g>
            </g>
        </g>
    </g>
</svg>