<?xml version="1.0" encoding="UTF-8" standalone="no"?>
<svg width="76px" height="75px" viewBox="0 0 76 75" version="1.1" xmlns="http://www.w3.org/2000/svg" xmlns:xlink="http://www.w3.org/1999/xlink">
    <!-- Generator: Sketch 3.8.3 (29802) - http://www.bohemiancoding.com/sketch -->
    <title>Page 1 Copy 19</title>
    <desc>Created with Sketch.</desc>
    <defs>
        <polygon id="path-1" points="41.7644618 70.1419547 41.7644618 0.0740792032 0.301500135 0.0740792032 0.301500135 70.1419547 41.7644618 70.1419547"></polygon>
        <polygon id="path-3" points="38.6672232 0.299664673 3.28981696e-05 0.299664673 3.28981696e-05 9.85003543 38.6672232 9.85003543 38.6672232 0.299664673"></polygon>
    </defs>
    <g id="Boostrap-3-Grid" stroke="none" stroke-width="1" fill="none" fill-rule="evenodd">
        <g id="MVDSoundCity-Site-v1-Copy-3" transform="translate(-439.000000, -5388.000000)">
            <g id="Group-30" transform="translate(110.000000, 5356.000000)">
                <g id="Group-9-Copy" transform="translate(329.000000, 32.000000)">
                    <g id="Page-1-Copy-19">
                        <g id="Group-3" transform="translate(33.777778, 4.695402)">
                            <mask id="mask-2" fill="white">
                                <use xlink:href="#path-1"></use>
                            </mask>
                            <g id="Clip-2"></g>
                            <polygon id="Fill-1" fill="#2F110F" mask="url(#mask-2)" points="0.301500135 70.1293821 0.330161701 10.2949579 4.96486725 13.1800435 5.04759495 31.0556629 15.3745527 0.399643901 19.4024799 3.56099623 12.1631545 31.0596332 27.6394232 0.0740792032 31.2292843 2.98000882 21.2384486 27.8757825 27.7241051 25.3900431 41.7646898 31.9420326 41.7614328 40.861976 38.3178108 40.8609834 34.2361432 33.6648125 23.1542137 33.6578645 17.6033152 43.4079316 23.1415115 53.1583297 34.2247437 53.1649468 38.5060652 45.6375866 41.7575244 45.63891 41.7519875 56.2703841 27.4944868 62.0547821 18.0172794 57.4015891 15.9556008 70.1419547 1.37826307 70.1340141"></polygon>
                        </g>
                        <g id="Group-6">
                            <mask id="mask-4" fill="white">
                                <use xlink:href="#path-3"></use>
                            </mask>
                            <g id="Clip-5"></g>
                            <path d="M29.5244934,0.299504596 C24.4742957,0.299504596 20.375184,4.28190723 20.3722232,9.19820074 C20.3722232,5.94382958 17.6620722,3.2977521 14.3169865,3.2977521 C10.9715718,3.2977521 8.25714399,5.93742649 8.25418316,9.19115734 C8.25418316,6.9760079 6.41089883,5.17449816 4.13138479,5.17161677 C1.85187075,5.17161677 3.28981696e-05,6.96992496 3.28981696e-05,9.19019688 L3.28981696e-05,9.83018585 L38.6672232,9.85003543 L38.6672232,9.20716507 C38.6672232,4.29055141 34.5746912,0.305587533 29.5244934,0.299504596" id="Fill-4" fill="#2F110F" mask="url(#mask-4)"></path>
                        </g>
                        <path d="M68.4938272,48.5675417 L68.4938272,47.3089197 L67.1022185,46.9703006 C66.9942602,46.4758773 66.7990796,46.0143935 66.5370832,45.6006722 L67.3191225,44.3878362 L66.4297832,43.4955026 L65.2043909,44.2455372 C64.7916479,43.983338 64.3315086,43.7827358 63.8394427,43.669753 L63.534658,42.2602677 L62.2786555,42.2586207 L61.9399693,43.6569066 C61.4459285,43.7642897 60.9844726,43.9612685 60.5723879,44.2234676 L59.354895,43.4388464 L58.4695054,44.3249216 L59.2136934,45.5529098 C58.9497223,45.9672899 58.7545416,46.4291031 58.6423044,46.9212206 L57.2345679,47.2278883 L57.2345679,48.4776166 L58.627164,48.8205178 C58.7311726,49.3165881 58.9296446,49.7734603 59.1886787,50.1937696 L58.4096017,51.4029822 L59.2953204,52.2949865 L60.5203837,51.5472576 C60.9377346,51.8127508 61.3991904,52.0070944 61.8892815,52.1243594 L62.1947245,53.5275862 L63.450727,53.526598 L63.7857927,52.1378646 C64.2827957,52.0321285 64.7412893,51.831197 65.1569945,51.5736093 L66.3735001,52.348678 L67.2569149,51.4672144 L66.5130559,50.2428496 C66.7776854,49.8301164 66.9741826,49.3699503 67.0880655,48.872233 L68.4938272,48.5675417 Z" id="Fill-7" fill="#2F110F"></path>
                        <path d="M24.3924402,21.0940592 C24.3924402,21.2057714 24.3541001,21.3046431 24.2747985,21.382328 C24.1945138,21.461939 24.0939121,21.4966083 23.9756151,21.4966083 L19.6592467,21.4940402 C19.5396389,21.4966083 19.4436249,21.5325616 19.3623571,21.6044683 C19.2820724,21.6741279 19.2404554,21.7688264 19.2437324,21.8827857 L19.2381616,32.4617359 C19.2381616,32.5766582 19.1994939,32.6742459 19.1260907,32.7496837 C19.0520321,32.8292947 18.9566736,32.864927 18.8439473,32.8678161 L15.7973882,32.8678161 C15.6787634,32.8678161 15.5784894,32.8292947 15.4991878,32.7496837 C15.42218,32.6694307 15.3802354,32.572164 15.3802354,32.4585258 L15.3831846,21.8827857 C15.3871169,21.7624062 15.3504153,21.6696337 15.2766845,21.6044683 C15.2029536,21.5315986 15.110872,21.4940402 14.9932303,21.4940402 L10.7384682,21.4927561 C10.6227926,21.4879409 10.5208802,21.4545557 10.4445278,21.3752657 C10.3619492,21.2946917 10.3209877,21.1983881 10.3209877,21.0866759 L10.3239369,18.250856 C10.3239369,17.984095 10.4622232,17.8425287 10.7410897,17.8425287 L14.9932303,17.848949 L15.8042697,17.8476649 L18.8508288,17.848949 L19.6592467,17.848949 L23.9782366,17.8521591 C24.0968614,17.8521591 24.1945138,17.8945327 24.2770924,17.9699705 C24.3541001,18.0511865 24.3950617,18.1455641 24.3950617,18.2588813 L24.3924402,21.0940592 Z" id="Fill-9" fill="#2F110F"></path>
                        <path d="M20.5955231,45.7175456 L20.5985323,41.9210784 L14.1248728,41.9185091 L14.1248728,45.7169033 L20.5955231,45.7175456 Z M21.7821267,38.506474 C22.138208,38.506474 22.4762346,38.575524 22.8005528,38.7107336 C23.117181,38.8485125 23.3953591,39.0264368 23.6247223,39.2464334 C23.8580977,39.472211 24.0416552,39.7387762 24.1864281,40.0397059 C24.3265202,40.3480223 24.3950617,40.6759297 24.3950617,41.0182894 L24.3917182,46.705764 C24.3917182,47.0522989 24.3201676,47.3757099 24.1804099,47.6856322 C24.038646,47.9936275 23.8524138,48.2579446 23.6193728,48.4801893 C23.3893408,48.7011494 23.1138375,48.8806795 22.7945345,49.0158891 C22.4705506,49.1501352 22.1321897,49.2188641 21.7791175,49.2188641 L14.680226,49.2140467 C14.5618665,49.2140467 14.4598902,49.2532285 14.3776404,49.3219574 C14.2987341,49.3967884 14.2546001,49.4863928 14.2546001,49.6013692 L14.2546001,53.1280595 C14.2515909,53.3959094 14.115511,53.5266227 13.8283055,53.5275862 L10.7476166,53.5266227 C10.4630859,53.5266227 10.3209877,53.3917343 10.3209877,53.1222786 L10.3273403,38.9130663 C10.3303494,38.6381508 10.472782,38.5035835 10.7539692,38.5022989 L21.7821267,38.506474 Z" id="Fill-11" fill="#2F110F"></path>
                        <path d="M24.2720243,58.3489212 C24.3562782,58.4259951 24.3950617,58.5226587 24.3950617,58.636985 L24.392387,61.4681675 C24.3950617,61.5876321 24.3526005,61.6788362 24.2720243,61.7584793 C24.1897765,61.8374801 24.0874682,61.8766593 23.9687773,61.8766593 L14.3698542,61.8731268 C14.2973023,61.8731268 14.2581844,61.8972124 14.2581844,61.9546967 L14.2581844,64.2942117 C14.2581844,64.3674319 14.2946275,64.4050055 14.3698542,64.4050055 L22.1576534,64.408538 C22.274004,64.408538 22.3753092,64.4496441 22.4475268,64.5273603 C22.5230878,64.603792 22.5625401,64.7023824 22.5625401,64.812855 L22.558528,67.5014507 C22.558528,67.6112811 22.5200788,67.7121195 22.4438491,67.7911203 C22.3682881,67.8678731 22.274004,67.9070523 22.1576534,67.9070523 L14.3658421,67.9003083 C14.2912841,67.9003083 14.2545066,67.9369185 14.2545066,68.0155981 L14.2545066,72.842032 C14.2545066,73.1121119 14.1127462,73.2482759 13.8288909,73.2482759 L10.744263,73.2482759 C10.4607421,73.2482759 10.3209877,73.1114696 10.3209877,72.8439589 L10.3276745,58.6289565 C10.3276745,58.3556652 10.4687663,58.2201435 10.7506155,58.2230338 L23.9727894,58.2275298 C24.0908116,58.2243183 24.1897765,58.266709 24.2720243,58.3489212" id="Fill-13" fill="#2F110F"></path>
                    </g>
                </g>
            </g>
        </g>
    </g>
</svg>