<?xml version="1.0" encoding="UTF-8" standalone="no"?>
<svg width="38px" height="30px" viewBox="0 0 38 30" version="1.1" xmlns="http://www.w3.org/2000/svg" xmlns:xlink="http://www.w3.org/1999/xlink">
    <!-- Generator: Sketch 3.8.3 (29802) - http://www.bohemiancoding.com/sketch -->
    <title>Fill 1 Copy</title>
    <desc>Created with Sketch.</desc>
    <defs></defs>
    <g id="Boostrap-3-Grid" stroke="none" stroke-width="1" fill="none" fill-rule="evenodd">
        <g id="MVDSoundCity-Site-v1-Copy-3" transform="translate(-859.000000, -5415.000000)" fill="#2F110F">
            <g id="Group-30" transform="translate(110.000000, 5356.000000)">
                <path d="M786.186047,62.5430828 C784.817838,63.1440368 783.34748,63.5501961 781.804217,63.7328667 C783.379445,62.7976901 784.589056,61.3169264 785.1587,59.5525921 C783.68467,60.4183916 782.051906,61.0472312 780.314136,61.3861688 C778.922397,59.917664 776.939658,59 774.74541,59 C770.531971,59 767.116007,62.3830439 767.116007,66.5557746 C767.116007,67.1479723 767.183608,67.724678 767.313642,68.2776743 C760.973012,67.9625809 755.351511,64.9544429 751.588701,60.3830969 C750.932004,61.4990582 750.555777,62.7970165 750.555777,64.1817299 C750.555777,66.8031074 751.902767,69.1158577 753.949842,70.4707995 C752.699154,70.4315981 751.522868,70.0917176 750.494161,69.5257889 C750.493617,69.5573117 750.493617,69.5889692 750.493617,69.6207614 C750.493617,73.281718 753.123395,76.3356584 756.613489,77.029699 C755.973251,77.2024009 755.29928,77.2946792 754.60341,77.2946792 C754.11184,77.2946792 753.633872,77.247395 753.168145,77.1591581 C754.138908,80.1610993 756.956391,82.3456029 760.294825,82.4066279 C757.683817,84.4331133 754.394214,85.6410835 750.819925,85.6410835 C750.20417,85.6410835 749.596848,85.6053846 749,85.5356033 C752.376247,87.6794237 756.386474,88.9302326 760.694855,88.9302326 C774.727592,88.9302326 782.401201,77.416729 782.401201,67.431947 C782.401201,67.1043253 782.393856,66.7784549 782.379166,66.4544705 C783.869655,65.3891613 785.163189,64.058333 786.186047,62.5430828" id="Fill-1-Copy"></path>
            </g>
        </g>
    </g>
</svg>